<?xml version="1.0" standalone="no"?>
<!DOCTYPE svg PUBLIC "-//W3C//DTD SVG 1.1//EN" "http://www.w3.org/Graphics/SVG/1.1/DTD/svg11.dtd" >
<svg xmlns="http://www.w3.org/2000/svg" xmlns:xlink="http://www.w3.org/1999/xlink" version="1.1">
<metadata>
Created by FontForge 20150824 at Wed Apr 13 00:05:32 2016
 By Everything Fonts
 !22! Soft 1992
</metadata>
<defs>
<font id="LITRBIT" horiz-adv-x="1305" >
  <font-face 
    font-family="LITRBIT"
    font-weight="700"
    font-stretch="normal"
    units-per-em="2048"
    panose-1="2 11 8 0 0 0 0 0 0 0"
    ascent="1638"
    descent="-410"
    x-height="985"
    cap-height="1454"
    bbox="-37 -528 2845 1874"
    underline-thickness="72"
    underline-position="-206"
    unicode-range="U+0020-2219"
  />
<missing-glyph horiz-adv-x="1536" 
d="M256 0v1280h1024v-1280h-1024zM1248 32v1216h-960v-1216h960z" />
    <glyph glyph-name=".notdef" horiz-adv-x="1536" 
d="M256 0v1280h1024v-1280h-1024zM1248 32v1216h-960v-1216h960z" />
    <glyph glyph-name=".null" horiz-adv-x="0" 
 />
    <glyph glyph-name="nonmarkingreturn" horiz-adv-x="727" 
 />
    <glyph glyph-name="space" unicode=" " horiz-adv-x="727" 
 />
    <glyph glyph-name="exclam" unicode="!" horiz-adv-x="868" 
d="M76 133q0 60 62 109q59 47 125 47q68 0 127.5 -49.5t59.5 -106.5t-56 -104q-59 -49 -131 -49q-69 0 -127 47q-60 47 -60 106zM359 369h-111q20 82 40 155q17 72 22 119q19 137 27 215q22 199 43 316q23 116 89 208q59 82 165 82h20q59 -4 101 -39q42 -34 42 -104
q0 -98 -109 -303q-39 -70 -64 -111q-24 -43 -54 -98q-64 -111 -106 -199q-44 -88 -105 -241z" />
    <glyph glyph-name="quotedbl" unicode="&#x22;" horiz-adv-x="1091" 
d="M476 1382l-103 -454h-96l-105 454h304zM919 1382l-103 -454h-101l-103 454h307z" />
    <glyph glyph-name="numbersign" unicode="#" horiz-adv-x="1735" 
d="M1111 0h-192l76 344h-411l-73 -344h-192l75 344h-380l35 176h383l77 369h-378l36 174h379l78 348h192l-79 -348h410l75 348h192l-75 -348h380l-38 -174h-379l-80 -369h383l-39 -176h-379zM1030 520l81 369h-408l-79 -369h406z" />
    <glyph glyph-name="dollar" unicode="$" horiz-adv-x="1743" 
d="M1269 1624l-45 -141q138 0 261 -68q120 -67 130 -164q3 -16 3 -30q0 -52 -37 -82q-45 -39 -108 -39h-10q-98 6 -124 100q-4 19 -9 40.5t-10 35.5q-20 90 -131 108l-159 -507q197 -97 290 -181q94 -84 108 -198q3 -19 3 -37q0 -103 -69 -203q-81 -119 -246 -199
q-164 -79 -368 -88l-79 -235h-123l78 235q-223 23 -354 92q-132 70 -152 173q-3 14 -3 26q0 62 40 103q47 47 128 47h5q113 0 139 -123q3 -15 5 -43.5t8 -42.5q39 -117 212 -140l171 543q-105 45 -184 99q-81 53 -130 124q-52 70 -54 156v21q0 92 54 190q61 109 211 190
q148 80 382 97l43 141h124zM1072 1391q-150 -13 -239 -78q-91 -68 -98 -156v-4q0 -61 51 -111q52 -53 141 -108zM777 66q152 8 248 90t101 170v4q0 108 -199 215z" />
    <glyph glyph-name="percent" unicode="%" horiz-adv-x="2613" 
d="M366 1069v23q0 116 68 221q75 114 202 180q117 57 246 57h25q146 -6 254 -88q105 -82 115 -211q2 -18 2 -39q0 -67 -27 -141q-36 -96 -111 -170q-75 -76 -188 -115q-84 -28 -183 -28q-37 0 -73 4q-150 18 -236 100q-87 80 -94 207zM347 -305l1848 1845l76 -53
l-1858 -1847zM1374 41v16q0 125 71 232q74 112 202 178q112 55 236 55h31q146 -6 254 -88q105 -82 116 -211q2 -18 2 -37q0 -96 -56 -200q-70 -125 -204 -197q-107 -57 -241 -57q-38 0 -77 4q-153 18 -238 100q-89 80 -96 205zM605 995q-3 -6 -3 -18q-2 -14 -2 -23
q0 -10 -2 -20q0 -111 98 -133q19 -4 39 -4q123 0 192 166q14 41 54 159q12 39 27 82q12 41 17 72q12 82 12 90q0 121 -115 133q-10 2 -19 2q-119 0 -195 -170q-20 -45 -56 -160q-40 -129 -47 -176zM1612 -31q-7 -28 -7 -57v-8q0 -107 103 -127q20 -4 37 -4q115 0 190 164
q17 40 54 157t44 158q12 47 12 88v16q0 35 -17 70q-22 41 -98 49h-16q-80 0 -137 -72q-64 -81 -96 -178.5t-69 -255.5z" />
    <glyph glyph-name="ampersand" unicode="&#x26;" horiz-adv-x="1738" 
d="M1210 727h533l-27 -63q-77 -9 -121 -25q-47 -18 -86 -51q-41 -33 -120 -113q-29 -35 -52 -59q-24 -27 -73 -82q-13 -15 -25 -29q-15 -14 -29 -29l-30 -30q117 -148 213 -148h5q99 0 214 148l77 -49q-38 -62 -138.5 -144t-248.5 -82h-5q-159 0 -316 129
q-200 -129 -442 -129h-16q-211 6 -324 112.5t-113 256.5q0 178 153 299q150 119 359 190q-16 68 -16 136q0 86 25 172q45 151 176.5 248.5t330.5 97.5h9q165 0 254 -70q91 -74 91 -176v-4q0 -197 -361 -322q-68 -20 -143 -47q-40 -16 -84 -35q81 -276 246 -501
q59 57 120 141q56 80 56 123v4q-5 59 -122 68zM865 918q202 83 307.5 157t105.5 195v8q0 63 -47 102q-46 39 -122 39h-11q-134 -2 -195 -108q-65 -109 -65 -224q0 -112 27 -169zM615 700q-181 -116 -188 -292q0 -129 89 -213t219 -84q86 4 184 55q-112 119 -177 242
q-64 120 -127 292z" />
    <glyph glyph-name="quotesingle" unicode="'" horiz-adv-x="652" 
d="M68 899l23 74q219 82 219 168v4q0 24 -20 45q-10 8 -34 24q-76 50 -76 113v4q0 60 52 105q54 47 134 47h10q67 0 121 -35q56 -39 66 -102q2 -15 2 -31q0 -66 -47 -144q-58 -98 -176 -174q-121 -77 -274 -98z" />
    <glyph glyph-name="parenleft" unicode="(" 
d="M983 1503l47 -63q-340 -207 -482 -516q-135 -297 -135 -721v-45q7 -129 27 -224q20 -94 54 -170q32 -75 65.5 -124.5t87.5 -104.5l-63 -57q-232 151 -350.5 337.5t-144.5 360.5q-18 105 -18 203q0 61 8 121q48 372 310 620q260 246 594 383z" />
    <glyph glyph-name="parenright" unicode=")" 
d="M319 -522l-44 63q342 205 485 516q127 285 127 691v71q-2 232 -61 377q-61 143 -167 250l61 57q244 -153 359 -346q115 -192 140 -369q15 -98 15 -184q0 -67 -10 -127q-17 -147 -81 -289q-66 -143 -179 -272q-113 -131 -276 -242q-165 -112 -369 -196z" />
    <glyph glyph-name="asterisk" unicode="*" horiz-adv-x="1087" 
d="M584 1100q6 -2 14 -2q23 0 59 20q48 25 76 53q6 7 15 19q8 10 18 20q8 9 14 15q35 35 80 45q10 2 21 2q43 0 74.5 -33t31.5 -70q0 -10 -2 -20q-6 -45 -43 -72q-31 -20 -76 -20q-14 0 -30 2q-19 4 -35.5 8t-34.5 4q-23 6 -68 6q-98 -6 -98 -43v-4q0 -24 41 -59
q43 -39 74 -53q12 -7 32.5 -15t32.5 -16q78 -39 78 -109v-8q0 -31 -22 -57q-27 -33 -68 -41q-12 -2 -23 -2q-88 0 -108 114q0 13 -2 35q-4 21 -6 39q-4 37 -27 88q-22 49 -51 55h-12q-27 -6 -45 -51q-21 -45 -31 -92q-2 -18 -2 -33q-2 -16 -6 -41q-9 -59 -45 -88
q-33 -24 -68 -26q-8 0 -16 2q-43 8 -68 39q-27 30 -27 67q0 66 80 109q17 8 35 16q16 6 33 15q27 12 72 53q43 37 43 59v4q-2 33 -99 43q-45 0 -67 -6q-19 0 -35.5 -4t-38.5 -8q-16 -2 -31 -2q-100 0 -114 92q-3 8 -3 16q0 25 13 47q14 31 47 48q24 12 47 12q8 0 16 -2
q43 -8 80 -45q19 -17 51 -54q23 -22 72 -51q39 -22 62 -22q6 0 12 2q20 6 20 45q-8 76 -32 121q-17 30 -39 65q-17 37 -17 68q0 10 2 20q6 41 37 66q29 24 68 24q43 0 71 -24q29 -25 35 -66q2 -8 2 -16q0 -31 -18 -72q-2 -6 -17 -28q-14 -25 -18 -37q-33 -54 -33 -121
q-2 -10 -2 -19q0 -20 19 -26z" />
    <glyph glyph-name="plus" unicode="+" horiz-adv-x="1536" 
d="M942 1276h156l-125 -543h543l-37 -155h-543l-125 -543h-156l125 543h-542l36 155h543z" />
    <glyph glyph-name="comma" unicode="," horiz-adv-x="652" 
d="M0 -332l22 74q219 84 219 168v4q0 25 -20 45l-12 12q-15 11 -22 15q-77 39 -81 108q0 66 56 113t136 47q70 0 127 -35q54 -37 65 -104q2 -17 2 -33q0 -68 -44 -143q-59 -97 -178 -172q-118 -78 -270 -99z" />
    <glyph glyph-name="hyphen" unicode="-" horiz-adv-x="723" 
d="M98 596h572l-41 -162h-576z" />
    <glyph glyph-name="period" unicode="." horiz-adv-x="543" 
d="M100 133q0 68 47 113q46 43 113 43q66 0 113 -43q45 -45 45 -113q0 -63 -47 -108t-111 -45q-61 0 -110 45q-50 43 -50 108z" />
    <glyph glyph-name="slash" unicode="/" horiz-adv-x="1524" 
d="M206 -528l-147 69l1210 2181l154 -65z" />
    <glyph glyph-name="zero" unicode="0" 
d="M167 829q72 175 189 330q118 154 259 240q138 84 272 84h5q138 0 236 -80q99 -80 115 -242q5 -47 5 -96q0 -133 -41 -283q-62 -209 -182 -393q-122 -186 -275 -299q-152 -113 -310 -119h-15q-132 0 -238 84q-111 86 -128 256q-3 25 -3 51q0 52 10 111q16 88 37 168
q22 80 64 188zM440 692q-42 -114 -86 -297q-37 -149 -37 -227q0 -16 2 -31q18 -88 113 -88h16q82 19 186 182q103 164 189 383q84 220 131 420q29 131 29 211q0 41 -7 70q-24 82 -103 82q-204 0 -433 -705z" />
    <glyph glyph-name="one" unicode="1" 
d="M1098 1454l-410 -1270q-3 -16 -12 -39q-3 -16 -3 -26q0 -13 3 -19q7 -18 39 -28q20 -6 57 -6q12 -3 39 -3l-20 -63h-160h-326h-160l22 63q123 0 157 37q13 13 28 45q0 5 3.5 13t8.5 16q2 6 2 10l293 914q10 37 10 61q0 15 -3 25q-9 28 -103 28q-28 -4 -79 -4h-36l19 62
q180 6 293 47q110 39 201 137h137z" />
    <glyph glyph-name="two" unicode="2" 
d="M1147 344l-152 -344h-958l39 109q356 262 573 497q214 236 251 516q5 31 5 58q0 174 -148 192q-15 2 -30 2q-70 0 -143 -47q-75 -51 -75 -104q0 -9 2 -17q3 -10 12 -26q10 -17 12 -25q18 -33 28 -61q2 -13 2 -25q0 -49 -39 -84q-47 -41 -116 -41h-4q-62 6 -96 49
q-35 39 -35 92v9q2 82 81 180q78 96 212 158q115 51 248 51h37q172 -6 290 -107q105 -94 105 -246v-24q-12 -115 -95 -227q-86 -115 -261 -258q-174 -146 -526 -404h465q128 0 218 127h98z" />
    <glyph glyph-name="three" unicode="3" 
d="M490 788l19 66h30q68 0 146 16q92 21 168 91q74 69 88 200q2 23 2 43q0 64 -24 105q-32 53 -84 69q-36 13 -73 13q-14 0 -27 -2q-50 -7 -86.5 -33.5t-48.5 -57.5v-12q0 -16 5 -35q2 -16 19 -45l7 -45q0 -53 -41 -86q-37 -28 -86 -28h-14q-47 0 -87 32q-42 31 -44 82v13
q0 67 56 137q61 75 175 125q109 47 245 47h11q172 0 275 -68q101 -69 120 -170q7 -31 7 -61q0 -105 -87 -203q-119 -129 -362 -186q162 -56 236 -140q58 -69 58 -174q0 -24 -2 -51q-24 -180 -199 -319q-174 -140 -432 -140q-202 0 -320 92q-105 80 -105 205q0 19 2 37
q10 94 76 154q56 49 123 49q12 0 24 -2q59 -2 94 -43q24 -29 24 -60q0 -14 -5 -28q-9 -49 -103 -105q-7 -4 -17 -10q-9 -6 -14 -10q-7 -6 -16 -12q-17 -15 -17 -35q-2 -6 -2 -13q0 -28 28 -57q28 -37 85 -55q39 -15 86 -15q17 0 37 3q88 12 160 79q69 66 118 170
q47 103 66 230q7 35 7 65q0 78 -41 121q-56 57 -260 57z" />
    <glyph glyph-name="four" unicode="4" 
d="M1121 526l-44 -143h-209l-64 -199q-5 -12 -5 -18q-2 -8 -8 -21q-2 -24 -2 -36v-9q13 -18 42 -28q20 -6 56 -6q13 -3 40 -3l-20 -63h-159h-321h-159l18 63q122 0 162 37q12 13 26 45q0 5 16 39l61 199h-551v143q32 15 59 45l938 883h218l-300 -928h206zM797 1139
l-649 -613h450z" />
    <glyph glyph-name="five" unicode="5" 
d="M1251 1540l-132 -274h-589l-122 -389q172 94 312 94q19 0 37 -2q111 -6 200 -62q85 -55 132 -147q39 -82 39 -174v-29q-5 -137 -91 -270q-88 -135 -240 -221q-155 -89 -347 -95h-25q-186 0 -280 88q-96 88 -96 199v12q7 86 64 138q51 47 119 47h9q52 0 85 -35
q30 -31 30 -64q0 -8 -2 -16q-2 -23 -25 -64q-19 -20 -34 -32q-18 -15 -27 -25q-34 -33 -34 -61q0 -8 2 -15q10 -32 62 -59q49 -27 108 -27q115 0 211 121t143 279q29 108 29 190q0 37 -5 68q-24 127 -145 139q-17 2 -34 2q-141 0 -261 -186l-110 35l240 749h541q76 0 118 21
q40 18 74 69z" />
    <glyph glyph-name="six" unicode="6" 
d="M504 860q120 70 251 70q24 0 49 -2q94 -10 173.5 -58.5t126.5 -138.5q39 -76 39 -166q0 -18 -3 -39q-9 -147 -103 -276q-94 -131 -235 -205q-143 -74 -305 -74q-70 0 -171 29q-100 29 -186 137q-81 99 -81 289v33q7 225 145 475q136 250 352 407q197 144 415 144
q19 0 40 -2q129 -6 188 -56q47 -43 47 -86q0 -10 -3 -20q-19 -66 -96 -70h-9q-42 0 -69 19q-32 18 -72 63q-21 37 -33 45q-30 31 -72 31q-10 0 -19 -2q-120 -21 -221 -215.5t-148 -331.5zM366 360q-17 -71 -17 -122q0 -48 15 -95q22 -102 133 -102h14q99 2 183 123
q80 121 115 280q17 91 17 158q0 51 -10 92q-25 111 -140 131q-15 2 -29 2q-40 0 -84 -16q-61 -25 -96 -66q-33 -32 -52 -137q-9 -57 -17 -88q-7 -33 -15 -69q-7 -37 -17 -91z" />
    <glyph glyph-name="seven" unicode="7" 
d="M1327 1454l-30 -98q-36 -2 -75 -35q-35 -29 -77 -90q-49 -66 -78 -107q-32 -41 -72 -90q-162 -219 -301 -508q-143 -290 -200 -526h-369q67 375 617 950q119 119 204 215q20 23 37 41q14 19 40 47h-493q-208 0 -309 -143h-76l186 344h996z" />
    <glyph glyph-name="eight" unicode="8" 
d="M476 797q-75 53 -127 135q-51 82 -59 166v8q0 90 66 178q66 92 192 148q121 51 280 51h10q189 0 295 -82q106 -84 118 -201q2 -14 2 -26q0 -115 -95 -197q-109 -92 -243 -137q274 -234 279 -410v-8q0 -103 -75 -203q-82 -106 -232 -176t-329 -72h-10q-236 0 -363 107
q-133 106 -133 256q0 139 115 266q113 127 309 197zM590 715q-133 -58 -214 -162q-83 -104 -99 -219q-2 -23 -2 -43q0 -101 72 -158q78 -63 197 -63h19q89 2 160 45q68 43 103 108q32 64 32 123q0 184 -268 369zM807 911q152 58 190 146q40 86 40 149q-2 90 -61 142
q-59 49 -160 49h-9q-108 0 -180 -58q-76 -59 -81 -133v-4q0 -137 261 -291z" />
    <glyph glyph-name="nine" unicode="9" 
d="M797 592q-124 -68 -251 -68q-25 0 -49 2q-141 19 -241 125q-96 101 -96 258v23q7 139 98 268q89 129 236 209q145 78 310 78q153 -4 251 -66q95 -61 142 -174q44 -106 44 -237v-13q-7 -225 -143.5 -475t-352.5 -407q-199 -146 -416 -146q-19 0 -39 2q-135 9 -189 60
q-47 43 -47 86q0 10 2 20q20 62 96 70h10q70 0 140 -86q22 -35 35 -45q29 -31 69 -31q9 0 19 2q81 12 165 131q81 117 135 238t72 176zM934 1094q18 82 18 141q0 45 -11 76q-34 106 -146 106h-6q-86 -2 -160 -92q-73 -90 -113 -221q-42 -133 -42 -240q0 -63 10 -102
q22 -115 140 -131q15 -2 30 -2q45 0 91 20q59 25 88 60q37 39 52 137q13 67 25 117q9 49 24 131z" />
    <glyph glyph-name="colon" unicode=":" horiz-adv-x="723" 
d="M115 133q0 64 45 111q43 45 110 45q64 0 113 -43q47 -45 47 -113q0 -67 -47 -110q-49 -43 -113 -43q-65 0 -110 45t-45 108zM289 831q0 64 45 111t112 47q64 0 111 -45q45 -47 45 -113q0 -65 -47 -110t-109 -45q-65 0 -110 47q-47 45 -47 108z" />
    <glyph glyph-name="semicolon" unicode=";" horiz-adv-x="723" 
d="M0 -332l18 74q183 84 183 168v4q0 25 -17 45l-10 12q-12 11 -18 15q-64 45 -64 108v4q0 62 45 109t111 47q61 0 108 -37t56 -102q2 -15 2 -31q0 -66 -39 -143q-51 -99 -150 -174q-98 -78 -225 -99zM260 829q0 70 47 113t111 43q61 0 108 -43t47 -113q0 -65 -43 -110
q-45 -47 -112 -47q-66 0 -111 45q-47 43 -47 112z" />
    <glyph glyph-name="less" unicode="&#x3c;" horiz-adv-x="1448" 
d="M193 498l1361 528l27 -123l-1051 -397l-4 -14l869 -398l-84 -123z" />
    <glyph glyph-name="equal" unicode="=" horiz-adv-x="1452" 
d="M295 877h1241l-37 -156h-1241zM217 528h1262l-37 -155h-1264z" />
    <glyph glyph-name="greater" unicode="&#x3e;" horiz-adv-x="1448" 
d="M1487 498l-1364 -527l-23 123l1047 398l4 14l-864 397l80 123z" />
    <glyph glyph-name="question" unicode="?" 
d="M113 127q0 59 61 109q60 47 131 47q68 0 129 -47q60 -50 60 -109q0 -55 -60 -104q-61 -52 -129 -52q-71 0 -131 52q-61 49 -61 104zM391 379h-114q37 160 129 268q26 37 159 156q197 174 224 313q6 29 6 55q0 72 -45 129q-62 78 -160 84q-15 2 -27 2q-57 0 -96 -28
q-52 -35 -52 -78q0 -12 10 -33q7 -10 15 -20q8 -13 10 -25q19 -28 19 -65q0 -52 -49 -95q-44 -36 -106 -36h-19q-63 6 -98 45q-37 36 -37 88v8q0 67 63 147q70 86 202 142q116 49 256 49q20 0 42 -2q189 -6 309 -111q113 -98 113 -233v-17q-7 -186 -233 -321
q-61 -33 -216 -103q-112 -57 -187 -129q-79 -71 -118 -190z" />
    <glyph glyph-name="at" unicode="@" horiz-adv-x="2699" 
d="M2268 1137l-326 -512q-71 -117 -89 -176q-9 -33 -9 -60q0 -94 138 -94q100 0 206 61q103 60 186 170q84 111 126 242q34 100 34 195q0 98 -36 190q-77 182 -281 293q-207 108 -516 108q-219 0 -420 -59q-204 -61 -374 -172q-170 -113 -295 -274q-125 -164 -180 -357
q-36 -127 -36 -237q0 -129 49 -234q90 -196 300 -295q207 -100 465 -104q333 0 646 172l69 -103q-359 -190 -752 -200q-246 0 -443 70.5t-324 201.5q-129 131 -170 311q-18 74 -18 156q0 115 35 240q54 188 187 370q130 183 322 324q192 139 448 223q253 84 523 84h14
q254 0 453 -72q202 -73 319 -200q115 -127 150 -293q15 -66 15 -133q0 -103 -32 -207q-63 -231 -253 -418q-187 -182 -487 -182h-19q-263 0 -322 174q-266 -172 -480 -172q-101 0 -176 31q-80 28 -129 85.5t-63 135.5q-8 35 -8 72q0 43 10 88q32 163 162 313
q128 149 310 237q175 84 339 84h10q167 0 246 -63q76 -66 91 -125l78 111h307zM1782 889q3 6 3 20v15q-3 24 -17 53q-18 29 -52 49q-37 21 -93 21h-5q-183 0 -345 -148q-164 -151 -216 -336q-13 -45 -13 -84q0 -53 23 -94q37 -72 148 -74h4q158 0 303 152z" />
    <glyph glyph-name="A" unicode="A" horiz-adv-x="1848" 
d="M1450 1516l74 -1291q10 -88 47 -131q31 -37 127 -37h30l-20 -57h-737l19 57q40 0 63 2q45 0 75 17q52 24 52 92l-17 287h-593l-130 -195q-67 -98 -67 -131q10 -37 40 -53q19 -13 71 -13q8 -2 44 -6l-19 -57h-516l17 57q63 6 100 31q38 23 89 86l770 1045q21 30 21 47v4
q-7 28 -61 28l-103 5l25 65h36q65 0 128 10q83 13 153 47q66 33 101 91h181zM1126 1214l-465 -641h500z" />
    <glyph glyph-name="B" unicode="B" horiz-adv-x="1848" 
d="M511 1391l19 63h623q575 0 575 -305v-12q-5 -117 -110.5 -209t-324.5 -133q140 -25 262 -101q112 -69 112 -202v-29q-13 -123 -112 -230q-100 -106 -286 -170q-188 -63 -438 -63h-767l20 63q120 0 157 37q5 9 22 45q5 13 7 21q0 6 5 18l349 1086q5 8 10 41q8 18 8 30
q0 7 -3 13q-8 22 -34 28q-28 9 -59 9h-35zM840 854q47 -2 89 -2q241 0 330 92q92 100 92 217v17q-12 147 -204 176q-36 6 -63 6q-42 0 -59 -14q-32 -25 -49 -72zM807 745l-168 -516q-12 -30 -12 -45q0 -73 135 -75q209 0 357 108q145 109 159 254q3 21 3 41q0 139 -108 190
q-99 46 -273 46q-44 0 -93 -3z" />
    <glyph glyph-name="C" unicode="C" horiz-adv-x="1848" 
d="M1750 1331l-96 -284h-73q-26 155 -120 239q-96 84 -220 88h-14q-150 0 -284 -114q-141 -121 -240 -326q-101 -207 -131 -424q-7 -55 -7 -102q0 -156 82 -224q103 -90 240 -106h16q312 0 544 319h104l-116 -350q-238 -76 -541 -76h-29q-229 9 -457 113q-218 100 -218 401
v25q7 240 154 473q146 231 386 371q227 129 492 129h29q266 -2 499 -152z" />
    <glyph glyph-name="D" unicode="D" horiz-adv-x="2015" 
d="M521 1391l23 63h528q152 0 333 -31q180 -30 347 -157t176 -385q0 -193 -89 -389q-92 -197 -330 -345q-240 -147 -651 -147h-794l22 63q123 0 165 37q9 11 24 45q0 5 15 39l344 1069q27 72 27 95q0 4 -2 6q-7 20 -40 28q-26 9 -56 9h-42zM666 231q-21 -55 -21 -73
q0 -54 112 -54h15q300 9 471 162q173 154 237 342q61 189 66 346v25q0 354 -390 364h-13q-74 0 -104 -22q-31 -25 -44 -74z" />
    <glyph glyph-name="E" unicode="E" horiz-adv-x="1797" 
d="M1669 1454l-10 -305h-86q-20 72 -86 138.5t-197 66.5h-241q-68 0 -83 -15q-14 -14 -37 -63l-132 -418h287q74 0 131 25q54 22 103 100h83l-123 -387h-89q10 22 10 45q0 27 -12 51q-24 47 -122 47h-303l-169 -520q-13 -45 -13 -63q0 -43 27 -50q24 -6 94 -6h256
q152 0 242 50q91 49 199 188h99l-108 -338h-1379l25 63q117 0 159 37q5 4 22 45q5 11 10 19q2 8 8 20l346 1086q10 24 13 41q7 14 7 28q0 9 -2 15q-14 20 -40 28q-28 9 -61 9h-37l21 63h1188z" />
    <glyph glyph-name="F" unicode="F" horiz-adv-x="1684" 
d="M1578 1454l-12 -305h-89q-66 205 -283 205h-157q-68 0 -83 -17q-15 -16 -32 -61l-133 -418h201q157 0 232 125h89l-129 -387h-84q9 22 9 45q0 25 -11 51q-22 47 -125 47h-221l-180 -555q-7 -18 -7 -39q-7 -22 -7 -34q0 -7 2 -11q7 -18 40 -28q17 -6 56 -6q12 -3 40 -3
l-21 -63h-671l20 63q126 0 160 37q10 9 27 45q14 35 14 39l349 1086q5 12 8 22q2 8 4 19q6 12 6 22q0 13 -6 23q-12 18 -38 28q-18 7 -56 7h-40l19 63h1109z" />
    <glyph glyph-name="G" unicode="G" horiz-adv-x="2010" 
d="M1813 1331l-90 -284h-76q-24 151 -120 237q-99 86 -222 90h-15q-152 0 -287 -119q-142 -125 -236 -325q-96 -201 -128 -420q-8 -53 -8 -100q0 -158 84 -232q106 -96 239 -100h12q202 0 263 196l91 275q10 33 10 57q0 72 -79 80q-20 2 -54 2h-57l28 72h755l-23 -72h-47
q-34 0 -54 -2q-76 -10 -103 -96l-64 -193q-20 -47 -20 -88q0 -18 3 -35q3 -14 32 -67q14 -21 20 -29q-194 -121 -389 -164q-194 -43 -349 -43q-260 0 -469 127q-204 121 -204 391v21q7 182 91 358q80 174 225 318q146 143 345 225q179 72 361 72h40q263 -2 495 -152z" />
    <glyph glyph-name="H" unicode="H" horiz-adv-x="2121" 
d="M877 911h556l113 359q5 12 7 22q2 8 5 19q8 14 8 28q0 9 -2 15q-11 22 -40 28q-20 9 -54 9h-35l20 63h656l-19 -63q-121 0 -157 -37q-16 -17 -25 -43q0 -6 -15 -41l-349 -1086q0 -4 -3.5 -16t-6.5 -23q-5 -20 -5 -34v-11q12 -18 40 -28q17 -6 56 -6q12 -3 34 -3l-19 -63
h-654l20 63q118 0 153 37q19 23 21 45q10 19 15 39l196 607h-555l-196 -607q-8 -37 -8 -39q-3 -26 -3 -36v-9q3 -16 35 -28q19 -6 57 -6q12 -3 39 -3l-25 -63h-658l19 63q123 0 158 37q19 23 21 45q6 9 18 39l347 1086q10 24 12 41q7 14 7 28q0 9 -2 15q-7 20 -40 28
q-26 9 -56 9h-35l18 63h664l-23 -63q-120 0 -157 -37q-10 -11 -15 -25q-4 -14 -7 -18q-2 -13 -7 -21q-6 -10 -11 -20z" />
    <glyph glyph-name="I" unicode="I" horiz-adv-x="1194" 
d="M497 1391l24 63h160h361h159l-21 -63q-99 0 -136 -23q-38 -22 -63 -98l-350 -1086q-4 -12 -4 -18q-3 -8 -8 -21q-4 -20 -4 -34v-11q14 -18 39 -28q19 -6 61 -6q12 -3 40 -3l-25 -63h-160h-361h-160l22 63q121 0 163 37q5 9 22 45q14 35 14 39l349 1086q5 12 8 22
q2 8 4 19q5 18 5 30q0 9 -2 13q-5 20 -36 28q-28 9 -59 9h-42z" />
    <glyph glyph-name="J" unicode="J" 
d="M556 1391l16 63h176h359h136l-19 -63q-9 2 -19 2q-28 0 -55 -9q-41 -10 -64 -30q-19 -29 -21 -43q-12 -27 -16 -41l-292 -901q-42 -131 -79 -213q-39 -84 -118 -133q-81 -52 -220 -52q-129 0 -207 62q-74 55 -74 137v10q7 68 56 109q47 39 119 39q61 0 101 -35
q38 -37 38 -80v-16q-2 -9 -2 -17q-7 -16 -10 -22q-2 -6 -7 -19q0 -6 -2.5 -16t-4.5 -19v-4q0 -37 47 -37q40 5 70 41q26 31 26 76v17q0 2 -9 57q-2 16 -5 33q-4 14 -7 30q-5 15 -9 29q-12 33 -12 78q-3 20 -3 41q0 63 22 119l221 686q6 12 8 22q3 8 5 19q5 18 5 30
q0 9 -3 13q-15 22 -42 28q-27 9 -56 9q-12 2 -28 2q-14 0 -21 -2z" />
    <glyph glyph-name="K" unicode="K" horiz-adv-x="1956" 
d="M831 801l585 436q106 88 106 131q0 8 -3 14q-7 17 -42 27q-30 8 -58 8h-10l14 37h526l-12 -37q-42 -8 -124 -51q-28 -23 -70 -45l-20 -12q-13 -9 -22 -17l-514 -360q84 -318 214 -555q130 -240 327 -443l-96 -73q-133 90 -251 198q-117 109 -246 279q-127 168 -241 377
l-125 -92l-138 -439q-4 -12 -4 -18q-3 -8 -8 -21q-4 -20 -4 -34v-11q14 -18 39 -28q19 -6 57 -6q16 -3 39 -3l-20 -63h-160h-349h-157l20 63q122 0 160 37q9 11 24 45q0 5 15 39l348 1086q3 10 8 22q3 13 3 19q7 18 7 30q0 7 -2 13q-13 22 -40 28q-23 9 -56 9h-40l19 63h164
h348h155l-17 -63q-125 0 -162 -37q-7 -13 -12 -25q-9 -14 -11 -18q-2 -11 -5 -21q-5 -10 -9 -20z" />
    <glyph glyph-name="L" unicode="L" horiz-adv-x="1684" 
d="M1189 1391q-96 0 -129 -29q-35 -29 -49 -76l-345 -1067q-12 -41 -12 -59q0 -47 27 -54q25 -6 96 -6h302q152 0 246 50q91 49 194 188h101l-108 -338h-1426l20 63q122 0 162 37q12 19 15 25q3 4 12 20q0 5 15 39l349 1086q5 16 7 37q3 18 3 24v10q0 39 -50 48q-14 2 -47 2
h-37l21 63h654z" />
    <glyph glyph-name="M" unicode="M" horiz-adv-x="2340" 
d="M1248 459l640 995h307h157l-19 -53q-6 -4 -13 -4h-26q-16 -2 -35 -6q-29 -11 -49 -31q-10 -12 -15 -49q-7 -19 -7 -41l-131 -1086q-5 -12 -5 -39q0 -34 5 -45q10 -16 45 -28q9 0 26.5 -2t31.5 -4h26q9 -3 19 -3l-17 -63h-157h-347h-172l17 63q12 0 22 3h22q3 0 62 6
q58 20 73 112l116 942l-717 -1126h-117l-159 1126l-362 -888q-14 -31 -14 -58q0 -119 152 -119q20 0 45 2l-25 -63h-585l22 63q184 3 267 197l411 1000q13 34 13 59q0 67 -89 76h-54q-12 0 -22 2h-32l19 57h556z" />
    <glyph glyph-name="N" unicode="N" horiz-adv-x="2121" 
d="M1435 340l254 831q21 66 21 103q0 12 -2 20q-10 56 -57 78q-42 19 -85 19h-15l27 63h556l-28 -63q-201 -25 -253 -195l-376 -1225h-253l-482 1114l-266 -804q-16 -48 -16 -82q0 -136 194 -136h5l-28 -63h-587l27 63q103 0 157 50q52 47 84 147l335 1016q-30 72 -67 96
q-34 19 -101 19h-24l26 63h473z" />
    <glyph glyph-name="O" unicode="O" horiz-adv-x="2015" 
d="M190 543q0 168 78 340q76 170 219 309q140 137 336 217q183 74 389 74h29q199 -2 347 -74q147 -74 228 -199q79 -127 79 -288q0 -236 -140 -457q-140 -223 -374 -359q-236 -135 -508 -135q-179 0 -338 66q-157 63 -249 192q-94 127 -96 314zM580 532q-10 -73 -10 -110
q0 -62 10 -113q47 -237 293 -237q140 0 265 106q123 107 216 283q93 174 135 354q28 119 28 217q0 53 -8 101q-10 90 -69 165q-59 76 -199 84h-19q-136 0 -263 -96q-138 -106 -239 -301q-101 -194 -140 -453z" />
    <glyph glyph-name="P" unicode="P" horiz-adv-x="1797" 
d="M750 592l-131 -408q-4 -12 -4 -18q-3 -8 -8 -21q-2 -26 -2 -36v-9q2 -16 37 -28q19 -6 59 -6q10 -3 41 -3l-22 -63h-162h-349h-160l19 63q106 5 143 25q35 21 59 96l349 1086q5 12 8 22q2 8 4 19q5 18 5 30q0 9 -2 13q-15 22 -41 28q-28 9 -58 9h-33l19 63h155h435
q251 0 432 -70q167 -67 167 -280v-29q-17 -485 -833 -485q-61 0 -127 2zM784 700q47 -6 89 -6q169 0 280 99q135 120 172 284q7 39 7 72q0 80 -39 133q-57 74 -167 74q-129 0 -157 -82z" />
    <glyph glyph-name="Q" unicode="Q" horiz-adv-x="2015" 
d="M1597 -184l72 -74q-140 -154 -325 -160q-251 0 -349 215q-12 21 -46 115q-3 14 -20 59q-26 -2 -54 -2q-148 0 -291 47q-169 54 -279 187q-113 133 -115 340q0 168 78 340q76 170 219 309q140 137 336 217q183 74 389 74h29q199 -2 347 -74q147 -74 228 -199
q79 -127 79 -288q0 -181 -86 -363t-249 -326q-164 -143 -380 -215q56 -149 105 -211q50 -61 124 -61h10q80 0 178 70zM673 338q35 4 69 4q55 0 104 -10q83 -21 151 -66t114 -116q174 129 303 444q103 250 103 444q0 49 -8 95q-10 90 -69 165q-59 76 -199 84q-17 2 -31 2
q-119 0 -225 -79q-122 -91 -213 -238q-94 -149 -148 -328q-54 -178 -54 -313q0 -70 10 -117q25 -123 119 -184q78 -55 178 -55q17 0 35 2q-18 102 -72 147q-49 39 -141 39h-26v80z" />
    <glyph glyph-name="R" unicode="R" horiz-adv-x="1848" 
d="M490 1391l19 63h584q104 0 249 -22q143 -25 270 -117q119 -86 119 -246v-20q-10 -347 -530 -441q84 -405 392 -712l-96 -74q-192 135 -298 237q-106 103 -176 222q-74 116 -165 325h-23q-26 0 -78 2l-138 -424q-2 -4 -2 -12q-2 -10 -2 -14q0 -6 -3 -13q-7 -22 -7 -34
q0 -7 2 -11q5 -14 40 -28q19 -6 56 -6q17 -3 39 -3l-19 -63h-681l17 63q123 0 162 37q15 17 27 45q0 5 5 13q3 8 7 16q3 6 3 10l349 1086q3 6 5 18q0 12 2 23q10 22 10 35q0 4 -2 8q-15 22 -43 28q-26 9 -56 9h-38zM791 715q32 -2 62 -2q137 0 243 45q126 55 187 147
q61 90 68 195v26q0 86 -40 138q-52 59 -122 77q-46 11 -87 11q-21 0 -37 -2q-26 -2 -42 -13q-20 -10 -30 -24q-10 -17 -15 -29q-5 -14 -9 -27z" />
    <glyph glyph-name="S" unicode="S" horiz-adv-x="1684" 
d="M1379 1014q-2 203 -126 276q-122 72 -263 76h-14q-108 0 -190 -49q-90 -55 -98 -146q0 -53 35 -96q32 -43 142 -96q59 -25 141 -57q80 -35 92 -41q192 -82 303 -185q108 -102 108 -241v-9q-5 -184 -179 -329.5t-533 -145.5q-158 0 -313 35q-158 35 -353 139l90 320l77 -2
q14 -182 154 -279q135 -92 317 -92h15q165 0 281 80q108 76 108 176v12q-5 119 -192 211q-32 17 -78 35q-50 19 -82 33q-32 12 -71 27q-166 71 -258 155q-94 82 -94 234v8q5 111 74 209q69 96 211 155q136 56 325 56h15q290 0 541 -152l-109 -317h-76z" />
    <glyph glyph-name="T" unicode="T" horiz-adv-x="1578" 
d="M1517 1454l-23 -356h-93q-32 131 -90 190q-63 58 -117 66q-12 2 -24 2q-66 0 -91 -74l-352 -1098q-4 -12 -4 -18q-3 -8 -8 -21q-4 -20 -4 -34v-11q14 -20 44 -28q17 -6 56 -6q12 -3 40 -3l-20 -63h-165h-349h-157l20 63q118 0 160 37q16 21 24 45q7 11 9 19q0 8 5 20
l352 1098q7 21 7 35q0 37 -56 39q-12 2 -24 2q-104 0 -200 -80q-108 -90 -174 -180h-119l180 356h1173z" />
    <glyph glyph-name="U" unicode="U" horiz-adv-x="2067" 
d="M1546 1395l27 59h507l-30 -59q-86 -13 -125 -45q-42 -33 -67 -109l-199 -639q-34 -119 -78 -223q-47 -105 -129 -195q-83 -92 -216 -149q-132 -58 -333 -64q-213 0 -422 67.5t-209 283.5q0 86 26 165l237 750q6 20 8.5 45t2.5 33q0 47 -42 67q-14 9 -77 9q-19 4 -54 4
l28 59h744l-19 -59h-10q-108 0 -145 -35q-42 -37 -79 -158l-258 -778q-15 -57 -15 -115q8 -108 108 -166q92 -55 214 -55h16q157 6 260 73.5t167 180.5q61 111 105 254l192 594q17 63 17 102q0 15 -2 25q-22 78 -150 78z" />
    <glyph glyph-name="V" unicode="V" horiz-adv-x="1956" 
d="M922 340l582 815q47 68 69 109q10 20 10 39v6q0 15 -10 30q-13 29 -69 45q-36 9 -76 9q-23 0 -47 -2l20 63h595l-19 -63q-103 0 -155 -45q-52 -48 -129 -156l-894 -1219h-180l-125 1200q-13 113 -62 170q-43 50 -146 52q-16 0 -30 -2l19 63h708l-22 -63q-7 2 -20 2
q-12 0 -22 -2q-32 0 -42 -7q-34 -12 -39 -32q-3 -11 -3 -25t3 -35z" />
    <glyph glyph-name="W" unicode="W" horiz-adv-x="2502" 
d="M1482 287l620 899q79 110 79 143v2q-11 49 -79 60l27 63h373l-27 -63q-47 -13 -88 -48q-42 -34 -101 -118l-858 -1254h-204l-63 516l-419 -516h-184l-160 1200q-18 125 -51 175q-33 45 -136 45h-9l26 63h612l-24 -63q-84 0 -96 -52q-2 -10 -2 -20q-1 -4 -1 -8q0 -6 3 -13
v-47l120 -993l313 365l-88 630q-16 80 -35 109t-96 29l27 63h521l-27 -63q-36 0 -54 -11q-17 -10 -22 -24q-2 -10 -2 -27v-18q2 -29 2 -45l37 -369l243 326q49 71 49 120q-7 19 -27 35q-25 11 -49 11q-17 2 -44 2l27 63h395l-26 -63q-25 -2 -56 -21q-33 -18 -45 -31
q-15 -14 -39 -45q-25 -30 -40 -47l-376 -481z" />
    <glyph glyph-name="X" unicode="X" horiz-adv-x="1848" 
d="M1091 918l323 358q33 37 33 65q0 19 -12 33q-32 33 -93 33h-15l17 47h514l-17 -47q-96 -8 -152 -45q-57 -39 -143 -125l-364 -406l192 -565q37 -98 94 -145q54 -49 157 -58l-20 -63h-690l19 63q30 0 47 3q42 10 49 16q19 16 19 45q0 16 -5 35l-152 452l-302 -333
q-51 -54 -74 -119q-2 -10 -2 -21q0 -37 30 -59q26 -21 66 -21q14 0 32 2l-18 -63h-575l19 63q89 7 158 48q67 39 140 114l445 496l-221 573q-20 56 -55 84q-36 29 -134 29l7 47h683l-14 -47q-20 2 -35 2q-69 0 -81 -23q-9 -18 -9 -40q0 -15 2 -29z" />
    <glyph glyph-name="Y" unicode="Y" horiz-adv-x="1848" 
d="M681 592l-197 627q-36 135 -111 163q-29 9 -75 9h-57l29 63h720l-29 -63q-118 0 -118 -72q0 -35 15 -68l160 -499l391 477q46 53 46 82v8q0 27 -34.5 50.5t-81.5 23.5q-9 0 -21 -2l29 63h494l-28 -63q-112 -19 -206 -131l-582 -709l-118 -367q-7 -18 -7 -39
q-8 -22 -8 -34q0 -7 2 -11q9 -18 40 -28q20 -6 56 -6q13 -3 40 -3l-19 -63h-160h-361h-161l18 63q122 0 162 37q14 17 26 45q6 23 16 39z" />
    <glyph glyph-name="Z" unicode="Z" horiz-adv-x="1632" 
d="M1635 1454v-94q-42 -8 -75 -35q-31 -27 -83 -88l-949 -1126h318q247 0 383 135q37 37 84 92q7 6 14 14q5 6 12 15q8 6 12 12h126l-199 -379h-1226v72l1086 1261q-40 4 -120 4q-111 0 -165 -6q-140 -20 -231 -80q-94 -61 -172 -157h-133l211 360h1107z" />
    <glyph glyph-name="bracketleft" unicode="[" 
d="M791 1483h300h214l-27 -82q-159 0 -213 -51q-3 -4 -33 -58q-14 -37 -17 -55l-464 -1440q-12 -35 -16 -55q-7 -27 -7 -43q0 -8 2 -14q14 -25 50 -39q27 -8 79 -8q17 -5 52 -5l-26 -86h-216h-302z" />
    <glyph glyph-name="backslash" unicode="\" horiz-adv-x="1194" 
d="M1060 -403l-1060 2011l133 45l1061 -2013z" />
    <glyph glyph-name="bracketright" unicode="]" 
d="M511 -453h-297h-214l24 86q166 0 217 52q12 12 29 57q5 10 10 25q6 14 10 30l465 1440q7 12 10 25q0 10 4 26q5 31 5 45q0 10 -2 13q-10 26 -49 43q-20 4 -33 6q-12 0 -21 2h-22q-13 2 -23 4h-31l26 82h214h305z" />
    <glyph glyph-name="asciicircum" unicode="^" horiz-adv-x="903" 
d="M831 1264l-254 -166h-206l514 342l304 -342h-206z" />
    <glyph glyph-name="underscore" unicode="_" horiz-adv-x="1200" 
d="M2 -238h1200l-39 -172h-1200z" />
    <glyph glyph-name="grave" unicode="`" horiz-adv-x="590" 
d="M516 1483l-18 -70q-183 -86 -183 -168v-8q0 -20 17 -41q4 -4 28 -25q64 -49 64 -114v-8q0 -56 -41 -99q-47 -49 -117 -51q-59 0 -106 39q-47 37 -56 98q-2 17 -2 33q0 117 107 244q121 141 307 170z" />
    <glyph glyph-name="a" unicode="a" horiz-adv-x="1414" 
d="M1290 961l-267 -789q-12 -35 -12 -55q0 -41 38 -41h11q83 0 223 170l64 -37q-182 -234 -398 -234q-199 11 -207 168q-219 -166 -393 -166q-14 0 -30 3q-204 10 -233 204q-2 21 -2 41q0 92 43 203q53 135 156 264q100 129 231 211q131 80 267 82h21q150 0 221 -88
q16 -25 30 -33t24 -8q4 0 7 2q51 2 84 103h122zM949 752v20q0 51 -32 90q-42 45 -98 49q-10 2 -20 2q-93 0 -182 -112q-101 -125 -167 -299q-70 -176 -70 -271v-4q0 -118 96 -127h11q64 0 147 47q91 50 155 123z" />
    <glyph glyph-name="b" unicode="b" horiz-adv-x="1414" 
d="M685 1520h138l-225 -680q103 73 186 110q81 35 173 35h9q111 0 184 -43q77 -47 114 -131q29 -70 29 -152q0 -16 -3 -34q-12 -154 -96.5 -303.5t-234.5 -243.5q-152 -96 -344 -98h-10q-190 0 -303 94q-117 94 -117 239q0 84 21 152l254 764q7 20 7 35q0 18 -10 28
q-19 17 -133 19l20 55q118 0 195 37q73 35 146 117zM415 283q-12 -37 -12 -64q0 -80 54 -125q52 -45 123 -45q91 0 173 74q78 74 134 190q56 117 86 230q22 94 22 168v26q0 133 -115 144q-10 2 -19 2q-59 0 -134 -39q-85 -45 -157 -113z" />
    <glyph glyph-name="c" unicode="c" horiz-adv-x="1140" 
d="M1086 889l-75 -236h-99v35q0 201 -131 215q-9 2 -19 2q-89 0 -180 -119q-101 -131 -157 -313q-42 -131 -42 -219q0 -37 8 -68q24 -104 137 -104h5q145 0 361 207l70 -47q-138 -148 -263.5 -203t-266.5 -59h-24q-199 0 -260 94q-64 100 -64 192q3 187 101 355
q96 167 258 270q150 94 317 94h19q143 -4 305 -96z" />
    <glyph glyph-name="d" unicode="d" horiz-adv-x="1524" 
d="M1450 1520l-427 -1336q-3 -8 -3 -16q-2 -10 -5 -16q-4 -15 -4 -29v-8q0 -29 28 -29q14 0 33 6q61 14 176 133l54 -45q-179 -200 -373 -200q-181 0 -181 143q-166 -143 -338 -143h-19q-126 4 -211 77q-89 74 -89 236q0 184 96 346q93 160 243 256q140 90 278 90h19
q158 -2 261 -121l119 350q7 23 7 39q-5 27 -30 41q-27 15 -69 15q-44 0 -66 -4l22 63q248 18 340 152h139zM922 676q14 41 14 76q0 51 -29 90q-51 63 -152 63q-168 0 -291 -252q-112 -231 -112 -395v-33q7 -121 115 -147q7 -2 17 -2q62 0 143 49q91 55 157 121z" />
    <glyph glyph-name="e" unicode="e" horiz-adv-x="1251" 
d="M957 266l61 -43q-87 -100 -227 -174q-130 -69 -292 -69h-25q-223 6 -294 100q-70 88 -70 194v15q3 166 106 331.5t271 268.5q155 96 324 96h20q105 -2 177 -33q69 -30 101 -73q31 -45 36 -95v-8q0 -127 -179 -231q-189 -109 -532 -125q-14 -64 -14 -115q0 -209 195 -209
q16 0 37 2q145 17 305 168zM460 506q145 6 258 60.5t167 127.5q39 54 39 97q0 14 -5 26q-7 35 -49 62q-35 20 -84 20q-12 0 -24 -2q-93 -10 -178 -104q-82 -95 -124 -287z" />
    <glyph glyph-name="f" unicode="f" horiz-adv-x="981" 
d="M988 940l-19 -80h-221l-429 -1319h-275l418 1319h-234l20 80h236q6 39 6 82q0 74 -16 158q-12 71 -12 90q0 119 84 188q73 62 169 62h20q79 -2 135 -43q54 -41 57 -103q2 -10 2 -18q0 -41 -26 -66q-35 -33 -87 -33q-98 0 -128 82q-5 19 -15 33q-16 23 -39 23
q-50 -9 -50 -74q6 -43 43 -107q39 -49 54 -71q81 -111 81 -187v-16h226z" />
    <glyph glyph-name="g" unicode="g" horiz-adv-x="1578" 
d="M1140 926l21 16q16 14 28 25q35 24 57 41q20 14 39 26q77 37 143 37t103 -29q35 -30 35 -79q0 -45 -32 -74q-35 -31 -87 -31q-44 0 -100 35l-10 8q-10 6 -17 10q-7 7 -23 15h-9q-24 0 -45 -17q-7 -4 -21 -20q-10 -4 -15 -15q111 -86 113 -233v-12q0 -70 -27 -137
q-29 -76 -96 -136q-66 -59 -155 -92q-90 -35 -223 -39q-129 0 -235 41q-40 -12 -80 -35q-37 -20 -37 -47v-4q2 -33 51 -47q50 -16 244 -61q127 -25 228 -52q251 -63 253 -217q0 -256 -577 -256q-317 0 -425 72q-110 72 -110 156q0 104 193 200q-76 48 -76 111v12
q15 101 254 213q-138 92 -138 256q4 178 150 299q143 119 361 119h10q140 0 255 -59zM624 469q-2 -10 -2 -20q0 -43 27 -93q29 -61 123 -61q86 0 150 76q61 73 96 175.5t39 198.5q0 166 -142 170h-5q-124 0 -204 -147q-82 -152 -82 -299zM398 -59q-79 -56 -81 -148
q0 -160 352 -168h32q103 0 218 23q134 26 134 88q0 39 -40 51q-42 12 -160 39q-27 6 -51.5 12t-48.5 12q-26 5 -52 11q-30 4 -42 6q-136 31 -261 74z" />
    <glyph glyph-name="h" unicode="h" horiz-adv-x="1414" 
d="M546 614l-194 -614h-266l390 1212q3 11 5 27q0 14 -9 31q-12 16 -47 22q-17 2 -47 2h-34l22 62q246 0 354 164h126l-262 -789q52 35 75 51q22 17 64 43q93 74 157 107q93 53 177 53h20q56 0 100 -24q45 -27 59 -84q5 -21 5 -46q0 -45 -17 -100l-175 -545q-17 -47 -17 -65
q0 -27 35 -29h10q63 0 199 139l56 -47q-189 -204 -359 -204h-19q-159 2 -177 118v8q0 46 39 177l141 448q4 8 7 19q2 8 5 12q7 49 7 51q0 47 -47 47q-14 0 -44 -12q-45 -25 -101 -64q-34 -24 -57 -39q-21 -16 -61 -45q-98 -71 -120 -86z" />
    <glyph glyph-name="i" unicode="i" horiz-adv-x="816" 
d="M661 985l-255 -801q-8 -18 -8 -32q-7 -19 -7 -37q5 -27 31 -27q12 0 28 4q59 12 177 133l58 -45q-179 -200 -373 -200q-164 0 -179 118v15q0 45 39 163l130 406q3 18 3 29v6q0 26 -28 43q-14 10 -68 14q-42 0 -64 -2l19 64q251 18 340 149h157zM750 1260q0 -56 -47 -91
q-46 -36 -105 -36q-65 0 -111 38q-47 39 -47 89q0 59 47 96q43 35 111 35q59 0 105 -37q47 -37 47 -94z" />
    <glyph glyph-name="j" unicode="j" horiz-adv-x="981" 
d="M840 985l-317 -997q-7 -25 -21.5 -101.5t-20.5 -89.5q-14 -94 -33 -141q-70 -148 -246 -150q-96 0 -148 39t-56 95v12q0 45 34 78q39 34 99 34q63 0 117 -45q8 -6 15 -14q7 -10 20 -20q7 -2 22 -11h5q32 0 37 21q0 18 -3 24q-9 21 -20 37q-10 17 -14 25q-47 82 -50 147
q-2 15 -2 29q0 47 19 100l197 625q7 12 7 35q-9 28 -31 43q-16 10 -70 14q-33 0 -51 -2l23 64q258 20 349 149h139zM922 1260q0 -50 -45 -89q-44 -38 -112 -38q-64 0 -111 38q-47 39 -47 89q0 57 47 94t111 37q61 0 110 -35q47 -37 47 -96z" />
    <glyph glyph-name="k" unicode="k" horiz-adv-x="1360" 
d="M826 1520l-195 -633q215 94 387 98h14q91 0 145 -24q59 -27 83.5 -68t24.5 -86q0 -115 -117 -189q-121 -73 -310 -143l78 -188q10 -23 18 -33q5 -12 10 -23.5t19 -35.5q25 -33 56 -33h5q16 6 37 16t52 39q35 25 56 49l26 21l63 -41q-2 -4 -30 -33q-17 -20 -87 -90
q-153 -139 -258 -143q-16 -3 -28 -3q-71 0 -101 37q-37 43 -78 158l-84 240q-2 -2 -7 -2q-5 -2 -10 -2q-8 -2 -11 -5q-40 -12 -68 -14q-5 -2 -14 -2q-12 -2 -18 -2q-8 0 -15 -2l-125 -383h-265l383 1214q7 23 7 39q-5 27 -29 41q-27 15 -69 15t-66 -4l24 63q255 8 356 152
h141zM497 471q226 33 352 121q122 88 122 176q0 45 -37 72q-40 24 -94 28q-92 0 -240 -80z" />
    <glyph glyph-name="l" unicode="l" horiz-adv-x="868" 
d="M804 1520l-431 -1336q0 -8 -2.5 -16t-4.5 -16l-7 -37q9 -27 37 -27q10 0 24 4q59 12 178 133l56 -45q-173 -200 -371 -200q-165 0 -180 118v15q0 43 37 163l300 938q3 9 5 17q0 6 3 10v12q-10 31 -33 41q-24 15 -68 15q-42 0 -64 -4l22 63q290 25 349 152h150z" />
    <glyph glyph-name="m" unicode="m" horiz-adv-x="1956" 
d="M523 614l-194 -614h-265l222 698q7 19 7 31q0 37 -59 45q-18 4 -47 4h-32l19 64h6q226 0 336 143h131l-84 -254q37 31 56 47q20 15 57 45q131 92 157 109q98 53 185 53h12q96 -2 133 -47q34 -45 34 -102q-3 -60 -22 -105q78 62 115 92q108 82 157 109q101 53 185 53h10
q93 0 143 -61q26 -35 26 -88q0 -45 -19 -105l-177 -545q-15 -36 -15 -55q0 -25 12 -33q6 -4 18 -4h6q11 -1 25 4q44 13 96 60q59 41 84 73l59 -47q-115 -125 -214 -166q-91 -38 -155 -38h-12q-154 2 -175 118q-2 8 -2 19q0 49 39 166l148 448q0 17 7 31q7 49 7 51
q0 47 -46 47q-40 0 -160 -88q-125 -92 -197 -158l-194 -614h-270l236 731q3 8 7 19q3 8 3 12q7 24 7 51q0 47 -44 47h-3q-78 0 -359 -246z" />
    <glyph glyph-name="n" unicode="n" horiz-adv-x="1360" 
d="M530 614l-193 -614h-266l224 698q5 4 5 17q0 10 -2 24q-10 31 -57 35q-18 4 -47 4h-30l18 64h5q231 0 336 143h131l-84 -254q37 31 61 51q26 19 54 41q112 82 155 109q94 53 178 53h19q94 0 143 -61q25 -33 25 -82q0 -47 -23 -111l-171 -545q-16 -36 -16 -55
q0 -25 13 -33q5 -6 17 -6t32 6q45 13 96 60q48 39 83 73l57 -47q-108 -121 -209 -164q-94 -40 -160 -40h-9q-155 2 -178 118v11q0 53 40 174l142 448q3 8 8 19q2 8 2 12q7 24 7 51q0 47 -44 47q-41 0 -169 -94q-130 -94 -193 -152z" />
    <glyph glyph-name="o" unicode="o" horiz-adv-x="1360" 
d="M155 600q66 131 180 221q113 88 247 129q117 35 225 35h33q94 -2 173 -29q76 -26 132 -73t89 -113q32 -68 35 -152v-16q0 -139 -84 -278q-92 -150 -256 -246q-164 -98 -366 -98h-15q-196 0 -320 98q-130 100 -137 266q0 133 64 256zM450 557q-84 -215 -84 -332v-22
q17 -156 185 -156q122 0 228 123q103 123 160 295q46 139 46 244q0 22 -2 43q-14 149 -157 163h-19q-209 0 -357 -358z" />
    <glyph glyph-name="p" unicode="p" horiz-adv-x="1470" 
d="M593 985h137l-49 -145q110 78 192 112q76 33 154 33h10q138 0 239 -96q91 -88 91 -236v-28q-11 -189 -114 -338q-106 -152 -256 -232q-139 -75 -282 -75h-19q-145 4 -253 112l-175 -538h-266l369 1140q5 15 5 27q0 37 -45 47q-21 4 -56 4q-36 4 -39 6l20 53q115 0 189 37
q71 35 148 117zM502 283q-10 -31 -10 -62q0 -78 61 -123q52 -41 118 -41h17q107 6 198.5 127t143.5 287q42 143 42 240v26q0 47 -23 92q-24 43 -88 52q-15 2 -30 2q-75 0 -171 -70q-115 -84 -145 -178z" />
    <glyph glyph-name="q" unicode="q" horiz-adv-x="1133" 
d="M983 1001h86l-389 -1460h-234l154 563q-137 -122 -283 -124h-4q-118 0 -182 81q-57 72 -57 185q0 18 2 37q12 149 70.5 280t144.5 225q84 93 188 146q103 51 203 51q125 0 217 -74q6 -2 12 -2q37 0 72 92zM780 788q6 15 6 33q0 10 -2 21q-6 32 -32 53q-25 16 -64 16h-8
q-92 -2 -168 -108q-76 -109 -123 -260q-49 -154 -55 -269q0 -170 115 -170q96 0 149 86q51 86 68 164z" />
    <glyph glyph-name="r" unicode="r" horiz-adv-x="1194" 
d="M681 963l-130 -412q36 63 64 102q54 78 86 113q78 100 122 137q87 80 188 82h14q59 0 106 -27q51 -30 51 -98v-12q0 -43 -35 -72q-36 -33 -98 -33h-7q-52 0 -96 19l-24 10q-5 0 -10 2h-18q-99 0 -228 -174q-131 -176 -197 -340q-14 -37 -24 -70q-13 -32 -32 -81
q-15 -48 -42 -109h-265l231 657q3 7 5 15q0 6 2 10v12q-9 29 -32 43q-17 13 -68 13h-30q-8 1 -16 1q-9 0 -18 -1l22 63q124 10 208 45q82 33 134 105h137z" />
    <glyph glyph-name="s" unicode="s" horiz-adv-x="1194" 
d="M1018 659h-69q-10 125 -86 187q-77 59 -167 59h-11q-75 0 -122 -37q-52 -41 -52 -96q0 -61 66 -108q25 -21 126 -74q135 -66 212 -129q73 -66 80 -156v-24q0 -111 -103 -201q-113 -100 -336 -100h-10q-215 0 -455 135l83 252l86 -5v-20q0 -88 54 -176q62 -100 237 -109
h14q62 0 106 17q49 18 74 53q24 33 24 68q0 61 -68 114q-16 13 -42 27q-30 14 -54 26q-157 78 -227.5 145.5t-72.5 156.5q0 120 96 221q93 100 300 100h14q158 0 399 -88z" />
    <glyph glyph-name="t" unicode="t" horiz-adv-x="922" 
d="M922 969l-28 -80h-221l-204 -647q-14 -39 -21 -76v-27q2 -14 24 -14q7 0 18 2q31 8 100 74q67 63 83 86l69 -45q-66 -88 -186 -174q-124 -86 -219 -88h-15q-132 0 -140 112q0 29 5 41q3 21 12 47q5 13 10 33t7 29l190 647h-242l23 80q343 0 467 399h162l-120 -399h226z
" />
    <glyph glyph-name="u" unicode="u" horiz-adv-x="1414" 
d="M1302 963l-245 -768q-15 -56 -15 -68q0 -18 11 -27q4 -6 16 -6t33 6q48 17 99 62q58 47 84 74l59 -46q-191 -210 -366 -210h-21q-158 2 -176 124q-2 13 -2 27q0 53 37 129q-21 -16 -61 -49t-61 -49q-82 -68 -124 -96q-118 -78 -230 -86h-16q-76 0 -127 34q-59 37 -59 117
q0 45 17 100l147 461q8 19 8 33q0 39 -59 47q-30 0 -45 2h-34l18 66h19q216 0 335 145h122l-241 -754q-12 -41 -12 -49q0 -57 49 -57q10 0 19 2q70 18 192 111q28 20 50 38q19 17 54 41q56 41 63 52q18 24 21 43l176 551h265z" />
    <glyph glyph-name="v" unicode="v" horiz-adv-x="1414" 
d="M762 1001h91q-15 -16 -22 -26q-10 -10 -34 -41q-70 -80 -96 -115q-30 -35 -54 -67q-166 -213 -166 -355q0 -118 87 -172q74 -49 162 -49q12 0 27 2q116 12 194.5 102.5t90.5 213.5q2 16 2 49q0 35 -2 86q-5 49 -19 131q-8 37 -8 80q0 69 40 108q36 37 90 37q56 0 96 -39
q37 -39 37 -121v-14q0 -147 -96 -340q-101 -205 -267 -348q-165 -143 -347 -143h-5q-143 0 -228 75q-87 72 -87 195v8q0 74 35 156q34 80 125 198q91 119 244 281q-33 -14 -33 -16q-9 -5 -24 -13q-18 -10 -37 -18q-32 -17 -82 -17q-73 0 -129 39q-16 13 -23 13q-12 4 -19 4
q-5 0 -7 -2q-21 -2 -21 -23q0 -10 18 -29l17 -14q19 -26 19 -51q-12 -72 -97 -72h-11q-108 0 -117 107q0 71 79 129q75 55 179 55q49 0 96 -8q61 -14 105 -23q40 -4 69 -4h20q42 8 61 19q12 8 27 20q6 4 20 12z" />
    <glyph glyph-name="w" unicode="w" horiz-adv-x="1956" 
d="M720 985h113q-206 -244 -277.5 -352.5t-79.5 -220.5v-9q0 -110 63 -172q59 -59 155 -59h14q71 6 125 31q-22 80 -22 172q3 157 64 297q61 137 150 221t169 84q124 -8 124 -164v-6q-7 -215 -157 -424q-28 -39 -63 -84q-21 -29 -41 -51q69 -64 207 -70q137 0 251 98
q112 97 112 269q0 80 -12 131q-13 67 -27 112q0 11 -3.5 30.5t-6.5 35.5v8q0 58 34 90q37 33 81 33q141 0 141 -194q0 -19 -3 -39q-12 -168 -103 -351q-93 -182 -239 -303q-145 -118 -312 -118h-4q-167 0 -286 118q-176 -118 -339 -118h-9q-131 4 -215 79q-83 74 -83 197v8
q0 205 235 453q94 92 117 119q38 45 41 47q-10 -2 -34 -15q-25 -12 -56 -32q-45 -21 -96 -27q-54 0 -89 20q-33 17 -54 35q-22 15 -40 15q-5 0 -9 -2q-10 0 -15 -9q-2 -4 -2 -8q0 -6 2 -12q0 -6 15 -19q14 -8 30 -22q19 -21 19 -47q0 -39 -30 -62q-27 -22 -71 -22h-10
q-108 8 -110 104v11q0 63 56 116q62 56 165 56q51 0 89 -9q12 -2 75 -16q70 -12 108 -12q40 4 65 12q7 2 52 29q7 6 26 18zM988 303q74 62 137.5 173.5t63.5 189.5q0 75 -31 98q-25 18 -47 18q-7 0 -13 -2q-61 0 -115 -86q-54 -88 -54 -200v-9q0 -114 59 -182z" />
    <glyph glyph-name="x" unicode="x" horiz-adv-x="1360" 
d="M661 985l104 -367q44 44 73 80q27 29 91 111q74 90 133 137q52 39 115 39h17q103 -4 124 -88q2 -8 2 -16q0 -35 -27 -68q-29 -41 -137 -41h-11q-17 2 -54 2q-64 0 -101 -31q-24 -20 -49 -51q-14 -16 -76 -90q-54 -67 -61 -76l111 -297q7 -16 16 -41q8 -24 23 -34
q12 -9 29 -9h7q42 7 89 52q23 20 61 57q21 16 28 27l68 -52q-213 -249 -368 -249h-22h-8q-68 0 -103 49q-22 20 -34 59q-16 33 -20 49l-81 207q-23 -25 -44 -47q-23 -23 -45 -51q-17 -21 -51.5 -66t-51.5 -65q-52 -62 -101 -99q-51 -36 -125 -36q-60 0 -96 28q-39 27 -44 70
v10q0 43 37 80q36 33 106 33h24h25q10 -2 22 -4q61 0 103 34q30 27 56 62q30 33 52 57q20 23 30 39q12 12 26 33q16 18 35 43l-68 199q-21 77 -84 98q-20 6 -69 6q-35 0 -51 -2h-26l3 63q189 29 283 156h115z" />
    <glyph glyph-name="y" unicode="y" horiz-adv-x="1360" 
d="M1293 963l-278 -863q-79 -239 -226 -383q-147 -143 -398 -157q-27 -2 -51 -2q-112 0 -188 30q-96 37 -108 95q-2 10 -2 18q0 18 10 37q14 26 44 43q22 12 49 12h15q61 0 100 -51q8 -8 12 -16q5 -11 11 -21q27 -41 54 -59q24 -19 76 -19q110 2 189 125q76 121 125 268
l64 199q-312 -239 -454 -239q-187 0 -187 129q0 61 17 116l152 469q5 13 5 25q0 16 -10 31q-16 22 -51 24h-47l-14 4h-20l24 62q232 0 345 145h125l-244 -766q-7 -37 -7 -55v-6q0 -8 7 -19q6 -10 16 -16q12 -8 46 -8q64 8 200 116q134 109 157 164l179 568h263z" />
    <glyph glyph-name="z" unicode="z" horiz-adv-x="1251" 
d="M286 688l-77 49q77 97 188.5 171.5t212.5 74.5h5q84 0 182 -45q5 -2 88 -45q51 -25 110 -25q11 -2 18 -2q31 0 31 21q0 12 -2 18q-10 21 -10 33q12 47 70 47q80 0 80 -76q0 -121 -176 -297q-178 -178 -399 -262q-27 -12 -126 -41q-206 -69 -225 -106v-17q9 -4 12 -6
q7 0 15 4q7 0 19 11q66 43 188 43q94 -2 186 -43q14 -7 30 -13q12 -6 25.5 -12t25.5 -12q74 -29 104 -29q54 0 108 33q16 10 75 55q9 4 33 25l63 -45q-186 -217 -455 -217q-134 0 -307 92q-17 10 -26.5 16t-20.5 12q-12 4 -29 15q-37 12 -54 12h-4q-35 0 -35 -33q5 -8 7 -12
q2 -6 5 -12q7 -31 7 -33v-8q0 -17 -14 -31q-20 -18 -54 -18h-5q-79 0 -79 73v4q0 125 217 289q218 164 427 256q12 6 66 29l91 35q124 57 148 112v13q-2 2 -2 4h-5l-15 -7q-86 -45 -170 -55q-12 -2 -26 -2q-82 0 -173 41q-62 23 -69 25q-51 20 -81 20q-66 -4 -198 -129z" />
    <glyph glyph-name="braceleft" unicode="{" horiz-adv-x="1379" 
d="M530 494l42 143q158 14 237 127q78 110 118 293q9 37 30 114q68 228 240 304q150 67 304 67q23 0 45 -2l-34 -117q-121 -20 -170 -77q-49 -60 -78 -132q-13 -36 -28 -114q-37 -189 -120 -316q-86 -127 -332 -211l-3 -16q207 -84 207 -258q0 -74 -24 -137
q-3 -17 -18 -56.5t-27 -70.5q-54 -144 -54 -193v-8q12 -104 132 -123l-33 -114q-25 -3 -49 -3q-111 0 -214 39q-126 48 -129 199q0 66 21 131q17 47 22 64q4 14 19 51q62 164 62 239v9q0 90 -51 129q-58 39 -115 39z" />
    <glyph glyph-name="bar" unicode="|" horiz-adv-x="774" 
d="M739 1767h188l-603 -2177h-186z" />
    <glyph glyph-name="braceright" unicode="}" horiz-adv-x="1379" 
d="M1187 637l-42 -143q-160 -13 -235 -123q-77 -111 -121 -293q-10 -53 -27 -115q-72 -225 -241 -301q-153 -68 -307 -68q-20 0 -42 3l34 114q200 37 244 211q12 33 26 113q23 117 63 207q36 88 127 172q89 84 263 143l7 16q-206 89 -206 263q0 73 25 137q12 51 44 127
q52 139 52 190v13q-8 100 -131 120l35 117q22 2 44 2q111 0 216 -41q128 -49 130 -196q0 -72 -24 -134q-7 -24 -17 -57q-13 -33 -20 -57q-66 -180 -66 -240v-4q0 -158 169 -176z" />
    <glyph glyph-name="asciitilde" unicode="~" horiz-adv-x="1320" 
d="M577 1208h-110q63 95 187 168q120 74 249 76q31 0 105 -12q36 -8 130 -43q164 -54 224 -54h10q80 7 167 97h110q-197 -244 -406 -250q-14 -2 -28 -2q-42 0 -87 12q-24 6 -113 35q-115 41 -166 57q-33 8 -65 8q-17 0 -34 -2q-96 -10 -173 -90z" />
    <glyph glyph-name="Agrave" horiz-adv-x="743" 
d="M545 967l108 -109l-395 -358l205 -363l-117 -78l-289 441z" />
    <glyph glyph-name="quoteleft" horiz-adv-x="590" 
d="M516 1483l-18 -70q-183 -86 -183 -168v-8q0 -20 17 -41q4 -4 28 -25q64 -49 64 -114v-8q0 -56 -41 -99q-47 -49 -117 -51q-59 0 -106 39q-47 37 -56 98q-2 17 -2 33q0 117 107 244q121 141 307 170z" />
    <glyph glyph-name="quoteright" horiz-adv-x="543" 
d="M57 899l19 74q182 82 182 168v4q0 24 -16 45q-9 8 -29 24q-63 50 -63 113v4q0 60 43 105q45 47 112 47h8q56 0 101 -35q47 -39 55 -102q2 -15 2 -31q0 -66 -39 -144q-49 -98 -147 -174q-101 -77 -228 -98z" />
    <glyph glyph-name="quotedblleft" horiz-adv-x="1087" 
d="M512 1483l-18 -72q-183 -84 -183 -170v-4q0 -23 17 -43q6 -6 16 -12q8 -8 12 -15q64 -49 64 -110v-8q0 -58 -41 -101q-45 -49 -115 -51q-63 0 -106 39q-45 37 -58 100q-2 15 -2 31q0 66 41 145q49 99 150 174q98 76 223 97zM1020 1483l-23 -70q-180 -86 -180 -176
q0 -18 19 -41q6 -8 28 -25q62 -47 64 -114v-8q0 -56 -43 -99q-47 -49 -113 -51q-61 0 -106 37t-58 100q-2 19 -2 37q0 113 103 238q120 143 311 172z" />
    <glyph glyph-name="quotedblright" horiz-adv-x="1087" 
d="M608 899l21 74q180 82 180 164v8q0 24 -14 45q-4 8 -13 12q-8 4 -16 12q-66 52 -66 113q0 62 45 109q46 47 113 47h8q56 0 101 -35q45 -37 53 -102q2 -15 2 -31q0 -66 -39 -144q-49 -98 -147 -174q-101 -77 -228 -98zM100 897l21 72q184 82 184 176q-2 18 -18 41
q-2 6 -11 14q-10 6 -18 12q-61 50 -63 111v4q0 62 45 109t110 47q66 0 111 -37q43 -39 51 -100q2 -17 2 -33q0 -66 -39 -144q-49 -100 -149 -176q-101 -75 -226 -96z" />
    <glyph glyph-name="_extra1" horiz-adv-x="1540" 
d="M909 918l269 358q28 37 28 65q0 19 -10 33q-27 33 -78 33h-12l14 47h428l-14 -47q-80 -8 -127 -45q-47 -39 -119 -125l-303 -406l160 -565q31 -98 78 -145q45 -49 131 -58l-17 -63h-575l16 63q25 0 39 3q35 10 41 16q16 16 16 45q0 16 -4 35l-127 452l-251 -333
q-43 -54 -62 -119q-2 -10 -2 -21q0 -37 25 -59q22 -21 55 -21q12 0 27 2l-15 -63h-479l16 63q74 7 131 48q56 39 117 114l371 496l-184 573q-17 56 -46 84q-30 29 -112 29l6 47h569l-12 -47q-16 2 -29 2q-57 0 -67 -23q-8 -18 -8 -40q0 -15 2 -29z" />
    <glyph glyph-name="endash" horiz-adv-x="1452" 
d="M104 733h1242v-155h-1242v155z" />
    <glyph glyph-name="emdash" horiz-adv-x="2177" 
d="M145 573h1913l-28 -118h-1915z" />
    <glyph glyph-name="_extra2" horiz-adv-x="995" 
d="M848 659h-57q-9 125 -72 187q-64 59 -139 59h-9q-63 0 -102 -37q-43 -41 -43 -96q0 -61 55 -108q21 -21 105 -74q112 -66 176 -129q61 -66 67 -156v-24q0 -111 -86 -201q-94 -100 -280 -100h-8q-179 0 -379 135l69 252l72 -5v-20q0 -88 45 -176q51 -100 197 -109h12
q51 0 88 17q41 18 62 53q20 33 20 68q0 61 -57 114q-13 13 -35 27q-25 14 -45 26q-131 78 -189.5 145.5t-60.5 156.5q0 120 80 221q78 100 250 100h12q131 0 332 -88z" />
    <glyph glyph-name="trademark" horiz-adv-x="2120" 
d="M745 1018h-112q51 39 65 102l123 531q4 12 4 20q6 17 6 27q0 24 -32 24h-11q-36 -2 -94 -36q-59 -37 -84 -68h-24l78 156h534v-156h-24q-7 29 -50 65q-43 37 -80 39q-38 0 -51 -24q-2 -6 -2 -10q-2 -5 -6 -17q0 -8 -4 -20l-123 -531q-4 -20 -4 -37q0 -41 25 -65h-134z
M1704 1774l31 -482l245 482h218q-52 -21 -62 -74q-6 -19 -6 -31q-4 -12 -4 -22l-39 -531v-16q0 -53 35 -82h-240q37 24 45 45q6 18 6 57l37 527l-315 -629h-66l-37 629l-200 -533q-9 -22 -9 -41q0 -31 21 -55h-152q64 43 86 102l197 527q8 26 14 41q4 12 7 26v15
q0 38 -31 45h219z" />
    <glyph glyph-name="Atilde" horiz-adv-x="737" 
d="M158 70l-101 110l402 342l-217 361l125 86l303 -447z" />
    <glyph glyph-name="ydieresis" unicode="&#xa1;" horiz-adv-x="1540" 
d="M848 586l342 600q39 80 39 123q0 14 -4 24q-31 60 -119 60q-19 0 -41 -2l20 63h494l-18 -63q-76 0 -115 -35q-39 -37 -80 -105l-512 -889q-84 -151 -217 -276q-123 -115 -275 -115h-24q-197 29 -221 197q-2 22 -2 43q0 106 59 182q66 82 152 82h12q100 -10 111 -102
q2 -11 2 -21q0 -80 -95 -129q-24 -14 -51 -28q-39 -33 -39 -66q8 -57 78 -66q16 -4 33 -4q121 0 266 211l-281 1000q-24 123 -157 123q-12 0 -25 -2l17 63h591l-20 -63q-4 2 -14 2q-11 0 -21 -2q-24 0 -35 -7q-34 -14 -34 -53q0 -16 6 -37zM989 1698q215 0 307 176h95
q-50 -129 -158 -244q-109 -114 -289 -114h-4q-168 0 -225 112q-45 90 -45 189q0 28 4 57h94q0 -176 221 -176z" />
    <glyph glyph-name="ydieresis" unicode="&#x40e;" horiz-adv-x="1540" 
d="M848 586l342 600q39 80 39 123q0 14 -4 24q-31 60 -119 60q-19 0 -41 -2l20 63h494l-18 -63q-76 0 -115 -35q-39 -37 -80 -105l-512 -889q-84 -151 -217 -276q-123 -115 -275 -115h-24q-197 29 -221 197q-2 22 -2 43q0 106 59 182q66 82 152 82h12q100 -10 111 -102
q2 -11 2 -21q0 -80 -95 -129q-24 -14 -51 -28q-39 -33 -39 -66q8 -57 78 -66q16 -4 33 -4q121 0 266 211l-281 1000q-24 123 -157 123q-12 0 -25 -2l17 63h591l-20 -63q-4 2 -14 2q-11 0 -21 -2q-24 0 -35 -7q-34 -14 -34 -53q0 -16 6 -37zM989 1698q215 0 307 176h95
q-50 -129 -158 -244q-109 -114 -289 -114h-4q-168 0 -225 112q-45 90 -45 189q0 28 4 57h94q0 -176 221 -176z" />
    <glyph glyph-name="Ydieresis" unicode="&#xa2;" horiz-adv-x="1133" 
d="M756 1212q215 0 307 177h94q-49 -129 -158 -244q-108 -115 -288 -115h-4q-168 0 -226 113q-45 90 -45 188q0 29 4 58h95q0 -177 221 -177zM1077 963l-231 -863q-66 -239 -189 -383q-122 -143 -331 -157q-23 -2 -43 -2q-93 0 -156 30q-80 37 -90 95q-2 10 -2 18q0 18 8 37
q12 26 37 43q18 12 41 12h12q51 0 84 -51q6 -8 10 -16q4 -11 9 -21q22 -41 45 -59q20 -19 63 -19q92 2 158 125q63 121 104 268l53 199q-260 -239 -378 -239q-156 0 -156 129q0 61 14 116l127 469q4 13 4 25q0 16 -8 31q-14 22 -43 24h-39l-12 4h-16l20 62q193 0 287 145
h104l-203 -766q-6 -37 -6 -55v-6q0 -8 6 -19q5 -10 13 -16q10 -8 39 -8q53 8 166 116q112 109 131 164l149 568h219z" />
    <glyph glyph-name="Ydieresis" unicode="&#x45e;" horiz-adv-x="1133" 
d="M756 1212q215 0 307 177h94q-49 -129 -158 -244q-108 -115 -288 -115h-4q-168 0 -226 113q-45 90 -45 188q0 29 4 58h95q0 -177 221 -177zM1077 963l-231 -863q-66 -239 -189 -383q-122 -143 -331 -157q-23 -2 -43 -2q-93 0 -156 30q-80 37 -90 95q-2 10 -2 18q0 18 8 37
q12 26 37 43q18 12 41 12h12q51 0 84 -51q6 -8 10 -16q4 -11 9 -21q22 -41 45 -59q20 -19 63 -19q92 2 158 125q63 121 104 268l53 199q-260 -239 -378 -239q-156 0 -156 129q0 61 14 116l127 469q4 13 4 25q0 16 -8 31q-14 22 -43 24h-39l-12 4h-16l20 62q193 0 287 145
h104l-203 -766q-6 -37 -6 -55v-6q0 -8 6 -19q5 -10 13 -16q10 -8 39 -8q53 8 166 116q112 109 131 164l149 568h219z" />
    <glyph glyph-name="lozenge" unicode="&#xa3;" horiz-adv-x="1087" 
d="M571 -244l21 74q180 82 180 164v8q0 25 -14 45q-4 8 -13 12q-8 4 -16 13q-65 51 -65 112q0 62 45 109t112 47h8q56 0 101 -35q45 -37 53 -102q2 -15 2 -31q0 -66 -39 -143q-49 -99 -147 -174q-101 -78 -228 -99zM63 -246l21 72q184 82 184 176q-2 18 -18 41q-2 6 -10 14
q-11 6 -19 13q-61 49 -63 110v4q0 62 45 109t110 47q66 0 111 -37q43 -39 51 -100q2 -17 2 -33q0 -66 -39 -143q-49 -101 -149 -177q-101 -75 -226 -96z" />
    <glyph glyph-name="lozenge" unicode="&#x408;" horiz-adv-x="1087" 
d="M571 -244l21 74q180 82 180 164v8q0 25 -14 45q-4 8 -13 12q-8 4 -16 13q-65 51 -65 112q0 62 45 109t112 47h8q56 0 101 -35q45 -37 53 -102q2 -15 2 -31q0 -66 -39 -143q-49 -99 -147 -174q-101 -78 -228 -99zM63 -246l21 72q184 82 184 176q-2 18 -18 41q-2 6 -10 14
q-11 6 -19 13q-61 49 -63 110v4q0 62 45 109t110 47q66 0 111 -37q43 -39 51 -100q2 -17 2 -33q0 -66 -39 -143q-49 -101 -149 -177q-101 -75 -226 -96z" />
    <glyph glyph-name="brokenbar" unicode="&#xa6;" horiz-adv-x="645" 
d="M616 1767h156l-502 -2177h-155z" />
    <glyph glyph-name="section" unicode="&#xa7;" 
d="M450 1024q-20 55 -20 109q0 63 30 122q54 107 176 170q117 62 269 62h10q159 -2 248 -74q88 -74 94 -172v-18q0 -60 -42 -97q-52 -45 -122 -45h-4q-57 0 -96 33q-39 31 -39 74v8q7 45 61 80q32 20 34 22q16 21 16 29q0 29 -38 51q-39 23 -115 23q-98 -2 -147 -43
q-50 -43 -64 -94q-2 -11 -2 -23q0 -111 186 -336q49 -59 86 -100q35 -41 73 -94q94 -129 112 -211q5 -25 5 -49q0 -52 -18 -105q-27 -82 -108 -162q-83 -82 -224 -141q52 -76 52 -160q0 -20 -2 -41q-15 -118 -143 -204q-128 -84 -315 -84h-9q-162 6 -254 75q-91 68 -96 164
q0 78 50 125q49 45 120 45h7q49 0 86 -24q37 -29 45 -66q2 -10 2 -20q0 -58 -64 -95q-22 -10 -42 -22q-9 -8 -20 -25v-4q0 -24 47 -45q49 -24 111 -24h15q162 0 204 92q12 24 12 51q0 37 -24 80q-21 37 -63 76q-244 264 -333 382q-91 119 -113 224q-5 30 -5 59q0 123 90 227
q114 127 281 195zM490 944q-122 -43 -159 -137q-9 -23 -9 -57q0 -95 76 -187l364 -442q57 20 108 57q49 37 59 80q5 14 5 29q0 73 -88 190z" />
    <glyph glyph-name="guilsinglright" unicode="&#xa8;" horiz-adv-x="1797" 
d="M1669 1454l-10 -305h-86q-20 72 -86 138.5t-197 66.5h-241q-68 0 -83 -15q-14 -14 -37 -63l-132 -418h287q74 0 131 25q54 22 103 100h83l-123 -387h-89q10 22 10 45q0 27 -12 51q-24 47 -122 47h-303l-169 -520q-13 -45 -13 -63q0 -43 27 -50q24 -6 94 -6h256
q152 0 242 50q91 49 199 188h99l-108 -338h-1379l25 63q117 0 159 37q5 4 22 45q5 11 10 19q2 8 8 20l346 1086q10 24 13 41q7 14 7 28q0 9 -2 15q-14 20 -40 28q-28 9 -61 9h-37l21 63h1188zM703 1710q0 62 54 105t123 43q72 0 123 -41q50 -43 50 -107q0 -59 -52 -100
q-55 -43 -121 -43t-120 43q-57 43 -57 100zM1229 1710q0 64 52 107q49 41 120 41q74 0 125.5 -41t51.5 -107q0 -61 -54 -102t-123 -41q-71 0 -120 45q-52 43 -52 98z" />
    <glyph glyph-name="guilsinglright" unicode="&#x401;" horiz-adv-x="1797" 
d="M1669 1454l-10 -305h-86q-20 72 -86 138.5t-197 66.5h-241q-68 0 -83 -15q-14 -14 -37 -63l-132 -418h287q74 0 131 25q54 22 103 100h83l-123 -387h-89q10 22 10 45q0 27 -12 51q-24 47 -122 47h-303l-169 -520q-13 -45 -13 -63q0 -43 27 -50q24 -6 94 -6h256
q152 0 242 50q91 49 199 188h99l-108 -338h-1379l25 63q117 0 159 37q5 4 22 45q5 11 10 19q2 8 8 20l346 1086q10 24 13 41q7 14 7 28q0 9 -2 15q-14 20 -40 28q-28 9 -61 9h-37l21 63h1188zM703 1710q0 62 54 105t123 43q72 0 123 -41q50 -43 50 -107q0 -59 -52 -100
q-55 -43 -121 -43t-120 43q-57 43 -57 100zM1229 1710q0 64 52 107q49 41 120 41q74 0 125.5 -41t51.5 -107q0 -61 -54 -102t-123 -41q-71 0 -120 45q-52 43 -52 98z" />
    <glyph glyph-name="copyright" unicode="&#xa9;" horiz-adv-x="2883" 
d="M263 608q59 209 201 393q141 185 359 336q216 150 470 234q250 82 516 82t475 -84q206 -84 336 -230q128 -147 169 -338q18 -81 18 -165q0 -113 -32 -228q-78 -274 -307 -512q-228 -239 -558 -385q-332 -145 -679 -145q-265 0 -471 84q-207 82 -340 233
q-132 150 -172 336q-16 78 -16 160q0 110 31 229zM371 608q-29 -110 -29 -213q0 -73 14 -145q38 -172 155 -305q118 -135 310 -213t436 -78q324 0 624 133q300 131 511 350q209 219 280 471q30 107 30 211q0 133 -50 258q-88 221 -316 357q-232 133 -549 133
q-319 0 -624 -133q-305 -136 -511 -353q-209 -219 -281 -473zM2104 905h-68q-3 127 -77 205q-76 76 -197 76h-10q-155 0 -317 -135q-169 -142 -260 -445q-42 -141 -42 -246q0 -47 7 -86q25 -127 111 -176q74 -45 168 -45h24q164 8 290 109q123 98 195 200h61l-113 -280
q-96 -41 -237.5 -68.5t-264.5 -27.5q-150 0 -265 47q-116 45 -190 131q-73 84 -96 198q-7 44 -7 89q0 73 22 157q54 187 187 336q131 150 314 234q185 82 384 82q226 0 447 -117z" />
    <glyph glyph-name="ordfeminine.0" unicode="&#xaa;" horiz-adv-x="1797" 
d="M1283 123q-376 -152 -696 -152q-235 0 -369 91.5t-166 244.5q-15 64 -15 133q0 97 29 205q52 186 170 352q204 289 460 387q261 99 465 99h38q224 0 470 -88l-114 -310h-103q-12 160 -115 232q-89 63 -197 63q-14 0 -31 -2q-126 -10 -286 -114q-154 -105 -277 -375
q31 -80 108 -88h17h6q46 0 109 24q18 9 45 21q32 12 74 28q120 48 197 48q125 -7 218 -191l-110 -72q-65 93 -148 93h-15q-32 -7 -93 -31q-54 -21 -81 -31q-33 -12 -69 -26q-89 -27 -116 -29h-19q-97 0 -177 98q-49 -186 -65 -315q-5 -31 -5 -60q0 -94 45 -172
q54 -102 221 -108q170 0 339 106q170 107 286 250h85z" />
    <glyph glyph-name="ordfeminine.0" unicode="&#x404;" horiz-adv-x="1797" 
d="M1283 123q-376 -152 -696 -152q-235 0 -369 91.5t-166 244.5q-15 64 -15 133q0 97 29 205q52 186 170 352q204 289 460 387q261 99 465 99h38q224 0 470 -88l-114 -310h-103q-12 160 -115 232q-89 63 -197 63q-14 0 -31 -2q-126 -10 -286 -114q-154 -105 -277 -375
q31 -80 108 -88h17h6q46 0 109 24q18 9 45 21q32 12 74 28q120 48 197 48q125 -7 218 -191l-110 -72q-65 93 -148 93h-15q-32 -7 -93 -31q-54 -21 -81 -31q-33 -12 -69 -26q-89 -27 -116 -29h-19q-97 0 -177 98q-49 -186 -65 -315q-5 -31 -5 -60q0 -94 45 -172
q54 -102 221 -108q170 0 339 106q170 107 286 250h85z" />
    <glyph glyph-name="guillemotleft" unicode="&#xab;" horiz-adv-x="1360" 
d="M654 967l130 -109l-474 -358l246 -363l-141 -78l-347 441zM1168 954l125 -112l-486 -342l260 -361l-148 -82l-363 443z" />
    <glyph glyph-name="logicalnot" unicode="&#xac;" horiz-adv-x="723" 
d="M98 596h572l-41 -162h-576z" />
    <glyph glyph-name="softhyphen" unicode="&#xad;" horiz-adv-x="1200" 
d="M2 -238h1200l-39 -172h-1200z" />
    <glyph glyph-name="registered" unicode="&#xae;" horiz-adv-x="1777" 
d="M391 1165q43 158 176.5 298.5t326.5 226.5q195 84 396 84q204 0 349 -84q146 -86 202 -226q33 -80 33 -164q0 -65 -21 -135q-44 -157 -176 -297q-134 -141 -328 -225q-193 -86 -395 -86q-307 0 -467 182q-114 129 -114 291q0 66 18 135zM494 1165q-18 -63 -18 -123
q0 -141 104 -247q147 -152 396 -152q159 0 326 70q168 67 288 188t160 264q20 68 20 127q0 43 -11 84q-24 97 -92 166q-70 70 -175 109q-106 37 -226 37q-157 0 -323 -68q-166 -70 -284 -188q-120 -119 -165 -267zM941 1384q5 21 5 37q0 31 -17 47q126 11 190 11q31 0 46 -2
q174 0 238 -60q47 -45 47 -98q0 -19 -5 -39q-14 -70 -78.5 -106.5t-135.5 -51.5q0 -78 40 -174q40 -98 103 -147l-25 -21q-226 138 -265 330q-47 0 -66 4l-49 -174q-5 -18 -5 -33q0 -30 21 -49h-225q44 29 59 82zM1093 1391l-66 -240q45 -6 54 -6q167 6 207 147q7 23 7 43
q0 35 -19 62q-33 41 -115 43h-3q-2 1 -5 1q-4 0 -8 -1q-36 0 -52 -49z" />
    <glyph glyph-name="integral" unicode="&#xaf;" horiz-adv-x="1194" 
d="M497 1391l24 63h160h361h159l-21 -63q-99 0 -136 -23q-38 -22 -63 -98l-350 -1086q-4 -12 -4 -18q-3 -8 -8 -21q-4 -20 -4 -34v-11q14 -18 39 -28q19 -6 61 -6q12 -3 40 -3l-25 -63h-160h-361h-160l22 63q121 0 163 37q5 9 22 45q14 35 14 39l349 1086q5 12 8 22
q2 8 4 19q5 18 5 30q0 9 -2 13q-5 20 -36 28q-28 9 -59 9h-42zM511 1681q0 64 52 107q49 41 122 41q80 0 126 -43q47 -45 47 -105q0 -59 -51 -100q-54 -43 -122 -43t-120 43q-54 41 -54 100zM997 1681q0 58 49.5 103t126.5 45q78 0 127 -43q47 -43 47 -105q0 -61 -54 -102
t-120 -41q-69 0 -120 43q-56 41 -56 100z" />
    <glyph glyph-name="integral" unicode="&#x407;" horiz-adv-x="1194" 
d="M497 1391l24 63h160h361h159l-21 -63q-99 0 -136 -23q-38 -22 -63 -98l-350 -1086q-4 -12 -4 -18q-3 -8 -8 -21q-4 -20 -4 -34v-11q14 -18 39 -28q19 -6 61 -6q12 -3 40 -3l-25 -63h-160h-361h-160l22 63q121 0 163 37q5 9 22 45q14 35 14 39l349 1086q5 12 8 22
q2 8 4 19q5 18 5 30q0 9 -2 13q-5 20 -36 28q-28 9 -59 9h-42zM511 1681q0 64 52 107q49 41 122 41q80 0 126 -43q47 -45 47 -105q0 -59 -51 -100q-54 -43 -122 -43t-120 43q-54 41 -54 100zM997 1681q0 58 49.5 103t126.5 45q78 0 127 -43q47 -43 47 -105q0 -61 -54 -102
t-120 -41q-69 0 -120 43q-56 41 -56 100z" />
    <glyph glyph-name="degree" unicode="&#xb0;" horiz-adv-x="680" 
d="M121 1266q0 90 61 153q62 64 158 64q86 0 151.5 -62.5t65.5 -154.5q0 -88 -65 -152q-68 -65 -152 -65q-86 0 -152.5 64.5t-66.5 152.5zM225 1266q0 -43 35 -76q33 -35 80 -35q45 0 80 35q33 33 33 76t-33 79.5t-80 36.5q-43 0 -78 -32q-37 -35 -37 -84z" />
    <glyph glyph-name="plusminus" unicode="&#xb1;" horiz-adv-x="1452" 
d="M942 1276h156l-125 -543h543l-37 -155h-543l-125 -543h-156l125 543h-542l36 155h543zM113 -256h1200l-45 -147h-1200z" />
    <glyph glyph-name="germandbls" unicode="&#xb2;" horiz-adv-x="1194" 
d="M497 1391l24 63h160h361h159l-21 -63q-99 0 -136 -23q-38 -22 -63 -98l-350 -1086q-4 -12 -4 -18q-3 -8 -8 -21q-4 -20 -4 -34v-11q14 -18 39 -28q19 -6 61 -6q12 -3 40 -3l-25 -63h-160h-361h-160l22 63q121 0 163 37q5 9 22 45q14 35 14 39l349 1086q5 12 8 22
q2 8 4 19q5 18 5 30q0 9 -2 13q-5 20 -36 28q-28 9 -59 9h-42zM737 1681q0 58 49 103t126 45q71 0 122.5 -41t51.5 -107q0 -61 -54 -102t-120 -41q-72 0 -123.5 45t-51.5 98z" />
    <glyph glyph-name="germandbls" unicode="&#x406;" horiz-adv-x="1194" 
d="M497 1391l24 63h160h361h159l-21 -63q-99 0 -136 -23q-38 -22 -63 -98l-350 -1086q-4 -12 -4 -18q-3 -8 -8 -21q-4 -20 -4 -34v-11q14 -18 39 -28q19 -6 61 -6q12 -3 40 -3l-25 -63h-160h-361h-160l22 63q121 0 163 37q5 9 22 45q14 35 14 39l349 1086q5 12 8 22
q2 8 4 19q5 18 5 30q0 9 -2 13q-5 20 -36 28q-28 9 -59 9h-42zM737 1681q0 58 49 103t126 45q71 0 122.5 -41t51.5 -107q0 -61 -54 -102t-120 -41q-72 0 -123.5 45t-51.5 98z" />
    <glyph glyph-name="threesuperior" unicode="&#xb3;" horiz-adv-x="816" 
d="M661 985l-255 -801q-8 -18 -8 -32q-7 -19 -7 -37q5 -27 31 -27q12 0 28 4q59 12 177 133l58 -45q-179 -200 -373 -200q-164 0 -179 118v15q0 45 39 163l130 406q3 18 3 29v6q0 26 -28 43q-14 10 -68 14q-42 0 -64 -2l19 64q251 18 340 149h157zM750 1260q0 -56 -47 -91
q-46 -36 -105 -36q-65 0 -111 38q-47 39 -47 89q0 59 47 96q43 35 111 35q59 0 105 -37q47 -37 47 -94z" />
    <glyph glyph-name="threesuperior" unicode="&#x456;" horiz-adv-x="816" 
d="M661 985l-255 -801q-8 -18 -8 -32q-7 -19 -7 -37q5 -27 31 -27q12 0 28 4q59 12 177 133l58 -45q-179 -200 -373 -200q-164 0 -179 118v15q0 45 39 163l130 406q3 18 3 29v6q0 26 -28 43q-14 10 -68 14q-42 0 -64 -2l19 64q251 18 340 149h157zM750 1260q0 -56 -47 -91
q-46 -36 -105 -36q-65 0 -111 38q-47 39 -47 89q0 59 47 96q43 35 111 35q59 0 105 -37q47 -37 47 -94z" />
    <glyph glyph-name="acute.0" unicode="&#xb4;" horiz-adv-x="543" 
d="M57 899l19 74q182 82 182 168v4q0 24 -16 45q-9 8 -29 24q-63 50 -63 113v4q0 60 43 105q45 47 112 47h8q56 0 101 -35q47 -39 55 -102q2 -15 2 -31q0 -66 -39 -144q-49 -98 -147 -174q-101 -77 -228 -98z" />
    <glyph glyph-name="acute.0" unicode="&#x491;" horiz-adv-x="543" 
d="M57 899l19 74q182 82 182 168v4q0 24 -16 45q-9 8 -29 24q-63 50 -63 113v4q0 60 43 105q45 47 112 47h8q56 0 101 -35q47 -39 55 -102q2 -15 2 -31q0 -66 -39 -144q-49 -98 -147 -174q-101 -77 -228 -98z" />
    <glyph glyph-name="paragraph" unicode="&#xb6;" horiz-adv-x="1489" 
d="M1015 1522l-583 -1942h-242l415 1393h-54q-126 0 -207 60.5t-84 156.5v8q0 129 123 225q128 99 320 99h312zM1360 1522h240l-577 -1942h-246z" />
    <glyph glyph-name="bullet" unicode="&#xb7;" horiz-adv-x="1452" 
d="M520 774q0 86 63.5 151.5t153.5 65.5q60 0 111 -28q49 -31 80 -80q28 -49 28 -109q0 -92 -63 -153q-66 -64 -156 -64q-86 0 -151.5 63.5t-65.5 153.5z" />
    <glyph glyph-name="fi" unicode="&#xb8;" 
d="M949 266l62 -43q-146 -160 -298 -205q-136 -38 -221 -38h-25q-364 4 -364 301v8q0 151 101 319q98 168 263 277q155 100 337 100h19q153 -2 230 -63q75 -62 85 -138v-8q0 -127 -179 -231q-190 -109 -532 -125q-14 -64 -14 -115q0 -209 192 -209q17 0 37 2q149 17 307 168
zM420 1309q0 49 52 92q49 41 105 41q65 0 113 -41q47 -43 47 -92q0 -52 -47 -92q-48 -43 -113 -43q-56 0 -105 43q-52 40 -52 92zM903 1309q0 51 49 92t113 41q63 0 112 -41q47 -43 47 -92q0 -52 -47 -92q-49 -43 -112 -43q-64 0 -113 40q-49 41 -49 95zM448 506
q218 12 354 117q115 86 115 165q0 15 -5 29q-32 82 -138 82q-12 0 -24 -2q-93 -10 -178 -104q-82 -95 -124 -287z" />
    <glyph glyph-name="fi" unicode="&#x451;" 
d="M949 266l62 -43q-146 -160 -298 -205q-136 -38 -221 -38h-25q-364 4 -364 301v8q0 151 101 319q98 168 263 277q155 100 337 100h19q153 -2 230 -63q75 -62 85 -138v-8q0 -127 -179 -231q-190 -109 -532 -125q-14 -64 -14 -115q0 -209 192 -209q17 0 37 2q149 17 307 168
zM420 1309q0 49 52 92q49 41 105 41q65 0 113 -41q47 -43 47 -92q0 -52 -47 -92q-48 -43 -113 -43q-56 0 -105 43q-52 40 -52 92zM903 1309q0 51 49 92t113 41q63 0 112 -41q47 -43 47 -92q0 -52 -47 -92q-49 -43 -112 -43q-64 0 -113 40q-49 41 -49 95zM448 506
q218 12 354 117q115 86 115 165q0 15 -5 29q-32 82 -138 82q-12 0 -24 -2q-93 -10 -178 -104q-82 -95 -124 -287z" />
    <glyph glyph-name="guilsinglleft" unicode="&#xb9;" horiz-adv-x="2613" 
d="M1224 1458l277 -960l207 669q8 19 13 35q5 17 10 33q7 29 31 86q32 68 98 121q59 45 171 45h26q115 -2 190 -60q73 -57 86 -135q5 -22 5 -45q0 -55 -32 -102q-47 -68 -143 -74q-66 0 -106 33q-39 33 -39 80q0 57 49 98q27 27 32 39q5 10 5 20q0 15 -12 33q-20 27 -61 29
h-13q-90 0 -144 -143q-9 -23 -16 -48q-10 -26 -17 -41q0 -12 -5 -28q-7 -17 -9 -27l-350 -1116h-199l-329 1151l-238 -739q-139 -441 -421 -441h-4q-89 0 -153 49q-67 50 -77 130q-2 16 -2 32q-1 6 -1 12q0 13 3 25q10 92 71 152q63 59 150 59q72 0 114 -37q34 -33 34 -74
v-8q0 -49 -59 -98q-12 -10 -37 -29q-27 -18 -39 -28q-27 -23 -27 -43v-4q9 -29 47 -37q9 -2 19 -2q35 0 74 26q52 35 94 117q26 43 54 115q26 65 33 90l249 768q18 51 18 90q0 59 -42 86q-72 45 -162 45l12 47zM1693 0l45 145h610l-50 -145h-605zM1848 618q50 154 183 232
q129 78 263 78q117 0 192 -70q61 -63 61 -151v-25q-13 -147 -148 -260q-133 -113 -300 -113h-5q-91 0 -175.5 47t-84.5 176l10 46zM2080 618q-37 -118 -37 -163q0 -13 2 -21q15 -59 69 -59h9q84 0 145 133q65 139 77 244q0 36 -5 57q-7 18 -25.5 32.5t-43.5 16.5h-15
q-63 0 -96 -55q-39 -66 -80 -185z" />
    <glyph glyph-name="guilsinglleft" unicode="&#x2116;" horiz-adv-x="2613" 
d="M1224 1458l277 -960l207 669q8 19 13 35q5 17 10 33q7 29 31 86q32 68 98 121q59 45 171 45h26q115 -2 190 -60q73 -57 86 -135q5 -22 5 -45q0 -55 -32 -102q-47 -68 -143 -74q-66 0 -106 33q-39 33 -39 80q0 57 49 98q27 27 32 39q5 10 5 20q0 15 -12 33q-20 27 -61 29
h-13q-90 0 -144 -143q-9 -23 -16 -48q-10 -26 -17 -41q0 -12 -5 -28q-7 -17 -9 -27l-350 -1116h-199l-329 1151l-238 -739q-139 -441 -421 -441h-4q-89 0 -153 49q-67 50 -77 130q-2 16 -2 32q-1 6 -1 12q0 13 3 25q10 92 71 152q63 59 150 59q72 0 114 -37q34 -33 34 -74
v-8q0 -49 -59 -98q-12 -10 -37 -29q-27 -18 -39 -28q-27 -23 -27 -43v-4q9 -29 47 -37q9 -2 19 -2q35 0 74 26q52 35 94 117q26 43 54 115q26 65 33 90l249 768q18 51 18 90q0 59 -42 86q-72 45 -162 45l12 47zM1693 0l45 145h610l-50 -145h-605zM1848 618q50 154 183 232
q129 78 263 78q117 0 192 -70q61 -63 61 -151v-25q-13 -147 -148 -260q-133 -113 -300 -113h-5q-91 0 -175.5 47t-84.5 176l10 46zM2080 618q-37 -118 -37 -163q0 -13 2 -21q15 -59 69 -59h9q84 0 145 133q65 139 77 244q0 36 -5 57q-7 18 -25.5 32.5t-43.5 16.5h-15
q-63 0 -96 -55q-39 -66 -80 -185z" />
    <glyph glyph-name="ordmasculine.0" unicode="&#xba;" horiz-adv-x="1251" 
d="M1086 651h-96q-9 158 -73 201q-56 37 -106 37h-14q-128 -6 -227 -129q-49 -68 -83 -131q-25 -49 -35 -78v-6q0 -39 52 -39h14q10 0 59 16q23 10 38 17q12 4 37 12q83 33 120 33q77 0 113 -74q4 -6 13 -18q7 -15 12 -21q5 -12 5 -22l-84 -52q-10 9 -12 15q-3 4 -5 6
q-10 10 -28 31q-9 10 -21 18q-10 4 -20 4h-10q-12 0 -34 -6q-23 -12 -40 -19q-84 -38 -140 -38q-19 0 -37 4q-20 4 -41 18t-28 19q-59 -130 -61 -246q0 -17 2 -33q12 -129 120 -129h5q72 4 171 68q96 63 218 213h96l-93 -244q-188 -98 -443 -103q-198 0 -290 91
q-79 79 -79 198q0 17 3 33q9 139 98 293q74 121 194 215q118 92 259 139q122 41 250 41h35q165 -6 292 -76z" />
    <glyph glyph-name="ordmasculine.0" unicode="&#x454;" horiz-adv-x="1251" 
d="M1086 651h-96q-9 158 -73 201q-56 37 -106 37h-14q-128 -6 -227 -129q-49 -68 -83 -131q-25 -49 -35 -78v-6q0 -39 52 -39h14q10 0 59 16q23 10 38 17q12 4 37 12q83 33 120 33q77 0 113 -74q4 -6 13 -18q7 -15 12 -21q5 -12 5 -22l-84 -52q-10 9 -12 15q-3 4 -5 6
q-10 10 -28 31q-9 10 -21 18q-10 4 -20 4h-10q-12 0 -34 -6q-23 -12 -40 -19q-84 -38 -140 -38q-19 0 -37 4q-20 4 -41 18t-28 19q-59 -130 -61 -246q0 -17 2 -33q12 -129 120 -129h5q72 4 171 68q96 63 218 213h96l-93 -244q-188 -98 -443 -103q-198 0 -290 91
q-79 79 -79 198q0 17 3 33q9 139 98 293q74 121 194 215q118 92 259 139q122 41 250 41h35q165 -6 292 -76z" />
    <glyph glyph-name="guillemotright" unicode="&#xbb;" horiz-adv-x="1360" 
d="M703 59l-131 107l477 356l-245 365l137 80l352 -445zM190 70l-122 110l483 342l-261 361l150 86l364 -447z" />
    <glyph glyph-name="divide" unicode="&#xbc;" horiz-adv-x="723" 
d="M98 596h572l-41 -162h-576zM102 170q0 63 45 111q43 45 111 45q64 0 113 -43q47 -45 47 -113t-47 -111q-49 -43 -113 -43q-65 0 -111 45q-45 45 -45 109zM276 868q0 64 45.5 111t112.5 47q64 0 111 -45q45 -47 45 -113q0 -65 -47 -110t-109 -45q-65 0 -110 47
q-48 45 -48 108z" />
    <glyph glyph-name="divide" unicode="&#x458;" horiz-adv-x="723" 
d="M98 596h572l-41 -162h-576zM102 170q0 63 45 111q43 45 111 45q64 0 113 -43q47 -45 47 -113t-47 -111q-49 -43 -113 -43q-65 0 -111 45q-45 45 -45 109zM276 868q0 64 45.5 111t112.5 47q64 0 111 -45q45 -47 45 -113q0 -65 -47 -110t-109 -45q-65 0 -110 47
q-48 45 -48 108z" />
    <glyph glyph-name="dieresis" unicode="&#xbd;" horiz-adv-x="1536" 
d="M471 1038l137 111l293 -383l473 383l84 -111l-471 -383l295 -383l-137 -110l-293 383l-473 -383l-84 110l471 383z" />
    <glyph glyph-name="dieresis" unicode="&#x405;" horiz-adv-x="1536" 
d="M471 1038l137 111l293 -383l473 383l84 -111l-471 -383l295 -383l-137 -110l-293 383l-473 -383l-84 110l471 383z" />
    <glyph glyph-name="ellipsis" unicode="&#xbe;" horiz-adv-x="1548" 
d="M612 133q0 68 47 113q46 43 113 43q66 0 113 -43q45 -45 45 -113q0 -63 -47 -108t-111 -45q-61 0 -110 45q-50 43 -50 108zM1124 133q0 68 47 113q46 43 113 43q66 0 113 -43q45 -45 45 -113q0 -63 -47 -108t-111 -45q-61 0 -110 45q-50 43 -50 108zM100 133q0 68 47 113
q46 43 113 43q66 0 113 -43q45 -45 45 -113q0 -63 -47 -108t-111 -45q-61 0 -110 45q-50 43 -50 108z" />
    <glyph glyph-name="ellipsis" unicode="&#x455;" horiz-adv-x="1548" 
d="M612 133q0 68 47 113q46 43 113 43q66 0 113 -43q45 -45 45 -113q0 -63 -47 -108t-111 -45q-61 0 -110 45q-50 43 -50 108zM1124 133q0 68 47 113q46 43 113 43q66 0 113 -43q45 -45 45 -113q0 -63 -47 -108t-111 -45q-61 0 -110 45q-50 43 -50 108zM100 133q0 68 47 113
q46 43 113 43q66 0 113 -43q45 -45 45 -113q0 -63 -47 -108t-111 -45q-61 0 -110 45q-50 43 -50 108z" />
    <glyph glyph-name="ordfeminine" unicode="&#xbf;" horiz-adv-x="816" 
d="M661 985l-255 -801q-8 -18 -8 -32q-7 -19 -7 -37q5 -27 31 -27q12 0 28 4q59 12 177 133l58 -45q-179 -200 -373 -200q-164 0 -179 118v15q0 45 39 163l130 406q3 18 3 29v6q0 26 -28 43q-14 10 -68 14q-42 0 -64 -2l19 64q251 18 340 149h157zM167 1321q0 61 51 102
q52 41 126 41q71 0 123 -39q49 -41 49 -104q0 -64 -52 -104q-54 -43 -120 -43q-69 0 -123 43t-54 104zM669 1321q0 65 54 104q51 39 123 39q76 0 125 -43q47 -45 47 -100q0 -57 -47 -102q-49 -45 -125 -45q-72 0 -123 40q-54 41 -54 107z" />
    <glyph glyph-name="ordfeminine" unicode="&#x457;" horiz-adv-x="816" 
d="M661 985l-255 -801q-8 -18 -8 -32q-7 -19 -7 -37q5 -27 31 -27q12 0 28 4q59 12 177 133l58 -45q-179 -200 -373 -200q-164 0 -179 118v15q0 45 39 163l130 406q3 18 3 29v6q0 26 -28 43q-14 10 -68 14q-42 0 -64 -2l19 64q251 18 340 149h157zM167 1321q0 61 51 102
q52 41 126 41q71 0 123 -39q49 -41 49 -104q0 -64 -52 -104q-54 -43 -120 -43q-69 0 -123 43t-54 104zM669 1321q0 65 54 104q51 39 123 39q76 0 125 -43q47 -45 47 -100q0 -57 -47 -102q-49 -45 -125 -45q-72 0 -123 40q-54 41 -54 107z" />
    <glyph glyph-name="Adieresis" unicode="&#xc0;" horiz-adv-x="1848" 
d="M1450 1516l74 -1291q10 -88 47 -131q31 -37 127 -37h30l-20 -57h-737l19 57q40 0 63 2q45 0 75 17q52 24 52 92l-17 287h-593l-130 -195q-67 -98 -67 -131q10 -37 40 -53q19 -13 71 -13q8 -2 44 -6l-19 -57h-516l17 57q63 6 100 31q38 23 89 86l770 1045q21 30 21 47v4
q-7 28 -61 28l-103 5l25 65h36q65 0 128 10q83 13 153 47q66 33 101 91h181zM1126 1214l-465 -641h500z" />
    <glyph glyph-name="Adieresis" unicode="&#x410;" horiz-adv-x="1848" 
d="M1450 1516l74 -1291q10 -88 47 -131q31 -37 127 -37h30l-20 -57h-737l19 57q40 0 63 2q45 0 75 17q52 24 52 92l-17 287h-593l-130 -195q-67 -98 -67 -131q10 -37 40 -53q19 -13 71 -13q8 -2 44 -6l-19 -57h-516l17 57q63 6 100 31q38 23 89 86l770 1045q21 30 21 47v4
q-7 28 -61 28l-103 5l25 65h36q65 0 128 10q83 13 153 47q66 33 101 91h181zM1126 1214l-465 -641h500z" />
    <glyph glyph-name="Aring" unicode="&#xc1;" horiz-adv-x="1797" 
d="M1642 1454l-22 -344h-89q-14 33 -22 47q-39 78 -69 113q-47 55 -103 70.5t-140 19.5h-36q-84 0 -119 -14q-41 -19 -66 -93l-123 -385q69 4 135 4q246 0 426 -55q223 -72 240 -295v-26q0 -84 -39 -162q-49 -92 -147 -168q-101 -76 -253 -121q-155 -45 -350 -45h-797l23 63
q118 0 157 37q5 4 22 45q16 35 16 39l348 1086q2 4 8 41q7 18 7 30q0 7 -2 13q-11 22 -40 28q-20 9 -51 9h-40l23 63h1103zM816 745l-169 -522q-11 -20 -11 -41q0 -76 141 -78h9q263 0 382 138q98 114 98 239q0 23 -2 47q-21 158 -160 199q-91 27 -185 27q-51 0 -103 -9z
" />
    <glyph glyph-name="Aring" unicode="&#x411;" horiz-adv-x="1797" 
d="M1642 1454l-22 -344h-89q-14 33 -22 47q-39 78 -69 113q-47 55 -103 70.5t-140 19.5h-36q-84 0 -119 -14q-41 -19 -66 -93l-123 -385q69 4 135 4q246 0 426 -55q223 -72 240 -295v-26q0 -84 -39 -162q-49 -92 -147 -168q-101 -76 -253 -121q-155 -45 -350 -45h-797l23 63
q118 0 157 37q5 4 22 45q16 35 16 39l348 1086q2 4 8 41q7 18 7 30q0 7 -2 13q-11 22 -40 28q-20 9 -51 9h-40l23 63h1103zM816 745l-169 -522q-11 -20 -11 -41q0 -76 141 -78h9q263 0 382 138q98 114 98 239q0 23 -2 47q-21 158 -160 199q-91 27 -185 27q-51 0 -103 -9z
" />
    <glyph glyph-name="Ccedilla" unicode="&#xc2;" horiz-adv-x="1848" 
d="M511 1391l19 63h623q575 0 575 -305v-12q-5 -117 -110.5 -209t-324.5 -133q140 -25 262 -101q112 -69 112 -202v-29q-13 -123 -112 -230q-100 -106 -286 -170q-188 -63 -438 -63h-767l20 63q120 0 157 37q5 9 22 45q5 13 7 21q0 6 5 18l349 1086q5 8 10 41q8 18 8 30
q0 7 -3 13q-8 22 -34 28q-28 9 -59 9h-35zM840 854q47 -2 89 -2q241 0 330 92q92 100 92 217v17q-12 147 -204 176q-36 6 -63 6q-42 0 -59 -14q-32 -25 -49 -72zM807 745l-168 -516q-12 -30 -12 -45q0 -73 135 -75q209 0 357 108q145 109 159 254q3 21 3 41q0 139 -108 190
q-99 46 -273 46q-44 0 -93 -3z" />
    <glyph glyph-name="Ccedilla" unicode="&#x412;" horiz-adv-x="1848" 
d="M511 1391l19 63h623q575 0 575 -305v-12q-5 -117 -110.5 -209t-324.5 -133q140 -25 262 -101q112 -69 112 -202v-29q-13 -123 -112 -230q-100 -106 -286 -170q-188 -63 -438 -63h-767l20 63q120 0 157 37q5 9 22 45q5 13 7 21q0 6 5 18l349 1086q5 8 10 41q8 18 8 30
q0 7 -3 13q-8 22 -34 28q-28 9 -59 9h-35zM840 854q47 -2 89 -2q241 0 330 92q92 100 92 217v17q-12 147 -204 176q-36 6 -63 6q-42 0 -59 -14q-32 -25 -49 -72zM807 745l-168 -516q-12 -30 -12 -45q0 -73 135 -75q209 0 357 108q145 109 159 254q3 21 3 41q0 139 -108 190
q-99 46 -273 46q-44 0 -93 -3z" />
    <glyph glyph-name="Eacute" unicode="&#xc3;" horiz-adv-x="1632" 
d="M1546 1454l-27 -360h-91q-42 166 -152.5 209t-238.5 43q-52 0 -78 -15q-28 -14 -47 -74l-342 -1073q-5 -12 -5 -18q-2 -8 -7 -21q-2 -24 -2 -36v-9q9 -18 37 -28q19 -6 59 -6q9 -3 36 -3l-19 -63h-667l20 63q118 0 160 37q10 11 24 45q0 5 15 39l349 1086q2 10 7 22
q3 13 3 19q7 18 7 30q0 7 -3 13q-12 22 -38 28q-23 9 -56 9h-40l19 63h1077z" />
    <glyph glyph-name="Eacute" unicode="&#x413;" horiz-adv-x="1632" 
d="M1546 1454l-27 -360h-91q-42 166 -152.5 209t-238.5 43q-52 0 -78 -15q-28 -14 -47 -74l-342 -1073q-5 -12 -5 -18q-2 -8 -7 -21q-2 -24 -2 -36v-9q9 -18 37 -28q19 -6 59 -6q9 -3 36 -3l-19 -63h-667l20 63q118 0 160 37q10 11 24 45q0 5 15 39l349 1086q2 10 7 22
q3 13 3 19q7 18 7 30q0 7 -3 13q-12 22 -38 28q-23 9 -56 9h-40l19 63h1077z" />
    <glyph glyph-name="Ntilde" unicode="&#xc4;" horiz-adv-x="2121" 
d="M1728 104l-103 -466h-106q17 65 17 118q0 123 -89 172q-127 72 -345 72h-567q-176 0 -294 -76q-119 -78 -138 -286h-93l-3 462h21q146 0 232 62q47 37 118 176q49 102 86 176q38 74 59 123q79 164 160 369q70 172 70 254q0 14 -3 26q0 39 -39.5 74t-138.5 35h-51l18 59
h1302h174l-19 -59q-131 0 -172 -39q-8 -8 -25 -45q-5 -13 -7 -21q-3 -10 -7 -20l-338 -1047q-16 -57 -16 -65q0 -29 32 -41q29 -13 115 -13h150zM1428 1251q10 33 10 56q0 14 -5 24q-12 25 -113 25h-248q-89 0 -131 -99q-22 -57 -56 -172q-62 -174 -137 -335
q-89 -193 -136 -287q-17 -33 -47 -92.5t-56 -110.5q-28 -49 -35 -70q-12 -28 -12 -43v-4q12 -39 103 -39h396q71 0 101 37q27 35 45 101z" />
    <glyph glyph-name="Ntilde" unicode="&#x414;" horiz-adv-x="2121" 
d="M1728 104l-103 -466h-106q17 65 17 118q0 123 -89 172q-127 72 -345 72h-567q-176 0 -294 -76q-119 -78 -138 -286h-93l-3 462h21q146 0 232 62q47 37 118 176q49 102 86 176q38 74 59 123q79 164 160 369q70 172 70 254q0 14 -3 26q0 39 -39.5 74t-138.5 35h-51l18 59
h1302h174l-19 -59q-131 0 -172 -39q-8 -8 -25 -45q-5 -13 -7 -21q-3 -10 -7 -20l-338 -1047q-16 -57 -16 -65q0 -29 32 -41q29 -13 115 -13h150zM1428 1251q10 33 10 56q0 14 -5 24q-12 25 -113 25h-248q-89 0 -131 -99q-22 -57 -56 -172q-62 -174 -137 -335
q-89 -193 -136 -287q-17 -33 -47 -92.5t-56 -110.5q-28 -49 -35 -70q-12 -28 -12 -43v-4q12 -39 103 -39h396q71 0 101 37q27 35 45 101z" />
    <glyph glyph-name="Odieresis" unicode="&#xc5;" horiz-adv-x="1797" 
d="M1669 1454l-10 -305h-86q-20 72 -86 138.5t-197 66.5h-241q-68 0 -83 -15q-14 -14 -37 -63l-132 -418h287q74 0 131 25q54 22 103 100h83l-123 -387h-89q10 22 10 45q0 27 -12 51q-24 47 -122 47h-303l-169 -520q-13 -45 -13 -63q0 -43 27 -50q24 -6 94 -6h256
q152 0 242 50q91 49 199 188h99l-108 -338h-1379l25 63q117 0 159 37q5 4 22 45q5 11 10 19q2 8 8 20l346 1086q10 24 13 41q7 14 7 28q0 9 -2 15q-14 20 -40 28q-28 9 -61 9h-37l21 63h1188z" />
    <glyph glyph-name="Odieresis" unicode="&#x415;" horiz-adv-x="1797" 
d="M1669 1454l-10 -305h-86q-20 72 -86 138.5t-197 66.5h-241q-68 0 -83 -15q-14 -14 -37 -63l-132 -418h287q74 0 131 25q54 22 103 100h83l-123 -387h-89q10 22 10 45q0 27 -12 51q-24 47 -122 47h-303l-169 -520q-13 -45 -13 -63q0 -43 27 -50q24 -6 94 -6h256
q152 0 242 50q91 49 199 188h99l-108 -338h-1379l25 63q117 0 159 37q5 4 22 45q5 11 10 19q2 8 8 20l346 1086q10 24 13 41q7 14 7 28q0 9 -2 15q-14 20 -40 28q-28 9 -61 9h-37l21 63h1188z" />
    <glyph glyph-name="Udieresis" unicode="&#xc6;" horiz-adv-x="2772" 
d="M1305 666l-62 71q-33 -37 -103 -106q-134 -142 -309 -303q-332 -299 -718 -473l-42 69q119 82 255 203q138 121 313 322q91 108 121 145q29 35 78 94q18 21 44 53q25 33 52 66q25 31 42 51q21 29 35 47q12 17 46 62l-224 278q-120 150 -289 150l19 59h598l-21 -59h-19
q-35 0 -74 -13q-50 -16 -52 -61q-2 -6 -2 -12q0 -33 30 -72l337 -397l137 430l4 16q5 14 8 25q6 20 6 32q0 9 -3 13q-3 18 -37 28q-20 5 -32 7t-27 4h-37l19 59h160h335h164l-24 -59q-69 0 -103 -9q-35 -8 -54 -32q-23 -27 -42 -84l-138 -430l570 420q61 51 61 81v5
q-5 49 -105 49l20 59h530l-19 -59q-91 -15 -278 -148l-442 -313q49 -242 219 -535q166 -295 346 -475l-79 -69q-98 59 -230.5 167.5t-282.5 292.5q-150 185 -249 422l-118 -71l-154 -482q0 -4 -3 -16q-5 -12 -7 -23q-5 -20 -5 -34v-11q10 -16 39 -28q20 -6 57 -6
q15 -3 41 -3l-22 -63h-162h-332h-162l20 63q123 0 162 37q15 23 22 45q10 19 14 39z" />
    <glyph glyph-name="Udieresis" unicode="&#x416;" horiz-adv-x="2772" 
d="M1305 666l-62 71q-33 -37 -103 -106q-134 -142 -309 -303q-332 -299 -718 -473l-42 69q119 82 255 203q138 121 313 322q91 108 121 145q29 35 78 94q18 21 44 53q25 33 52 66q25 31 42 51q21 29 35 47q12 17 46 62l-224 278q-120 150 -289 150l19 59h598l-21 -59h-19
q-35 0 -74 -13q-50 -16 -52 -61q-2 -6 -2 -12q0 -33 30 -72l337 -397l137 430l4 16q5 14 8 25q6 20 6 32q0 9 -3 13q-3 18 -37 28q-20 5 -32 7t-27 4h-37l19 59h160h335h164l-24 -59q-69 0 -103 -9q-35 -8 -54 -32q-23 -27 -42 -84l-138 -430l570 420q61 51 61 81v5
q-5 49 -105 49l20 59h530l-19 -59q-91 -15 -278 -148l-442 -313q49 -242 219 -535q166 -295 346 -475l-79 -69q-98 59 -230.5 167.5t-282.5 292.5q-150 185 -249 422l-118 -71l-154 -482q0 -4 -3 -16q-5 -12 -7 -23q-5 -20 -5 -34v-11q10 -16 39 -28q20 -6 57 -6
q15 -3 41 -3l-22 -63h-162h-332h-162l20 63q123 0 162 37q15 23 22 45q10 19 14 39z" />
    <glyph glyph-name="aacute" unicode="&#xc7;" horiz-adv-x="1684" 
d="M530 760l33 94q56 -4 108 -4q509 0 526 307q2 14 2 29q0 88 -54 131q-61 49 -150 57q-26 4 -56 4q-111 0 -221 -63q-141 -80 -221 -199h-91l91 291q230 76 484 76q297 0 450 -101q152 -100 157 -239v-17q0 -131 -113 -217q-121 -92 -396 -131q145 -37 260 -127
q116 -90 116 -221v-8q0 -158 -172 -301q-179 -150 -582 -150q-162 0 -312 35t-303 127l96 297h95q60 -344 389 -344h5q185 0 293 127q101 121 101 264v21q-8 184 -212 235q-74 15 -187 19q-51 0 -136 8z" />
    <glyph glyph-name="aacute" unicode="&#x417;" horiz-adv-x="1684" 
d="M530 760l33 94q56 -4 108 -4q509 0 526 307q2 14 2 29q0 88 -54 131q-61 49 -150 57q-26 4 -56 4q-111 0 -221 -63q-141 -80 -221 -199h-91l91 291q230 76 484 76q297 0 450 -101q152 -100 157 -239v-17q0 -131 -113 -217q-121 -92 -396 -131q145 -37 260 -127
q116 -90 116 -221v-8q0 -158 -172 -301q-179 -150 -582 -150q-162 0 -312 35t-303 127l96 297h95q60 -344 389 -344h5q185 0 293 127q101 121 101 264v21q-8 184 -212 235q-74 15 -187 19q-51 0 -136 8z" />
    <glyph glyph-name="agrave" unicode="&#xc8;" horiz-adv-x="2067" 
d="M730 539l752 635l30 96q3 4 7 41q8 18 8 30q0 7 -3 13q-9 22 -39 28q-20 9 -52 9h-40l23 63h659l-18 -63q-125 0 -157 -37q-5 -4 -26 -43q-11 -33 -16 -41l-349 -1086q-3 -4 -3 -12q-2 -10 -2 -14q0 -6 -3 -13q-7 -22 -7 -34q0 -7 3 -11q7 -18 39 -28q17 -6 52 -6
q17 -3 39 -3l-20 -63h-661l23 63q115 0 157 37q5 4 21 45q6 13 9 21q0 6 5 18l253 779l-748 -635l-47 -144q-4 -12 -4 -18q-3 -8 -8 -21q-2 -24 -2 -36v-9q2 -14 37 -28q19 -6 59 -6q10 -3 34 -3l-20 -63h-663l19 63q121 0 163 37q5 9 22 45q14 35 14 39l349 1086q8 18 8 41
q7 18 7 30q0 7 -3 13q-7 22 -33 28q-28 9 -59 9h-37l19 63h661l-19 -63q-124 0 -155 -37q-15 -17 -25 -43q-12 -27 -14 -41z" />
    <glyph glyph-name="agrave" unicode="&#x418;" horiz-adv-x="2067" 
d="M730 539l752 635l30 96q3 4 7 41q8 18 8 30q0 7 -3 13q-9 22 -39 28q-20 9 -52 9h-40l23 63h659l-18 -63q-125 0 -157 -37q-5 -4 -26 -43q-11 -33 -16 -41l-349 -1086q-3 -4 -3 -12q-2 -10 -2 -14q0 -6 -3 -13q-7 -22 -7 -34q0 -7 3 -11q7 -18 39 -28q17 -6 52 -6
q17 -3 39 -3l-20 -63h-661l23 63q115 0 157 37q5 4 21 45q6 13 9 21q0 6 5 18l253 779l-748 -635l-47 -144q-4 -12 -4 -18q-3 -8 -8 -21q-2 -24 -2 -36v-9q2 -14 37 -28q19 -6 59 -6q10 -3 34 -3l-20 -63h-663l19 63q121 0 163 37q5 9 22 45q14 35 14 39l349 1086q8 18 8 41
q7 18 7 30q0 7 -3 13q-7 22 -33 28q-28 9 -59 9h-37l19 63h661l-19 -63q-124 0 -155 -37q-15 -17 -25 -43q-12 -27 -14 -41z" />
    <glyph glyph-name="acircumflex" unicode="&#xc9;" horiz-adv-x="2067" 
d="M730 539l752 635l30 96q3 4 7 41q8 18 8 30q0 7 -3 13q-9 22 -39 28q-20 9 -52 9h-40l23 63h659l-18 -63q-125 0 -157 -37q-5 -4 -26 -43q-11 -33 -16 -41l-349 -1086q-3 -4 -3 -12q-2 -10 -2 -14q0 -6 -3 -13q-7 -22 -7 -34q0 -7 3 -11q7 -18 39 -28q17 -6 52 -6
q17 -3 39 -3l-20 -63h-661l23 63q115 0 157 37q5 4 21 45q6 13 9 21q0 6 5 18l253 779l-748 -635l-47 -144q-4 -12 -4 -18q-3 -8 -8 -21q-2 -24 -2 -36v-9q2 -14 37 -28q19 -6 59 -6q10 -3 34 -3l-20 -63h-663l19 63q121 0 163 37q5 9 22 45q14 35 14 39l349 1086q8 18 8 41
q7 18 7 30q0 7 -3 13q-7 22 -33 28q-28 9 -59 9h-37l19 63h661l-19 -63q-124 0 -155 -37q-15 -17 -25 -43q-12 -27 -14 -41zM1615 1870h116q-54 -184 -195 -268q-117 -72 -241 -72q-22 0 -44 2q-116 8 -184 72q-59 51 -59 110q0 12 3 25q12 51 54 84q42 30 110 30h10
q56 0 93 -24q40 -29 47 -64q5 -14 5 -26q0 -41 -45 -74l-9 -8q-3 -6 -3 -12q0 -21 47 -21q184 0 295 246z" />
    <glyph glyph-name="acircumflex" unicode="&#x419;" horiz-adv-x="2067" 
d="M730 539l752 635l30 96q3 4 7 41q8 18 8 30q0 7 -3 13q-9 22 -39 28q-20 9 -52 9h-40l23 63h659l-18 -63q-125 0 -157 -37q-5 -4 -26 -43q-11 -33 -16 -41l-349 -1086q-3 -4 -3 -12q-2 -10 -2 -14q0 -6 -3 -13q-7 -22 -7 -34q0 -7 3 -11q7 -18 39 -28q17 -6 52 -6
q17 -3 39 -3l-20 -63h-661l23 63q115 0 157 37q5 4 21 45q6 13 9 21q0 6 5 18l253 779l-748 -635l-47 -144q-4 -12 -4 -18q-3 -8 -8 -21q-2 -24 -2 -36v-9q2 -14 37 -28q19 -6 59 -6q10 -3 34 -3l-20 -63h-663l19 63q121 0 163 37q5 9 22 45q14 35 14 39l349 1086q8 18 8 41
q7 18 7 30q0 7 -3 13q-7 22 -33 28q-28 9 -59 9h-37l19 63h661l-19 -63q-124 0 -155 -37q-15 -17 -25 -43q-12 -27 -14 -41zM1615 1870h116q-54 -184 -195 -268q-117 -72 -241 -72q-22 0 -44 2q-116 8 -184 72q-59 51 -59 110q0 12 3 25q12 51 54 84q42 30 110 30h10
q56 0 93 -24q40 -29 47 -64q5 -14 5 -26q0 -41 -45 -74l-9 -8q-3 -6 -3 -12q0 -21 47 -21q184 0 295 246z" />
    <glyph glyph-name="adieresis" unicode="&#xca;" horiz-adv-x="1956" 
d="M831 801l585 436q106 88 106 131q0 8 -3 14q-7 17 -42 27q-30 8 -58 8h-10l14 37h526l-12 -37q-42 -8 -124 -51q-28 -23 -70 -45l-20 -12q-13 -9 -22 -17l-514 -360q84 -318 214 -555q130 -240 327 -443l-96 -73q-133 90 -251 198q-117 109 -246 279q-127 168 -241 377
l-125 -92l-138 -439q-4 -12 -4 -18q-3 -8 -8 -21q-4 -20 -4 -34v-11q14 -18 39 -28q19 -6 57 -6q16 -3 39 -3l-20 -63h-160h-349h-157l20 63q122 0 160 37q9 11 24 45q0 5 15 39l348 1086q3 10 8 22q3 13 3 19q7 18 7 30q0 7 -2 13q-13 22 -40 28q-23 9 -56 9h-40l19 63h164
h348h155l-17 -63q-125 0 -162 -37q-7 -13 -12 -25q-9 -14 -11 -18q-2 -11 -5 -21q-5 -10 -9 -20z" />
    <glyph glyph-name="adieresis" unicode="&#x41a;" horiz-adv-x="1956" 
d="M831 801l585 436q106 88 106 131q0 8 -3 14q-7 17 -42 27q-30 8 -58 8h-10l14 37h526l-12 -37q-42 -8 -124 -51q-28 -23 -70 -45l-20 -12q-13 -9 -22 -17l-514 -360q84 -318 214 -555q130 -240 327 -443l-96 -73q-133 90 -251 198q-117 109 -246 279q-127 168 -241 377
l-125 -92l-138 -439q-4 -12 -4 -18q-3 -8 -8 -21q-4 -20 -4 -34v-11q14 -18 39 -28q19 -6 57 -6q16 -3 39 -3l-20 -63h-160h-349h-157l20 63q122 0 160 37q9 11 24 45q0 5 15 39l348 1086q3 10 8 22q3 13 3 19q7 18 7 30q0 7 -2 13q-13 22 -40 28q-23 9 -56 9h-40l19 63h164
h348h155l-17 -63q-125 0 -162 -37q-7 -13 -12 -25q-9 -14 -11 -18q-2 -11 -5 -21q-5 -10 -9 -20z" />
    <glyph glyph-name="atilde" unicode="&#xcb;" horiz-adv-x="2067" 
d="M730 1397l18 57h1327l-15 -57q-123 0 -160 -41q-14 -17 -24 -45q-5 -8 -16 -41l-351 -1086q-3 -4 -3 -12q-2 -10 -2 -14q0 -6 -3 -13q-4 -20 -4 -34v-11q12 -18 39 -28q17 -6 52 -6q17 -3 39 -3l-20 -63h-658l20 63q120 0 152 37q14 17 26 45q6 11 8.5 19t7.5 20
l346 1082q10 28 10 51q0 29 -15 45q-22 24 -111 24q-24 0 -54 -2q-103 0 -157 -34q-54 -37 -115 -183l-337 -817q-66 -168 -162 -272q-96 -107 -249 -107q-91 0 -159 49q-71 50 -81 132q-3 18 -3 36q0 88 60 166q68 95 174 95q68 0 110 -33t42 -90q0 -62 -61 -113
q-18 -14 -42 -31.5t-35 -25.5q-26 -23 -26 -43v-4q9 -31 46 -37q8 -2 15 -2q110 0 231 262q91 200 160 391q120 309 142 377q30 102 37 160q2 14 2 26q0 43 -26 72q-37 37 -175 39z" />
    <glyph glyph-name="atilde" unicode="&#x41b;" horiz-adv-x="2067" 
d="M730 1397l18 57h1327l-15 -57q-123 0 -160 -41q-14 -17 -24 -45q-5 -8 -16 -41l-351 -1086q-3 -4 -3 -12q-2 -10 -2 -14q0 -6 -3 -13q-4 -20 -4 -34v-11q12 -18 39 -28q17 -6 52 -6q17 -3 39 -3l-20 -63h-658l20 63q120 0 152 37q14 17 26 45q6 11 8.5 19t7.5 20
l346 1082q10 28 10 51q0 29 -15 45q-22 24 -111 24q-24 0 -54 -2q-103 0 -157 -34q-54 -37 -115 -183l-337 -817q-66 -168 -162 -272q-96 -107 -249 -107q-91 0 -159 49q-71 50 -81 132q-3 18 -3 36q0 88 60 166q68 95 174 95q68 0 110 -33t42 -90q0 -62 -61 -113
q-18 -14 -42 -31.5t-35 -25.5q-26 -23 -26 -43v-4q9 -31 46 -37q8 -2 15 -2q110 0 231 262q91 200 160 391q120 309 142 377q30 102 37 160q2 14 2 26q0 43 -26 72q-37 37 -175 39z" />
    <glyph glyph-name="aring" unicode="&#xcc;" horiz-adv-x="2340" 
d="M1248 459l640 995h307h157l-19 -53q-6 -4 -13 -4h-26q-16 -2 -35 -6q-29 -11 -49 -31q-10 -12 -15 -49q-7 -19 -7 -41l-131 -1086q-5 -12 -5 -39q0 -34 5 -45q10 -16 45 -28q9 0 26.5 -2t31.5 -4h26q9 -3 19 -3l-17 -63h-157h-347h-172l17 63q12 0 22 3h22q3 0 62 6
q58 20 73 112l116 942l-717 -1126h-117l-159 1126l-362 -888q-14 -31 -14 -58q0 -119 152 -119q20 0 45 2l-25 -63h-585l22 63q184 3 267 197l411 1000q13 34 13 59q0 67 -89 76h-54q-12 0 -22 2h-32l19 57h556z" />
    <glyph glyph-name="aring" unicode="&#x41c;" horiz-adv-x="2340" 
d="M1248 459l640 995h307h157l-19 -53q-6 -4 -13 -4h-26q-16 -2 -35 -6q-29 -11 -49 -31q-10 -12 -15 -49q-7 -19 -7 -41l-131 -1086q-5 -12 -5 -39q0 -34 5 -45q10 -16 45 -28q9 0 26.5 -2t31.5 -4h26q9 -3 19 -3l-17 -63h-157h-347h-172l17 63q12 0 22 3h22q3 0 62 6
q58 20 73 112l116 942l-717 -1126h-117l-159 1126l-362 -888q-14 -31 -14 -58q0 -119 152 -119q20 0 45 2l-25 -63h-585l22 63q184 3 267 197l411 1000q13 34 13 59q0 67 -89 76h-54q-12 0 -22 2h-32l19 57h556z" />
    <glyph glyph-name="ccedilla" unicode="&#xcd;" horiz-adv-x="2121" 
d="M877 911h556l113 359q5 12 7 22q2 8 5 19q8 14 8 28q0 9 -2 15q-11 22 -40 28q-20 9 -54 9h-35l20 63h656l-19 -63q-121 0 -157 -37q-16 -17 -25 -43q0 -6 -15 -41l-349 -1086q0 -4 -3.5 -16t-6.5 -23q-5 -20 -5 -34v-11q12 -18 40 -28q17 -6 56 -6q12 -3 34 -3l-19 -63
h-654l20 63q118 0 153 37q19 23 21 45q10 19 15 39l196 607h-555l-196 -607q-8 -37 -8 -39q-3 -26 -3 -36v-9q3 -16 35 -28q19 -6 57 -6q12 -3 39 -3l-25 -63h-658l19 63q123 0 158 37q19 23 21 45q6 9 18 39l347 1086q10 24 12 41q7 14 7 28q0 9 -2 15q-7 20 -40 28
q-26 9 -56 9h-35l18 63h664l-23 -63q-120 0 -157 -37q-10 -11 -15 -25q-4 -14 -7 -18q-2 -13 -7 -21q-6 -10 -11 -20z" />
    <glyph glyph-name="ccedilla" unicode="&#x41d;" horiz-adv-x="2121" 
d="M877 911h556l113 359q5 12 7 22q2 8 5 19q8 14 8 28q0 9 -2 15q-11 22 -40 28q-20 9 -54 9h-35l20 63h656l-19 -63q-121 0 -157 -37q-16 -17 -25 -43q0 -6 -15 -41l-349 -1086q0 -4 -3.5 -16t-6.5 -23q-5 -20 -5 -34v-11q12 -18 40 -28q17 -6 56 -6q12 -3 34 -3l-19 -63
h-654l20 63q118 0 153 37q19 23 21 45q10 19 15 39l196 607h-555l-196 -607q-8 -37 -8 -39q-3 -26 -3 -36v-9q3 -16 35 -28q19 -6 57 -6q12 -3 39 -3l-25 -63h-658l19 63q123 0 158 37q19 23 21 45q6 9 18 39l347 1086q10 24 12 41q7 14 7 28q0 9 -2 15q-7 20 -40 28
q-26 9 -56 9h-35l18 63h664l-23 -63q-120 0 -157 -37q-10 -11 -15 -25q-4 -14 -7 -18q-2 -13 -7 -21q-6 -10 -11 -20z" />
    <glyph glyph-name="eacute" unicode="&#xce;" horiz-adv-x="2015" 
d="M190 543q0 168 78 340q76 170 219 309q140 137 336 217q183 74 389 74h29q199 -2 347 -74q147 -74 228 -199q79 -127 79 -288q0 -236 -140 -457q-140 -223 -374 -359q-236 -135 -508 -135q-179 0 -338 66q-157 63 -249 192q-94 127 -96 314zM580 532q-10 -73 -10 -110
q0 -62 10 -113q47 -237 293 -237q140 0 265 106q123 107 216 283q93 174 135 354q28 119 28 217q0 53 -8 101q-10 90 -69 165q-59 76 -199 84h-19q-136 0 -263 -96q-138 -106 -239 -301q-101 -194 -140 -453z" />
    <glyph glyph-name="eacute" unicode="&#x41e;" horiz-adv-x="2015" 
d="M190 543q0 168 78 340q76 170 219 309q140 137 336 217q183 74 389 74h29q199 -2 347 -74q147 -74 228 -199q79 -127 79 -288q0 -236 -140 -457q-140 -223 -374 -359q-236 -135 -508 -135q-179 0 -338 66q-157 63 -249 192q-94 127 -96 314zM580 532q-10 -73 -10 -110
q0 -62 10 -113q47 -237 293 -237q140 0 265 106q123 107 216 283q93 174 135 354q28 119 28 217q0 53 -8 101q-10 90 -69 165q-59 76 -199 84h-19q-136 0 -263 -96q-138 -106 -239 -301q-101 -194 -140 -453z" />
    <glyph glyph-name="egrave" unicode="&#xcf;" horiz-adv-x="2121" 
d="M772 63l-17 -63h-162h-349h-160l19 63q125 0 160 37q14 17 27 45q15 35 15 39l349 1086q3 4 7 41q8 18 8 30q0 7 -3 13q-9 22 -39 28q-27 9 -57 9h-40l21 63h160h1257h161l-23 -63q-122 0 -162 -37q-12 -17 -21 -43q-13 -27 -16 -41l-349 -1086q-5 -12 -5 -18
q-2 -8 -7 -21q-3 -24 -3 -36v-9q10 -18 38 -28q19 -6 58 -6q15 -3 42 -3l-22 -63h-162h-350h-159l23 63q120 0 162 37q4 9 21 45q0 5 5 13q2 8 8 16q3 6 3 10l343 1076q11 26 11 43q0 18 -11 26q-19 17 -68 17h-352q-106 0 -136 -86l-343 -1076q-5 -12 -5 -18q-2 -8 -7 -21
q-3 -26 -3 -36v-9q3 -14 37 -28q20 -6 59 -6q15 -3 37 -3z" />
    <glyph glyph-name="egrave" unicode="&#x41f;" horiz-adv-x="2121" 
d="M772 63l-17 -63h-162h-349h-160l19 63q125 0 160 37q14 17 27 45q15 35 15 39l349 1086q3 4 7 41q8 18 8 30q0 7 -3 13q-9 22 -39 28q-27 9 -57 9h-40l21 63h160h1257h161l-23 -63q-122 0 -162 -37q-12 -17 -21 -43q-13 -27 -16 -41l-349 -1086q-5 -12 -5 -18
q-2 -8 -7 -21q-3 -24 -3 -36v-9q10 -18 38 -28q19 -6 58 -6q15 -3 42 -3l-22 -63h-162h-350h-159l23 63q120 0 162 37q4 9 21 45q0 5 5 13q2 8 8 16q3 6 3 10l343 1076q11 26 11 43q0 18 -11 26q-19 17 -68 17h-352q-106 0 -136 -86l-343 -1076q-5 -12 -5 -18q-2 -8 -7 -21
q-3 -26 -3 -36v-9q3 -14 37 -28q20 -6 59 -6q15 -3 37 -3z" />
    <glyph glyph-name="ecircumflex" unicode="&#xd0;" horiz-adv-x="1797" 
d="M750 592l-131 -408q-4 -12 -4 -18q-3 -8 -8 -21q-2 -26 -2 -36v-9q2 -16 37 -28q19 -6 59 -6q10 -3 41 -3l-22 -63h-162h-349h-160l19 63q106 5 143 25q35 21 59 96l349 1086q5 12 8 22q2 8 4 19q5 18 5 30q0 9 -2 13q-15 22 -41 28q-28 9 -58 9h-33l19 63h155h435
q251 0 432 -70q167 -67 167 -280v-29q-17 -485 -833 -485q-61 0 -127 2zM784 700q47 -6 89 -6q169 0 280 99q135 120 172 284q7 39 7 72q0 80 -39 133q-57 74 -167 74q-129 0 -157 -82z" />
    <glyph glyph-name="ecircumflex" unicode="&#x420;" horiz-adv-x="1797" 
d="M750 592l-131 -408q-4 -12 -4 -18q-3 -8 -8 -21q-2 -26 -2 -36v-9q2 -16 37 -28q19 -6 59 -6q10 -3 41 -3l-22 -63h-162h-349h-160l19 63q106 5 143 25q35 21 59 96l349 1086q5 12 8 22q2 8 4 19q5 18 5 30q0 9 -2 13q-15 22 -41 28q-28 9 -58 9h-33l19 63h155h435
q251 0 432 -70q167 -67 167 -280v-29q-17 -485 -833 -485q-61 0 -127 2zM784 700q47 -6 89 -6q169 0 280 99q135 120 172 284q7 39 7 72q0 80 -39 133q-57 74 -167 74q-129 0 -157 -82z" />
    <glyph glyph-name="edieresis" unicode="&#xd1;" horiz-adv-x="1848" 
d="M1750 1331l-96 -284h-73q-26 155 -120 239q-96 84 -220 88h-14q-150 0 -284 -114q-141 -121 -240 -326q-101 -207 -131 -424q-7 -55 -7 -102q0 -156 82 -224q103 -90 240 -106h16q312 0 544 319h104l-116 -350q-238 -76 -541 -76h-29q-229 9 -457 113q-218 100 -218 401
v25q7 240 154 473q146 231 386 371q227 129 492 129h29q266 -2 499 -152z" />
    <glyph glyph-name="edieresis" unicode="&#x421;" horiz-adv-x="1848" 
d="M1750 1331l-96 -284h-73q-26 155 -120 239q-96 84 -220 88h-14q-150 0 -284 -114q-141 -121 -240 -326q-101 -207 -131 -424q-7 -55 -7 -102q0 -156 82 -224q103 -90 240 -106h16q312 0 544 319h104l-116 -350q-238 -76 -541 -76h-29q-229 9 -457 113q-218 100 -218 401
v25q7 240 154 473q146 231 386 371q227 129 492 129h29q266 -2 499 -152z" />
    <glyph glyph-name="iacute" unicode="&#xd2;" horiz-adv-x="1578" 
d="M1517 1454l-23 -356h-93q-32 131 -90 190q-63 58 -117 66q-12 2 -24 2q-66 0 -91 -74l-352 -1098q-4 -12 -4 -18q-3 -8 -8 -21q-4 -20 -4 -34v-11q14 -20 44 -28q17 -6 56 -6q12 -3 40 -3l-20 -63h-165h-349h-157l20 63q118 0 160 37q16 21 24 45q7 11 9 19q0 8 5 20
l352 1098q7 21 7 35q0 37 -56 39q-12 2 -24 2q-104 0 -200 -80q-108 -90 -174 -180h-119l180 356h1173z" />
    <glyph glyph-name="iacute" unicode="&#x422;" horiz-adv-x="1578" 
d="M1517 1454l-23 -356h-93q-32 131 -90 190q-63 58 -117 66q-12 2 -24 2q-66 0 -91 -74l-352 -1098q-4 -12 -4 -18q-3 -8 -8 -21q-4 -20 -4 -34v-11q14 -20 44 -28q17 -6 56 -6q12 -3 40 -3l-20 -63h-165h-349h-157l20 63q118 0 160 37q16 21 24 45q7 11 9 19q0 8 5 20
l352 1098q7 21 7 35q0 37 -56 39q-12 2 -24 2q-104 0 -200 -80q-108 -90 -174 -180h-119l180 356h1173z" />
    <glyph glyph-name="igrave" unicode="&#xd3;" horiz-adv-x="1848" 
d="M1018 586l410 600q47 80 47 123q0 14 -5 24q-37 60 -143 60q-22 0 -49 -2l24 63h593l-21 -63q-92 0 -139 -35q-46 -37 -96 -105l-614 -889q-101 -151 -260 -276q-148 -115 -331 -115h-28q-237 29 -266 197q-2 22 -2 43q0 106 71 182q79 82 182 82h15q120 -10 133 -102
q2 -11 2 -21q0 -80 -114 -129q-29 -14 -61 -28q-47 -33 -47 -66q10 -57 94 -66q19 -4 39 -4q146 0 320 211l-338 1000q-28 123 -188 123q-14 0 -30 -2l20 63h710l-24 -63q-5 2 -17 2q-13 0 -25 -2q-29 0 -42 -7q-41 -14 -41 -53q0 -16 7 -37z" />
    <glyph glyph-name="igrave" unicode="&#x423;" horiz-adv-x="1848" 
d="M1018 586l410 600q47 80 47 123q0 14 -5 24q-37 60 -143 60q-22 0 -49 -2l24 63h593l-21 -63q-92 0 -139 -35q-46 -37 -96 -105l-614 -889q-101 -151 -260 -276q-148 -115 -331 -115h-28q-237 29 -266 197q-2 22 -2 43q0 106 71 182q79 82 182 82h15q120 -10 133 -102
q2 -11 2 -21q0 -80 -114 -129q-29 -14 -61 -28q-47 -33 -47 -66q10 -57 94 -66q19 -4 39 -4q146 0 320 211l-338 1000q-28 123 -188 123q-14 0 -30 -2l20 63h710l-24 -63q-5 2 -17 2q-13 0 -25 -2q-29 0 -42 -7q-41 -14 -41 -53q0 -16 7 -37z" />
    <glyph glyph-name="icircumflex" unicode="&#xd4;" horiz-adv-x="2175" 
d="M521 0l23 63q117 0 159 37q17 21 24 45q8 11 10 19q0 8 5 20l23 68h-10q-312 0 -455 108q-145 109 -167 271q-2 24 -2 49q0 57 12 115q17 82 103 182q85 98 293 172q206 74 540 80l12 41q2 10 7 22q4 13 4 19q7 18 7 30q0 7 -2 13q-9 20 -40 28q-23 9 -56 9h-42l21 63
h163h348h160l-19 -63q-123 0 -160 -37q-14 -17 -25 -43q-2 -11 -5 -21q-5 -10 -9 -20l-15 -41q359 -8 500 -127q139 -119 144 -254v-27q0 -88 -41 -182q-49 -109 -168 -203q-118 -94 -308 -145q-154 -41 -345 -41q-47 0 -96 2l-21 -68q0 -4 -2 -16q-5 -12 -7 -23
q-5 -20 -5 -34v-11q12 -18 40 -28q19 -6 56 -6q14 -3 40 -3l-21 -63h-162h-351h-160zM1042 1114h-34q-192 0 -314 -84q-134 -92 -180 -225q-35 -94 -35 -172q0 -31 5 -60q25 -106 114 -159q87 -54 201 -58zM1145 346h35q164 0 277 72q126 80 185 196q56 115 61 217v27
q0 131 -88 186q-100 60 -226 60z" />
    <glyph glyph-name="icircumflex" unicode="&#x424;" horiz-adv-x="2175" 
d="M521 0l23 63q117 0 159 37q17 21 24 45q8 11 10 19q0 8 5 20l23 68h-10q-312 0 -455 108q-145 109 -167 271q-2 24 -2 49q0 57 12 115q17 82 103 182q85 98 293 172q206 74 540 80l12 41q2 10 7 22q4 13 4 19q7 18 7 30q0 7 -2 13q-9 20 -40 28q-23 9 -56 9h-42l21 63
h163h348h160l-19 -63q-123 0 -160 -37q-14 -17 -25 -43q-2 -11 -5 -21q-5 -10 -9 -20l-15 -41q359 -8 500 -127q139 -119 144 -254v-27q0 -88 -41 -182q-49 -109 -168 -203q-118 -94 -308 -145q-154 -41 -345 -41q-47 0 -96 2l-21 -68q0 -4 -2 -16q-5 -12 -7 -23
q-5 -20 -5 -34v-11q12 -18 40 -28q19 -6 56 -6q14 -3 40 -3l-21 -63h-162h-351h-160zM1042 1114h-34q-192 0 -314 -84q-134 -92 -180 -225q-35 -94 -35 -172q0 -31 5 -60q25 -106 114 -159q87 -54 201 -58zM1145 346h35q164 0 277 72q126 80 185 196q56 115 61 217v27
q0 131 -88 186q-100 60 -226 60z" />
    <glyph glyph-name="idieresis" unicode="&#xd5;" horiz-adv-x="1848" 
d="M1091 918l323 358q33 37 33 65q0 19 -12 33q-32 33 -93 33h-15l17 47h514l-17 -47q-96 -8 -152 -45q-57 -39 -143 -125l-364 -406l192 -565q37 -98 94 -145q54 -49 157 -58l-20 -63h-690l19 63q30 0 47 3q42 10 49 16q19 16 19 45q0 16 -5 35l-152 452l-302 -333
q-51 -54 -74 -119q-2 -10 -2 -21q0 -37 30 -59q26 -21 66 -21q14 0 32 2l-18 -63h-575l19 63q89 7 158 48q67 39 140 114l445 496l-221 573q-20 56 -55 84q-36 29 -134 29l7 47h683l-14 -47q-20 2 -35 2q-69 0 -81 -23q-9 -18 -9 -40q0 -15 2 -29z" />
    <glyph glyph-name="idieresis" unicode="&#x425;" horiz-adv-x="1848" 
d="M1091 918l323 358q33 37 33 65q0 19 -12 33q-32 33 -93 33h-15l17 47h514l-17 -47q-96 -8 -152 -45q-57 -39 -143 -125l-364 -406l192 -565q37 -98 94 -145q54 -49 157 -58l-20 -63h-690l19 63q30 0 47 3q42 10 49 16q19 16 19 45q0 16 -5 35l-152 452l-302 -333
q-51 -54 -74 -119q-2 -10 -2 -21q0 -37 30 -59q26 -21 66 -21q14 0 32 2l-18 -63h-575l19 63q89 7 158 48q67 39 140 114l445 496l-221 573q-20 56 -55 84q-36 29 -134 29l7 47h683l-14 -47q-20 2 -35 2q-69 0 -81 -23q-9 -18 -9 -40q0 -15 2 -29z" />
    <glyph glyph-name="ntilde" unicode="&#xd6;" horiz-adv-x="2121" 
d="M1207 1391q-128 0 -163 -37q-17 -21 -21 -45q-12 -23 -15 -39l-349 -1075q-7 -25 -7 -41q0 -23 14 -31q24 -14 71 -14h354q49 0 78.5 14t47.5 72l347 1075q2 10 7 20q2 10 2 19q5 18 5 32v13q-7 12 -42 28q-9 4 -59 9h-37l23 63h162h346h163l-23 -63q-122 0 -162 -37
q-17 -21 -21 -45q-9 -15 -18 -39l-339 -1057q-13 -35 -13 -53q0 -35 42 -49q12 -2 25 -2q12 0 24 2h59h173l-171 -519h-117q34 117 34 197q0 98 -54 139q-96 72 -241 72h-1084h-162l20 63q126 0 162 37q12 19 15 25q3 4 12 20q0 5 15 39l349 1086q2 6 5 18q0 10 2 21
q5 22 5 32q0 9 -2 13q-3 10 -38 28q-9 4 -59 9h-37l21 63h159h350h159z" />
    <glyph glyph-name="ntilde" unicode="&#x426;" horiz-adv-x="2121" 
d="M1207 1391q-128 0 -163 -37q-17 -21 -21 -45q-12 -23 -15 -39l-349 -1075q-7 -25 -7 -41q0 -23 14 -31q24 -14 71 -14h354q49 0 78.5 14t47.5 72l347 1075q2 10 7 20q2 10 2 19q5 18 5 32v13q-7 12 -42 28q-9 4 -59 9h-37l23 63h162h346h163l-23 -63q-122 0 -162 -37
q-17 -21 -21 -45q-9 -15 -18 -39l-339 -1057q-13 -35 -13 -53q0 -35 42 -49q12 -2 25 -2q12 0 24 2h59h173l-171 -519h-117q34 117 34 197q0 98 -54 139q-96 72 -241 72h-1084h-162l20 63q126 0 162 37q12 19 15 25q3 4 12 20q0 5 15 39l349 1086q2 6 5 18q0 10 2 21
q5 22 5 32q0 9 -2 13q-3 10 -38 28q-9 4 -59 9h-37l21 63h159h350h159z" />
    <glyph glyph-name="oacute" unicode="&#xd7;" horiz-adv-x="1848" 
d="M1084 723l175 547q5 12 7 22q0 8 3 19q4 20 4 30q0 9 -2 13q-5 20 -40 28q-21 9 -56 9h-37l18 63h162h349h160l-21 -63q-122 0 -159 -37q-5 -4 -27 -43q-11 -33 -15 -41l-348 -1086q-4 -4 -4 -12q-2 -10 -2 -14q0 -6 -3 -13q-7 -22 -7 -34q0 -7 2 -11q8 -18 40 -28
q19 -6 56 -6q12 -3 40 -3l-19 -63h-163h-346h-163l20 63q125 0 160 37q14 17 26 45q6 13 9 21q0 6 4 18l137 418q-164 -27 -331 -27q-49 0 -98 3q-350 18 -350 188q0 45 10 70l138 434l12 41q5 18 5 30q0 9 -3 13q-5 20 -36 28q-27 9 -60 9h-41l22 63h162h349h160l-22 -63
q-126 0 -162 -37q-8 -13 -13 -25l-9 -18q-3 -11 -5 -21l-10 -20l-143 -447q-9 -24 -9 -47q0 -76 132 -84q25 -2 49 -2q124 0 293 33z" />
    <glyph glyph-name="oacute" unicode="&#x427;" horiz-adv-x="1848" 
d="M1084 723l175 547q5 12 7 22q0 8 3 19q4 20 4 30q0 9 -2 13q-5 20 -40 28q-21 9 -56 9h-37l18 63h162h349h160l-21 -63q-122 0 -159 -37q-5 -4 -27 -43q-11 -33 -15 -41l-348 -1086q-4 -4 -4 -12q-2 -10 -2 -14q0 -6 -3 -13q-7 -22 -7 -34q0 -7 2 -11q8 -18 40 -28
q19 -6 56 -6q12 -3 40 -3l-19 -63h-163h-346h-163l20 63q125 0 160 37q14 17 26 45q6 13 9 21q0 6 4 18l137 418q-164 -27 -331 -27q-49 0 -98 3q-350 18 -350 188q0 45 10 70l138 434l12 41q5 18 5 30q0 9 -3 13q-5 20 -36 28q-27 9 -60 9h-41l22 63h162h349h160l-22 -63
q-126 0 -162 -37q-8 -13 -13 -25l-9 -18q-3 -11 -5 -21l-10 -20l-143 -447q-9 -24 -9 -47q0 -76 132 -84q25 -2 49 -2q124 0 293 33z" />
    <glyph glyph-name="ograve" unicode="&#xd8;" horiz-adv-x="2772" 
d="M497 1391l19 63h160h356h162l-19 -63q-122 0 -160 -37q-14 -17 -25 -43q-2 -11 -5.5 -21t-8.5 -20l-329 -1024q-16 -49 -16 -72v-6q3 -43 77 -57q31 -7 150 -7q91 0 111 5q61 8 79.5 35.5t37.5 97.5l330 1028l5 16q5 14 7 25q7 18 7 30q0 7 -2 13q-7 20 -40 28
q-26 9 -56 9h-40l21 63h159h-7h369h159l-16 -63q-131 0 -169 -37q-7 -13 -12 -25l-9 -18q-5 -15 -7.5 -23t-7.5 -18l-344 -1073q0 -2 -5 -19q-5 -16 -5 -28q8 -39 74 -52h27q7 -1 15 -1q9 0 19 1h69h74h27q7 -1 14 -1t13 1q61 6 76 24.5t37 74.5l346 1073q3 10 8 22
q2 13 2 19q8 14 8 28q0 9 -2 15q-13 22 -42 28q-28 9 -59 9h-37l19 63h160h349h160l-17 -63q-125 0 -162 -37q-5 -4 -28 -43q-2 -23 -14 -41l-349 -1086q-3 -4 -3 -12q-2 -10 -2 -14q0 -6 -3 -13q-7 -22 -7 -34q0 -7 3 -11q4 -14 39 -28q19 -6 57 -6q12 -3 39 -3l-20 -63
h-160h-1944h-160l19 63q126 0 160 37q16 17 28 45q4 13 7 21q0 6 5 18l351 1086q3 4 8 41q7 18 7 30q0 7 -3 13q-9 22 -38 28q-28 9 -58 9h-38z" />
    <glyph glyph-name="ograve" unicode="&#x428;" horiz-adv-x="2772" 
d="M497 1391l19 63h160h356h162l-19 -63q-122 0 -160 -37q-14 -17 -25 -43q-2 -11 -5.5 -21t-8.5 -20l-329 -1024q-16 -49 -16 -72v-6q3 -43 77 -57q31 -7 150 -7q91 0 111 5q61 8 79.5 35.5t37.5 97.5l330 1028l5 16q5 14 7 25q7 18 7 30q0 7 -2 13q-7 20 -40 28
q-26 9 -56 9h-40l21 63h159h-7h369h159l-16 -63q-131 0 -169 -37q-7 -13 -12 -25l-9 -18q-5 -15 -7.5 -23t-7.5 -18l-344 -1073q0 -2 -5 -19q-5 -16 -5 -28q8 -39 74 -52h27q7 -1 15 -1q9 0 19 1h69h74h27q7 -1 14 -1t13 1q61 6 76 24.5t37 74.5l346 1073q3 10 8 22
q2 13 2 19q8 14 8 28q0 9 -2 15q-13 22 -42 28q-28 9 -59 9h-37l19 63h160h349h160l-17 -63q-125 0 -162 -37q-5 -4 -28 -43q-2 -23 -14 -41l-349 -1086q-3 -4 -3 -12q-2 -10 -2 -14q0 -6 -3 -13q-7 -22 -7 -34q0 -7 3 -11q4 -14 39 -28q19 -6 57 -6q12 -3 39 -3l-20 -63
h-160h-1944h-160l19 63q126 0 160 37q16 17 28 45q4 13 7 21q0 6 5 18l351 1086q3 4 8 41q7 18 7 30q0 7 -3 13q-9 22 -38 28q-28 9 -58 9h-38z" />
    <glyph glyph-name="ocircumflex" unicode="&#xd9;" horiz-adv-x="2772" 
d="M490 1391l21 63h162h357h159l-16 -63q-129 0 -162 -37q-8 -6 -16 -23q-10 -16 -12 -20q-5 -15 -7.5 -23t-6.5 -18l-330 -1024q-15 -49 -15 -72v-6q3 -43 79 -57q32 -7 150 -7q88 0 108 5q59 8 81 36q20 27 42 97l330 1028q2 10 7 22q2 13 2 19q8 18 8 30q0 7 -3 13
q-14 22 -42 28q-26 9 -59 9h-37l23 63h162h-12h368h160l-20 -63q-123 0 -160 -37q-17 -21 -22 -43q-4 -11 -7 -21q-5 -10 -9 -20l-345 -1073q-9 -13 -9 -29q0 -8 2 -18q0 -39 68 -52h28q8 -1 17 -1t19 1h72h71h27q6 -1 11 -1q6 0 11 1q66 6 86 31q17 23 29 68l345 1073
q9 24 12 41q7 18 7 30q0 7 -2 13q-8 20 -39 28q-27 9 -56 9h-40l19 63h160h349h172l-22 -63q-108 0 -147.5 -21.5t-63.5 -99.5l-349 -1086q-3 -12 -3 -22q0 -43 47 -53q15 -5 45 -5h85h173l-170 -518h-118q30 101 30 176q0 238 -291 238h-1801h-160l22 63q118 0 159 37
q11 11 25 45q0 5 5 13q3 8 7 16q3 6 3 10l349 1086l12 41q5 18 5 30q0 9 -2 13q-12 22 -37 28q-27 9 -62 9h-38z" />
    <glyph glyph-name="ocircumflex" unicode="&#x429;" horiz-adv-x="2772" 
d="M490 1391l21 63h162h357h159l-16 -63q-129 0 -162 -37q-8 -6 -16 -23q-10 -16 -12 -20q-5 -15 -7.5 -23t-6.5 -18l-330 -1024q-15 -49 -15 -72v-6q3 -43 79 -57q32 -7 150 -7q88 0 108 5q59 8 81 36q20 27 42 97l330 1028q2 10 7 22q2 13 2 19q8 18 8 30q0 7 -3 13
q-14 22 -42 28q-26 9 -59 9h-37l23 63h162h-12h368h160l-20 -63q-123 0 -160 -37q-17 -21 -22 -43q-4 -11 -7 -21q-5 -10 -9 -20l-345 -1073q-9 -13 -9 -29q0 -8 2 -18q0 -39 68 -52h28q8 -1 17 -1t19 1h72h71h27q6 -1 11 -1q6 0 11 1q66 6 86 31q17 23 29 68l345 1073
q9 24 12 41q7 18 7 30q0 7 -2 13q-8 20 -39 28q-27 9 -56 9h-40l19 63h160h349h172l-22 -63q-108 0 -147.5 -21.5t-63.5 -99.5l-349 -1086q-3 -12 -3 -22q0 -43 47 -53q15 -5 45 -5h85h173l-170 -518h-118q30 101 30 176q0 238 -291 238h-1801h-160l22 63q118 0 159 37
q11 11 25 45q0 5 5 13q3 8 7 16q3 6 3 10l349 1086l12 41q5 18 5 30q0 9 -2 13q-12 22 -37 28q-27 9 -62 9h-38z" />
    <glyph glyph-name="odieresis" unicode="&#xda;" horiz-adv-x="2010" 
d="M1175 883q76 10 197 10h73q173 -4 319 -86q138 -78 138 -262v-25q-7 -219 -223 -368q-216 -152 -581 -152h-552h-160l20 63q124 0 159 37q17 21 25 45q5 7 10 17q2 10 7 22l350 1086q7 26 7 37v4q0 18 -18 28q-10 7 -39 15q-56 8 -130 8q-118 0 -182.5 -25.5t-95 -63.5
t-104.5 -153h-87l111 334h576h529l-20 -63q-99 0 -135 -23q-39 -22 -64 -98zM1145 768l-174 -526q-19 -60 -19 -76q0 -55 85 -62h20q101 0 202 52q110 55 181 157q69 103 69 226q0 178 -120 217q-74 22 -146 22q-49 0 -98 -10z" />
    <glyph glyph-name="odieresis" unicode="&#x42a;" horiz-adv-x="2010" 
d="M1175 883q76 10 197 10h73q173 -4 319 -86q138 -78 138 -262v-25q-7 -219 -223 -368q-216 -152 -581 -152h-552h-160l20 63q124 0 159 37q17 21 25 45q5 7 10 17q2 10 7 22l350 1086q7 26 7 37v4q0 18 -18 28q-10 7 -39 15q-56 8 -130 8q-118 0 -182.5 -25.5t-95 -63.5
t-104.5 -153h-87l111 334h576h529l-20 -63q-99 0 -135 -23q-39 -22 -64 -98zM1145 768l-174 -526q-19 -60 -19 -76q0 -55 85 -62h20q101 0 202 52q110 55 181 157q69 103 69 226q0 178 -120 217q-74 22 -146 22q-49 0 -98 -10z" />
    <glyph glyph-name="otilde" unicode="&#xdb;" horiz-adv-x="2613" 
d="M868 887q89 12 174 12q165 0 323 -43q228 -65 228 -315v-21q-5 -137 -96 -256q-94 -119 -280 -190q-187 -74 -445 -74h-531h-162l19 63q120 0 162 37q15 23 23 45q10 19 15 39l349 1086q5 12 7 22q3 8 5 19q5 18 5 30q0 9 -3 13q-12 22 -37 28q-26 9 -59 9h-37l18 63h162
h349h160l-20 -63q-128 0 -160 -37q-7 -6 -14 -23q-10 -16 -12 -20q-5 -15 -8 -23q-2 -8 -8 -18zM1919 1391l18 63h162h349h160l-19 -63q-124 0 -161 -37q-17 -21 -22 -43q-4 -11 -7 -21q-5 -10 -9 -20l-350 -1086q-2 -4 -9 -39q-7 -22 -7 -34q0 -7 2 -11q5 -14 38 -28
q21 -6 57 -6q15 -3 39 -3l-19 -63h-159h-350h-162l19 63q126 0 160 37q10 9 28 45q4 11 9 19q3 8 7 20l347 1086q5 12 8 22q0 8 2 19q10 12 10 30q0 7 -3 13q-12 22 -42 28q-26 9 -59 9h-37zM833 768l-167 -526q-19 -49 -19 -74q0 -59 83 -64h20q96 0 196 50q111 55 185 157
q70 101 70 228q0 180 -120 219q-68 20 -142 20q-52 0 -106 -10z" />
    <glyph glyph-name="otilde" unicode="&#x42b;" horiz-adv-x="2613" 
d="M868 887q89 12 174 12q165 0 323 -43q228 -65 228 -315v-21q-5 -137 -96 -256q-94 -119 -280 -190q-187 -74 -445 -74h-531h-162l19 63q120 0 162 37q15 23 23 45q10 19 15 39l349 1086q5 12 7 22q3 8 5 19q5 18 5 30q0 9 -3 13q-12 22 -37 28q-26 9 -59 9h-37l18 63h162
h349h160l-20 -63q-128 0 -160 -37q-7 -6 -14 -23q-10 -16 -12 -20q-5 -15 -8 -23q-2 -8 -8 -18zM1919 1391l18 63h162h349h160l-19 -63q-124 0 -161 -37q-17 -21 -22 -43q-4 -11 -7 -21q-5 -10 -9 -20l-350 -1086q-2 -4 -9 -39q-7 -22 -7 -34q0 -7 2 -11q5 -14 38 -28
q21 -6 57 -6q15 -3 39 -3l-19 -63h-159h-350h-162l19 63q126 0 160 37q10 9 28 45q4 11 9 19q3 8 7 20l347 1086q5 12 8 22q0 8 2 19q10 12 10 30q0 7 -3 13q-12 22 -42 28q-26 9 -59 9h-37zM833 768l-167 -526q-19 -49 -19 -74q0 -59 83 -64h20q96 0 196 50q111 55 185 157
q70 101 70 228q0 180 -120 219q-68 20 -142 20q-52 0 -106 -10z" />
    <glyph glyph-name="uacute" unicode="&#xdc;" horiz-adv-x="1684" 
d="M865 881q92 16 195 16h44q127 -4 240 -41q111 -39 180 -123q61 -78 61 -188v-25q-4 -221 -220 -370q-220 -150 -600 -150h-531h-163l20 63q123 0 160 37q17 21 24 45q8 11 11 19q0 8 4 20l349 1086l6 16q4 14 7 25q5 20 5 30q0 9 -3 13q-5 20 -39 28q-22 9 -57 9h-37
l18 63h162h348h161l-21 -63q-127 0 -159 -37q-5 -4 -27 -43q-2 -11 -6 -21t-9 -20zM826 768l-167 -526q-17 -64 -17 -74q0 -57 81 -64h19q96 0 197 50q110 55 184 157q71 101 71 228q0 180 -120 219q-68 20 -143 20q-51 0 -105 -10z" />
    <glyph glyph-name="uacute" unicode="&#x42c;" horiz-adv-x="1684" 
d="M865 881q92 16 195 16h44q127 -4 240 -41q111 -39 180 -123q61 -78 61 -188v-25q-4 -221 -220 -370q-220 -150 -600 -150h-531h-163l20 63q123 0 160 37q17 21 24 45q8 11 11 19q0 8 4 20l349 1086l6 16q4 14 7 25q5 20 5 30q0 9 -3 13q-5 20 -39 28q-22 9 -57 9h-37
l18 63h162h348h161l-21 -63q-127 0 -159 -37q-5 -4 -27 -43q-2 -11 -6 -21t-9 -20zM826 768l-167 -526q-17 -64 -17 -74q0 -57 81 -64h19q96 0 197 50q110 55 184 157q71 101 71 228q0 180 -120 219q-68 20 -143 20q-51 0 -105 -10z" />
    <glyph glyph-name="ugrave" unicode="&#xdd;" horiz-adv-x="1797" 
d="M49 123l99 311h86q17 -143 113 -250q96 -106 265 -106q172 6 297.5 107.5t199.5 232.5q73 129 155 315q-150 -98 -246 -98h-21q-24 2 -94 29q-28 14 -50 26q-22 10 -62 31q-43 24 -71 31h-14q-82 0 -212 -93l-62 72q222 184 352 191q77 0 165 -48q29 -16 52 -28
q19 -12 31 -21q49 -24 96 -26q10 0 19 2q82 8 171 88q26 117 26 203q0 112 -47 172q-85 104 -204 114q-14 2 -28 2q-113 0 -244 -63q-152 -72 -275 -232h-103l101 310q305 88 530 88h40q204 0 395 -99q189 -98 192 -387v-12q0 -160 -74 -340q-79 -186 -218.5 -338.5
t-336.5 -244t-433 -91.5q-320 0 -590 152z" />
    <glyph glyph-name="ugrave" unicode="&#x42d;" horiz-adv-x="1797" 
d="M49 123l99 311h86q17 -143 113 -250q96 -106 265 -106q172 6 297.5 107.5t199.5 232.5q73 129 155 315q-150 -98 -246 -98h-21q-24 2 -94 29q-28 14 -50 26q-22 10 -62 31q-43 24 -71 31h-14q-82 0 -212 -93l-62 72q222 184 352 191q77 0 165 -48q29 -16 52 -28
q19 -12 31 -21q49 -24 96 -26q10 0 19 2q82 8 171 88q26 117 26 203q0 112 -47 172q-85 104 -204 114q-14 2 -28 2q-113 0 -244 -63q-152 -72 -275 -232h-103l101 310q305 88 530 88h40q204 0 395 -99q189 -98 192 -387v-12q0 -160 -74 -340q-79 -186 -218.5 -338.5
t-336.5 -244t-433 -91.5q-320 0 -590 152z" />
    <glyph glyph-name="ucircumflex" unicode="&#xde;" horiz-adv-x="2772" 
d="M846 854h179q133 297 398 467q251 162 563 162h29q199 -2 347 -74q148 -74 229 -199q78 -127 78 -288q0 -177 -78 -347q-79 -172 -222 -309q-145 -137 -333 -215q-190 -80 -394 -80q-275 0 -469.5 139.5t-208.5 395.5v16q0 105 26 217h-179l-180 -555q-4 -12 -4 -18
q-3 -8 -8 -21q-4 -20 -4 -34v-11q14 -18 39 -28q15 -2 31 -4q18 -2 26 -5h37l-21 -63h-157h-347h-155l23 63q120 0 153 37q16 21 24 45q7 11 9 19q0 8 6 20l348 1086q3 10 8 20q3 10 3 19q7 20 7 32q0 9 -2 13q-5 14 -40 28q-7 2 -51 9h-40l23 63h155h348h152l-19 -63
q-120 0 -157 -37q-7 -13 -10 -23q-5 -12 -13 -22q-2 -11 -5 -19q-5 -10 -9 -20zM1354 532q-10 -73 -10 -133q0 -51 7 -90q50 -237 296 -237q138 0 263 106q123 107 217 283q92 174 137 358q27 119 27 217q0 51 -7 97q-11 90 -70 165q-58 76 -199 84h-19q-136 0 -263 -96
q-138 -106 -239 -301q-101 -194 -140 -453z" />
    <glyph glyph-name="ucircumflex" unicode="&#x42e;" horiz-adv-x="2772" 
d="M846 854h179q133 297 398 467q251 162 563 162h29q199 -2 347 -74q148 -74 229 -199q78 -127 78 -288q0 -177 -78 -347q-79 -172 -222 -309q-145 -137 -333 -215q-190 -80 -394 -80q-275 0 -469.5 139.5t-208.5 395.5v16q0 105 26 217h-179l-180 -555q-4 -12 -4 -18
q-3 -8 -8 -21q-4 -20 -4 -34v-11q14 -18 39 -28q15 -2 31 -4q18 -2 26 -5h37l-21 -63h-157h-347h-155l23 63q120 0 153 37q16 21 24 45q7 11 9 19q0 8 6 20l348 1086q3 10 8 20q3 10 3 19q7 20 7 32q0 9 -2 13q-5 14 -40 28q-7 2 -51 9h-40l23 63h155h348h152l-19 -63
q-120 0 -157 -37q-7 -13 -10 -23q-5 -12 -13 -22q-2 -11 -5 -19q-5 -10 -9 -20zM1354 532q-10 -73 -10 -133q0 -51 7 -90q50 -237 296 -237q138 0 263 106q123 107 217 283q92 174 137 358q27 119 27 217q0 51 -7 97q-11 90 -70 165q-58 76 -199 84h-19q-136 0 -263 -96
q-138 -106 -239 -301q-101 -194 -140 -453z" />
    <glyph glyph-name="udieresis" unicode="&#xdf;" horiz-adv-x="1902" 
d="M-2 -180l-5 121q169 102 354 321q183 219 268 408q-305 71 -305 307v4q0 201 159 305q160 107 347 137q185 31 310 31h570h162l-24 -59q-118 0 -157 -39q-14 -15 -23 -41q-3 -8 -7 -21q-5 -12 -8 -20l-354 -1094l-7 -37q-2 -24 -2 -34v-9q5 -22 37 -28q10 -2 59 -9h33
l-19 -63h-157h-349h-157l19 63q123 0 158 37q12 11 27 43q4 19 14 37l145 457h-122q-155 -254 -340 -426q-186 -174 -344 -262q-160 -88 -282 -129zM1128 768l157 492q5 18 5 32q0 49 -66 54q-27 2 -54 2q-145 0 -248 -58q-125 -67 -177 -174q-37 -74 -37 -141q0 -29 7 -57
q35 -158 270 -158q77 0 143 8z" />
    <glyph glyph-name="udieresis" unicode="&#x42f;" horiz-adv-x="1902" 
d="M-2 -180l-5 121q169 102 354 321q183 219 268 408q-305 71 -305 307v4q0 201 159 305q160 107 347 137q185 31 310 31h570h162l-24 -59q-118 0 -157 -39q-14 -15 -23 -41q-3 -8 -7 -21q-5 -12 -8 -20l-354 -1094l-7 -37q-2 -24 -2 -34v-9q5 -22 37 -28q10 -2 59 -9h33
l-19 -63h-157h-349h-157l19 63q123 0 158 37q12 11 27 43q4 19 14 37l145 457h-122q-155 -254 -340 -426q-186 -174 -344 -262q-160 -88 -282 -129zM1128 768l157 492q5 18 5 32q0 49 -66 54q-27 2 -54 2q-145 0 -248 -58q-125 -67 -177 -174q-37 -74 -37 -141q0 -29 7 -57
q35 -158 270 -158q77 0 143 8z" />
    <glyph glyph-name="daggerdbl" unicode="&#xe0;" horiz-adv-x="1414" 
d="M1290 961l-267 -789q-12 -35 -12 -55q0 -41 38 -41h11q83 0 223 170l64 -37q-182 -234 -398 -234q-199 11 -207 168q-219 -166 -393 -166q-14 0 -30 3q-204 10 -233 204q-2 21 -2 41q0 92 43 203q53 135 156 264q100 129 231 211q131 80 267 82h21q150 0 221 -88
q16 -25 30 -33t24 -8q4 0 7 2q51 2 84 103h122zM949 752v20q0 51 -32 90q-42 45 -98 49q-10 2 -20 2q-93 0 -182 -112q-101 -125 -167 -299q-70 -176 -70 -271v-4q0 -118 96 -127h11q64 0 147 47q91 50 155 123z" />
    <glyph glyph-name="daggerdbl" unicode="&#x430;" horiz-adv-x="1414" 
d="M1290 961l-267 -789q-12 -35 -12 -55q0 -41 38 -41h11q83 0 223 170l64 -37q-182 -234 -398 -234q-199 11 -207 168q-219 -166 -393 -166q-14 0 -30 3q-204 10 -233 204q-2 21 -2 41q0 92 43 203q53 135 156 264q100 129 231 211q131 80 267 82h21q150 0 221 -88
q16 -25 30 -33t24 -8q4 0 7 2q51 2 84 103h122zM949 752v20q0 51 -32 90q-42 45 -98 49q-10 2 -20 2q-93 0 -182 -112q-101 -125 -167 -299q-70 -176 -70 -271v-4q0 -118 96 -127h11q64 0 147 47q91 50 155 123z" />
    <glyph glyph-name="periodcentered" unicode="&#xe1;" horiz-adv-x="1414" 
d="M1293 1509h79q-3 -166 -111 -227q-111 -61 -271 -86q-68 -8 -120 -14q-54 -8 -81 -15q-155 -24 -263 -102q-111 -80 -160 -164q-37 -65 -37 -96q0 -8 2 -14q0 -9 13 -13q3 -2 8 -2q9 0 19 12q27 13 51 35q23 23 45 41q51 49 150 90q82 33 192 33q24 0 49 -2
q139 -6 240 -59q101 -56 150 -146q42 -80 42 -180v-29q-9 -178 -115 -315q-106 -139 -268 -211q-152 -65 -314 -65h-30q-148 6 -237 51q-87 45 -134 110q-49 66 -61 123q-16 58 -18 76q-3 29 -3 57q0 140 50 285q58 176 176.5 334t285.5 264t349 121q56 4 86 6q27 2 81 10
q86 10 119 37q14 10 28 43zM460 592q-71 -189 -80 -332q0 -174 150 -203q21 -4 42 -4q70 0 146 41q98 53 180 191q78 135 110 346q5 37 5 69q0 197 -182 211h-10q-89 0 -185 -59q-103 -64 -176 -260z" />
    <glyph glyph-name="periodcentered" unicode="&#x431;" horiz-adv-x="1414" 
d="M1293 1509h79q-3 -166 -111 -227q-111 -61 -271 -86q-68 -8 -120 -14q-54 -8 -81 -15q-155 -24 -263 -102q-111 -80 -160 -164q-37 -65 -37 -96q0 -8 2 -14q0 -9 13 -13q3 -2 8 -2q9 0 19 12q27 13 51 35q23 23 45 41q51 49 150 90q82 33 192 33q24 0 49 -2
q139 -6 240 -59q101 -56 150 -146q42 -80 42 -180v-29q-9 -178 -115 -315q-106 -139 -268 -211q-152 -65 -314 -65h-30q-148 6 -237 51q-87 45 -134 110q-49 66 -61 123q-16 58 -18 76q-3 29 -3 57q0 140 50 285q58 176 176.5 334t285.5 264t349 121q56 4 86 6q27 2 81 10
q86 10 119 37q14 10 28 43zM460 592q-71 -189 -80 -332q0 -174 150 -203q21 -4 42 -4q70 0 146 41q98 53 180 191q78 135 110 346q5 37 5 69q0 197 -182 211h-10q-89 0 -185 -59q-103 -64 -176 -260z" />
    <glyph glyph-name="quotesinglbase" unicode="&#xe2;" 
d="M826 539q115 -4 213 -56q94 -49 94 -153v-4q-5 -129 -162 -242q-148 -104 -411 -104h-39q-423 14 -423 202q0 72 20 127l103 316q35 102 133 186t227.5 127t256.5 47h32q165 0 253 -59q94 -66 94 -142v-4q0 -162 -391 -241zM469 549q263 24 364 94t108 137v11q0 20 -7 45
q-10 30 -45 53q-33 20 -82 22h-10q-107 0 -202 -88q-101 -94 -126 -274zM448 475l-89 -266q-7 -21 -7 -39q0 -43 37 -74q51 -45 141 -49h5q153 0 237 125q63 92 63 168q0 29 -9 55q-31 97 -184 97h-35q-91 0 -159 -17z" />
    <glyph glyph-name="quotesinglbase" unicode="&#x432;" 
d="M826 539q115 -4 213 -56q94 -49 94 -153v-4q-5 -129 -162 -242q-148 -104 -411 -104h-39q-423 14 -423 202q0 72 20 127l103 316q35 102 133 186t227.5 127t256.5 47h32q165 0 253 -59q94 -66 94 -142v-4q0 -162 -391 -241zM469 549q263 24 364 94t108 137v11q0 20 -7 45
q-10 30 -45 53q-33 20 -82 22h-10q-107 0 -202 -88q-101 -94 -126 -274zM448 475l-89 -266q-7 -21 -7 -39q0 -43 37 -74q51 -45 141 -49h5q153 0 237 125q63 92 63 168q0 29 -9 55q-31 97 -184 97h-35q-91 0 -159 -17z" />
    <glyph glyph-name="quotedblbase" unicode="&#xe3;" horiz-adv-x="1086" 
d="M885 287l69 -51q-239 -259 -514 -259q-20 0 -39 3q-155 6 -241 71q-89 64 -89 166v8q0 125 89 191q88 67 194 96q40 12 66 20q25 9 54 17q89 26 168 82q69 49 69 143v21q-3 77 -87 88h-14q-106 0 -305 -146l-61 51q213 197 467 197q145 0 223 -59q79 -62 84 -146v-8
q0 -154 -263 -237q-25 -7 -143 -43q-206 -72 -234 -222q-2 -18 -2 -34q0 -52 34 -86q45 -46 120 -46q47 0 82 11q73 18 148 65q73 47 125 107z" />
    <glyph glyph-name="quotedblbase" unicode="&#x433;" horiz-adv-x="1086" 
d="M885 287l69 -51q-239 -259 -514 -259q-20 0 -39 3q-155 6 -241 71q-89 64 -89 166v8q0 125 89 191q88 67 194 96q40 12 66 20q25 9 54 17q89 26 168 82q69 49 69 143v21q-3 77 -87 88h-14q-106 0 -305 -146l-61 51q213 197 467 197q145 0 223 -59q79 -62 84 -146v-8
q0 -154 -263 -237q-25 -7 -143 -43q-206 -72 -234 -222q-2 -18 -2 -34q0 -52 34 -86q45 -46 120 -46q47 0 82 11q73 18 148 65q73 47 125 107z" />
    <glyph glyph-name="perthousand" unicode="&#xe4;" horiz-adv-x="1414" 
d="M570 1305l-42 67q79 45 197 76q96 25 169 25q18 0 33 -3q105 -4 206 -55q98 -53 162 -176q49 -96 49 -233q0 -39 -5 -80q-9 -144 -54.5 -301.5t-139.5 -305.5q-96 -147 -247 -243q-156 -96 -368 -96q-204 0 -326 98q-125 98 -133 266v21q0 170 103 309q112 149 283 233
q158 78 300 78h20q105 -2 180 -51q70 -51 100 -125q52 139 52 258q0 43 -7 82q-25 184 -210 217q-29 6 -64 6q-44 0 -93 -10q-88 -19 -165 -57zM434 578q-66 -142 -82 -285q-3 -25 -3 -49q-1 -8 -1 -16q0 -19 4 -38q19 -116 129 -147q23 -6 47 -6q67 0 136 43
q93 57 170.5 167.5t117.5 246.5q24 86 24 163q0 45 -7 88q-26 144 -150 158q-15 2 -30 2q-62 0 -144 -45q-106 -59 -211 -282z" />
    <glyph glyph-name="perthousand" unicode="&#x434;" horiz-adv-x="1414" 
d="M570 1305l-42 67q79 45 197 76q96 25 169 25q18 0 33 -3q105 -4 206 -55q98 -53 162 -176q49 -96 49 -233q0 -39 -5 -80q-9 -144 -54.5 -301.5t-139.5 -305.5q-96 -147 -247 -243q-156 -96 -368 -96q-204 0 -326 98q-125 98 -133 266v21q0 170 103 309q112 149 283 233
q158 78 300 78h20q105 -2 180 -51q70 -51 100 -125q52 139 52 258q0 43 -7 82q-25 184 -210 217q-29 6 -64 6q-44 0 -93 -10q-88 -19 -165 -57zM434 578q-66 -142 -82 -285q-3 -25 -3 -49q-1 -8 -1 -16q0 -19 4 -38q19 -116 129 -147q23 -6 47 -6q67 0 136 43
q93 57 170.5 167.5t117.5 246.5q24 86 24 163q0 45 -7 88q-26 144 -150 158q-15 2 -30 2q-62 0 -144 -45q-106 -59 -211 -282z" />
    <glyph glyph-name="Acircumflex" unicode="&#xe5;" horiz-adv-x="1251" 
d="M957 266l61 -43q-87 -100 -227 -174q-130 -69 -292 -69h-25q-223 6 -294 100q-70 88 -70 194v15q3 166 106 331.5t271 268.5q155 96 324 96h20q105 -2 177 -33q69 -30 101 -73q31 -45 36 -95v-8q0 -127 -179 -231q-189 -109 -532 -125q-14 -64 -14 -115q0 -209 195 -209
q16 0 37 2q145 17 305 168zM460 506q145 6 258 60.5t167 127.5q39 54 39 97q0 14 -5 26q-7 35 -49 62q-35 20 -84 20q-12 0 -24 -2q-93 -10 -178 -104q-82 -95 -124 -287z" />
    <glyph glyph-name="Acircumflex" unicode="&#x435;" horiz-adv-x="1251" 
d="M957 266l61 -43q-87 -100 -227 -174q-130 -69 -292 -69h-25q-223 6 -294 100q-70 88 -70 194v15q3 166 106 331.5t271 268.5q155 96 324 96h20q105 -2 177 -33q69 -30 101 -73q31 -45 36 -95v-8q0 -127 -179 -231q-189 -109 -532 -125q-14 -64 -14 -115q0 -209 195 -209
q16 0 37 2q145 17 305 168zM460 506q145 6 258 60.5t167 127.5q39 54 39 97q0 14 -5 26q-7 35 -49 62q-35 20 -84 20q-12 0 -24 -2q-93 -10 -178 -104q-82 -95 -124 -287z" />
    <glyph glyph-name="Ecircumflex" unicode="&#xe6;" horiz-adv-x="2121" 
d="M1032 963h239l-126 -392h157q77 183 222 299q143 115 282 115q126 0 254 -67l-76 -236h-82q0 106 -37 158q-38 49 -85 53h-10q-60 0 -131 -92q-79 -101 -127 -256q-49 -150 -49 -287v-12q7 -123 76 -148q16 -6 34 -6q113 0 292 217l70 -49q-232 -280 -446 -280h-19
q-116 6 -185 71q-68 64 -70 174q0 119 56 252h-152l-158 -477h-238l162 477h-150q-57 -180 -207 -338q-150 -157 -338 -159h-23q-83 0 -167 26l17 270h67q41 -182 139 -200q11 -2 21 -2q66 0 129 92q72 102 119 264q47 160 47 285q0 116 -91 137q-14 2 -28 2
q-120 0 -282 -211l-70 43q222 299 462 299h21q194 -10 228 -145q16 -56 16 -111q0 -80 -30 -158h147z" />
    <glyph glyph-name="Ecircumflex" unicode="&#x436;" horiz-adv-x="2121" 
d="M1032 963h239l-126 -392h157q77 183 222 299q143 115 282 115q126 0 254 -67l-76 -236h-82q0 106 -37 158q-38 49 -85 53h-10q-60 0 -131 -92q-79 -101 -127 -256q-49 -150 -49 -287v-12q7 -123 76 -148q16 -6 34 -6q113 0 292 217l70 -49q-232 -280 -446 -280h-19
q-116 6 -185 71q-68 64 -70 174q0 119 56 252h-152l-158 -477h-238l162 477h-150q-57 -180 -207 -338q-150 -157 -338 -159h-23q-83 0 -167 26l17 270h67q41 -182 139 -200q11 -2 21 -2q66 0 129 92q72 102 119 264q47 160 47 285q0 116 -91 137q-14 2 -28 2
q-120 0 -282 -211l-70 43q222 299 462 299h21q194 -10 228 -145q16 -56 16 -111q0 -80 -30 -158h147z" />
    <glyph glyph-name="Aacute" unicode="&#xe7;" horiz-adv-x="1194" 
d="M406 487l21 76q40 -2 75 -2q132 0 221 31q108 39 117 158q3 12 3 24q0 57 -39 96q-44 41 -119 41h-19q-164 -8 -342 -239h-108l74 237q231 78 423 78q22 0 44 -2q182 -6 258 -63q74 -60 92 -127q4 -19 4 -37q0 -53 -39 -115q-57 -86 -268 -117q160 -32 204 -108
q29 -51 29 -107q0 -28 -7 -57q-33 -119 -169 -199q-129 -75 -359 -75h-35q-235 2 -399 90l42 280h111q11 -299 248 -303h5q136 0 204 100q61 89 61 168q0 15 -2 29q-10 105 -118 131q-71 17 -140 17q-36 0 -73 -5z" />
    <glyph glyph-name="Aacute" unicode="&#x437;" horiz-adv-x="1194" 
d="M406 487l21 76q40 -2 75 -2q132 0 221 31q108 39 117 158q3 12 3 24q0 57 -39 96q-44 41 -119 41h-19q-164 -8 -342 -239h-108l74 237q231 78 423 78q22 0 44 -2q182 -6 258 -63q74 -60 92 -127q4 -19 4 -37q0 -53 -39 -115q-57 -86 -268 -117q160 -32 204 -108
q29 -51 29 -107q0 -28 -7 -57q-33 -119 -169 -199q-129 -75 -359 -75h-35q-235 2 -399 90l42 280h111q11 -299 248 -303h5q136 0 204 100q61 89 61 168q0 15 -2 29q-10 105 -118 131q-71 17 -140 17q-36 0 -73 -5z" />
    <glyph glyph-name="Edieresis" unicode="&#xe8;" horiz-adv-x="1414" 
d="M1302 963l-245 -768q-15 -56 -15 -68q0 -18 11 -27q4 -6 16 -6t33 6q48 17 99 62q58 47 84 74l59 -46q-191 -210 -366 -210h-21q-158 2 -176 124q-2 13 -2 27q0 53 37 129q-21 -16 -61 -49t-61 -49q-82 -68 -124 -96q-118 -78 -230 -86h-16q-76 0 -127 34q-59 37 -59 117
q0 45 17 100l147 461q8 19 8 33q0 39 -59 47q-30 0 -45 2h-34l18 66h19q216 0 335 145h122l-241 -754q-12 -41 -12 -49q0 -57 49 -57q10 0 19 2q70 18 192 111q28 20 50 38q19 17 54 41q56 41 63 52q18 24 21 43l176 551h265z" />
    <glyph glyph-name="Edieresis" unicode="&#x438;" horiz-adv-x="1414" 
d="M1302 963l-245 -768q-15 -56 -15 -68q0 -18 11 -27q4 -6 16 -6t33 6q48 17 99 62q58 47 84 74l59 -46q-191 -210 -366 -210h-21q-158 2 -176 124q-2 13 -2 27q0 53 37 129q-21 -16 -61 -49t-61 -49q-82 -68 -124 -96q-118 -78 -230 -86h-16q-76 0 -127 34q-59 37 -59 117
q0 45 17 100l147 461q8 19 8 33q0 39 -59 47q-30 0 -45 2h-34l18 66h19q216 0 335 145h122l-241 -754q-12 -41 -12 -49q0 -57 49 -57q10 0 19 2q70 18 192 111q28 20 50 38q19 17 54 41q56 41 63 52q18 24 21 43l176 551h265z" />
    <glyph glyph-name="Egrave" unicode="&#xe9;" horiz-adv-x="1414" 
d="M1302 963l-245 -768q-2 -11 -4 -21q-6 -12 -9 -24q-2 -13 -5 -25q0 -16 10 -25q8 -6 20 -6t33 6q43 15 99 62q58 47 84 74l59 -46q-197 -210 -368 -210h-19q-158 2 -176 124q-2 9 -2 21q0 47 32 135q-175 -154 -276 -213q-103 -61 -195 -67h-16q-76 0 -127 34
q-59 37 -59 117q0 45 17 100l147 461q5 19 5 37v12q-5 23 -56 31q-30 0 -45 2h-34l18 66h19q221 0 335 145h122l-246 -754q-10 -32 -10 -49q0 -57 52 -57q10 0 19 2q70 18 192 111q17 14 35 28q15 13 29 25q16 10 40 26q49 37 61 52q5 6 23 43l176 551h265zM1241 1454h96
q-47 -174 -174 -256q-119 -76 -236 -76h-20q-108 6 -168 66q-51 53 -51 112v17q8 61 62 98q45 31 99 31h19q61 -2 96 -37q26 -31 26 -66q0 -8 -2 -16q-7 -37 -54 -61q-15 -13 -15 -15v-4q0 -10 22 -18q18 -8 35 -8q12 0 27 4q86 22 137 75q49 52 101 154z" />
    <glyph glyph-name="Egrave" unicode="&#x439;" horiz-adv-x="1414" 
d="M1302 963l-245 -768q-2 -11 -4 -21q-6 -12 -9 -24q-2 -13 -5 -25q0 -16 10 -25q8 -6 20 -6t33 6q43 15 99 62q58 47 84 74l59 -46q-197 -210 -368 -210h-19q-158 2 -176 124q-2 9 -2 21q0 47 32 135q-175 -154 -276 -213q-103 -61 -195 -67h-16q-76 0 -127 34
q-59 37 -59 117q0 45 17 100l147 461q5 19 5 37v12q-5 23 -56 31q-30 0 -45 2h-34l18 66h19q221 0 335 145h122l-246 -754q-10 -32 -10 -49q0 -57 52 -57q10 0 19 2q70 18 192 111q17 14 35 28q15 13 29 25q16 10 40 26q49 37 61 52q5 6 23 43l176 551h265zM1241 1454h96
q-47 -174 -174 -256q-119 -76 -236 -76h-20q-108 6 -168 66q-51 53 -51 112v17q8 61 62 98q45 31 99 31h19q61 -2 96 -37q26 -31 26 -66q0 -8 -2 -16q-7 -37 -54 -61q-15 -13 -15 -15v-4q0 -10 22 -18q18 -8 35 -8q12 0 27 4q86 22 137 75q49 52 101 154z" />
    <glyph glyph-name="Iacute" unicode="&#xea;" horiz-adv-x="1414" 
d="M539 578q17 -3 33 -3q99 0 185 82q42 43 83 109q166 219 340 219q89 0 131 -37q40 -39 40 -88q0 -47 -36 -76q-37 -28 -91 -28h-7q-42 0 -96 32q-12 3 -28 15q-36 16 -40 16q-23 0 -50 -22.5t-46 -59.5q-16 -20 -26 -32q-9 -13 -24 -33q-9 -10 -25.5 -29.5t-35.5 -40.5
q-51 -45 -91 -53q-37 -12 -40 -17q0 -2 66 -20q141 -41 200 -305q4 -31 16 -51q23 -27 35 -33q7 -2 15 -2q69 0 201 166l72 -35q-189 -270 -391 -272h-10q-63 0 -103 28q-44 29 -61 68q-18 37 -54 149q-16 49 -49 144q-50 112 -136 129l-162 -498h-263l221 688q5 12 5 25
q0 16 -10 30q-17 23 -51 25q-15 4 -47 4h-35l20 64q228 0 350 149h129z" />
    <glyph glyph-name="Iacute" unicode="&#x43a;" horiz-adv-x="1414" 
d="M539 578q17 -3 33 -3q99 0 185 82q42 43 83 109q166 219 340 219q89 0 131 -37q40 -39 40 -88q0 -47 -36 -76q-37 -28 -91 -28h-7q-42 0 -96 32q-12 3 -28 15q-36 16 -40 16q-23 0 -50 -22.5t-46 -59.5q-16 -20 -26 -32q-9 -13 -24 -33q-9 -10 -25.5 -29.5t-35.5 -40.5
q-51 -45 -91 -53q-37 -12 -40 -17q0 -2 66 -20q141 -41 200 -305q4 -31 16 -51q23 -27 35 -33q7 -2 15 -2q69 0 201 166l72 -35q-189 -270 -391 -272h-10q-63 0 -103 28q-44 29 -61 68q-18 37 -54 149q-16 49 -49 144q-50 112 -136 129l-162 -498h-263l221 688q5 12 5 25
q0 16 -10 30q-17 23 -51 25q-15 4 -47 4h-35l20 64q228 0 350 149h129z" />
    <glyph glyph-name="Icircumflex" unicode="&#xeb;" horiz-adv-x="1524" 
d="M1381 236l59 -50q-189 -206 -368 -206h-15q-168 0 -177 120v9q0 32 14 100q6 14 11 27q2 12 7 26q5 12 7 25l148 469q17 32 17 63q-7 58 -73 64q-16 2 -30 2q-52 0 -92 -33q-54 -45 -87 -109q-37 -65 -87 -172q-73 -155 -88 -180q-109 -215 -197 -313q-86 -98 -204 -98
h-5q-69 0 -115 32q-47 33 -47 88q0 54 37 93q35 36 98 43h20q27 0 61 -5q37 -8 60 -8q9 0 17 2q66 0 157 178q21 46 42 82q17 37 47 99q78 164 139 245q62 82 148 123q74 33 175 33h33q192 -6 227 -88q19 -45 19 -92q0 -41 -14 -82l-172 -533q-13 -34 -13 -55q0 -43 40 -43
q9 0 21 2q42 15 96 64q80 69 84 78z" />
    <glyph glyph-name="Icircumflex" unicode="&#x43b;" horiz-adv-x="1524" 
d="M1381 236l59 -50q-189 -206 -368 -206h-15q-168 0 -177 120v9q0 32 14 100q6 14 11 27q2 12 7 26q5 12 7 25l148 469q17 32 17 63q-7 58 -73 64q-16 2 -30 2q-52 0 -92 -33q-54 -45 -87 -109q-37 -65 -87 -172q-73 -155 -88 -180q-109 -215 -197 -313q-86 -98 -204 -98
h-5q-69 0 -115 32q-47 33 -47 88q0 54 37 93q35 36 98 43h20q27 0 61 -5q37 -8 60 -8q9 0 17 2q66 0 157 178q21 46 42 82q17 37 47 99q78 164 139 245q62 82 148 123q74 33 175 33h33q192 -6 227 -88q19 -45 19 -92q0 -41 -14 -82l-172 -533q-13 -34 -13 -55q0 -43 40 -43
q9 0 21 2q42 15 96 64q80 69 84 78z" />
    <glyph glyph-name="Idieresis" unicode="&#xec;" horiz-adv-x="1848" 
d="M969 356l478 607h303l-249 -768q-14 -56 -14 -68q0 -18 10 -27q7 -6 20 -6q14 0 34 6q42 15 98 62q74 61 86 74l57 -46q-118 -129 -223 -172q-94 -38 -148 -38h-16q-169 2 -176 120v15q0 51 40 174l164 508l-600 -797h-85l-6 797q-7 -23 -17 -49q-12 -29 -22 -56
q-15 -43 -32 -92q-19 -51 -32 -80q-91 -209 -135 -297q-44 -90 -126 -168q-80 -75 -191 -75h-5q-76 0 -128 34q-54 35 -54 107q2 59 47 94q44 33 108 33q37 0 54 -10l59 -19q4 -2 12 -2q57 0 130 105q80 112 136 256q47 118 47 167q0 9 -3 15q-13 39 -91 39q-20 0 -44 -2
l21 63q104 0 197 33q94 31 167 92h129v-629z" />
    <glyph glyph-name="Idieresis" unicode="&#x43c;" horiz-adv-x="1848" 
d="M969 356l478 607h303l-249 -768q-14 -56 -14 -68q0 -18 10 -27q7 -6 20 -6q14 0 34 6q42 15 98 62q74 61 86 74l57 -46q-118 -129 -223 -172q-94 -38 -148 -38h-16q-169 2 -176 120v15q0 51 40 174l164 508l-600 -797h-85l-6 797q-7 -23 -17 -49q-12 -29 -22 -56
q-15 -43 -32 -92q-19 -51 -32 -80q-91 -209 -135 -297q-44 -90 -126 -168q-80 -75 -191 -75h-5q-76 0 -128 34q-54 35 -54 107q2 59 47 94q44 33 108 33q37 0 54 -10l59 -19q4 -2 12 -2q57 0 130 105q80 112 136 256q47 118 47 167q0 9 -3 15q-13 39 -91 39q-20 0 -44 -2
l21 63q104 0 197 33q94 31 167 92h129v-629z" />
    <glyph glyph-name="Igrave" unicode="&#xed;" horiz-adv-x="1360" 
d="M1269 963l-254 -779q-12 -34 -12 -59q0 -35 32 -35q12 0 30 4q26 8 51 25q22 16 45 33q28 26 46 41q15 14 34 32l52 -45q-179 -200 -371 -200q-165 0 -180 118v8q0 41 39 170l59 193q-61 -55 -129 -55q-26 4 -59 28q-50 31 -68 35q-21 8 -38 8q-11 0 -18 -4
q-47 -14 -68 -86l-129 -395h-263l227 700q3 11 3 21q0 49 -62 59h-42l-14 4h-20l20 62q233 0 336 139h131l-153 -475q104 70 151 70h7q21 0 56 -19q7 -4 22 -12q12 -10 20 -17q31 -16 41 -16h11q47 0 71 51l130 396h266z" />
    <glyph glyph-name="Igrave" unicode="&#x43d;" horiz-adv-x="1360" 
d="M1269 963l-254 -779q-12 -34 -12 -59q0 -35 32 -35q12 0 30 4q26 8 51 25q22 16 45 33q28 26 46 41q15 14 34 32l52 -45q-179 -200 -371 -200q-165 0 -180 118v8q0 41 39 170l59 193q-61 -55 -129 -55q-26 4 -59 28q-50 31 -68 35q-21 8 -38 8q-11 0 -18 -4
q-47 -14 -68 -86l-129 -395h-263l227 700q3 11 3 21q0 49 -62 59h-42l-14 4h-20l20 62q233 0 336 139h131l-153 -475q104 70 151 70h7q21 0 56 -19q7 -4 22 -12q12 -10 20 -17q31 -16 41 -16h11q47 0 71 51l130 396h266z" />
    <glyph glyph-name="Oacute" unicode="&#xee;" horiz-adv-x="1360" 
d="M155 600q66 131 180 221q113 88 247 129q117 35 225 35h33q94 -2 173 -29q76 -26 132 -73t89 -113q32 -68 35 -152v-16q0 -139 -84 -278q-92 -150 -256 -246q-164 -98 -366 -98h-15q-196 0 -320 98q-130 100 -137 266q0 133 64 256zM450 557q-84 -215 -84 -332v-22
q17 -156 185 -156q122 0 228 123q103 123 160 295q46 139 46 244q0 22 -2 43q-14 149 -157 163h-19q-209 0 -357 -358z" />
    <glyph glyph-name="Oacute" unicode="&#x43e;" horiz-adv-x="1360" 
d="M155 600q66 131 180 221q113 88 247 129q117 35 225 35h33q94 -2 173 -29q76 -26 132 -73t89 -113q32 -68 35 -152v-16q0 -139 -84 -278q-92 -150 -256 -246q-164 -98 -366 -98h-15q-196 0 -320 98q-130 100 -137 266q0 133 64 256zM450 557q-84 -215 -84 -332v-22
q17 -156 185 -156q122 0 228 123q103 123 160 295q46 139 46 244q0 22 -2 43q-14 149 -157 163h-19q-209 0 -357 -358z" />
    <glyph glyph-name="Ocircumflex" unicode="&#xef;" horiz-adv-x="1360" 
d="M530 614l-193 -614h-266l224 698q5 4 5 17q0 10 -2 24q-10 31 -57 35q-18 4 -47 4h-30l18 64h5q231 0 336 143h131l-84 -254q37 31 61 51q26 19 54 41q112 82 155 109q94 53 178 53h19q94 0 143 -61q25 -33 25 -82q0 -47 -23 -111l-171 -545q-16 -36 -16 -55
q0 -25 13 -33q5 -6 17 -6t32 6q45 13 96 60q48 39 83 73l57 -47q-108 -121 -209 -164q-94 -40 -160 -40h-9q-155 2 -178 118v11q0 53 40 174l142 448q3 8 8 19q2 8 2 12q7 24 7 51q0 47 -44 47q-41 0 -169 -94q-130 -94 -193 -152z" />
    <glyph glyph-name="Ocircumflex" unicode="&#x43f;" horiz-adv-x="1360" 
d="M530 614l-193 -614h-266l224 698q5 4 5 17q0 10 -2 24q-10 31 -57 35q-18 4 -47 4h-30l18 64h5q231 0 336 143h131l-84 -254q37 31 61 51q26 19 54 41q112 82 155 109q94 53 178 53h19q94 0 143 -61q25 -33 25 -82q0 -47 -23 -111l-171 -545q-16 -36 -16 -55
q0 -25 13 -33q5 -6 17 -6t32 6q45 13 96 60q48 39 83 73l57 -47q-108 -121 -209 -164q-94 -40 -160 -40h-9q-155 2 -178 118v11q0 53 40 174l142 448q3 8 8 19q2 8 2 12q7 24 7 51q0 47 -44 47q-41 0 -169 -94q-130 -94 -193 -152z" />
    <glyph glyph-name="apple" unicode="&#xf0;" horiz-adv-x="1470" 
d="M593 985h137l-49 -145q110 78 192 112q76 33 154 33h10q138 0 239 -96q91 -88 91 -236v-28q-11 -189 -114 -338q-106 -152 -256 -232q-139 -75 -282 -75h-19q-145 4 -253 112l-175 -538h-266l369 1140q5 15 5 27q0 37 -45 47q-21 4 -56 4q-36 4 -39 6l20 53q115 0 189 37
q71 35 148 117zM502 283q-10 -31 -10 -62q0 -78 61 -123q52 -41 118 -41h17q107 6 198.5 127t143.5 287q42 143 42 240v26q0 47 -23 92q-24 43 -88 52q-15 2 -30 2q-75 0 -171 -70q-115 -84 -145 -178z" />
    <glyph glyph-name="apple" unicode="&#x440;" horiz-adv-x="1470" 
d="M593 985h137l-49 -145q110 78 192 112q76 33 154 33h10q138 0 239 -96q91 -88 91 -236v-28q-11 -189 -114 -338q-106 -152 -256 -232q-139 -75 -282 -75h-19q-145 4 -253 112l-175 -538h-266l369 1140q5 15 5 27q0 37 -45 47q-21 4 -56 4q-36 4 -39 6l20 53q115 0 189 37
q71 35 148 117zM502 283q-10 -31 -10 -62q0 -78 61 -123q52 -41 118 -41h17q107 6 198.5 127t143.5 287q42 143 42 240v26q0 47 -23 92q-24 43 -88 52q-15 2 -30 2q-75 0 -171 -70q-115 -84 -145 -178z" />
    <glyph glyph-name="Ograve" unicode="&#xf1;" horiz-adv-x="1140" 
d="M1086 889l-75 -236h-99v35q0 201 -131 215q-9 2 -19 2q-89 0 -180 -119q-101 -131 -157 -313q-42 -131 -42 -219q0 -37 8 -68q24 -104 137 -104h5q145 0 361 207l70 -47q-138 -148 -263.5 -203t-266.5 -59h-24q-199 0 -260 94q-64 100 -64 192q3 187 101 355
q96 167 258 270q150 94 317 94h19q143 -4 305 -96z" />
    <glyph glyph-name="Ograve" unicode="&#x441;" horiz-adv-x="1140" 
d="M1086 889l-75 -236h-99v35q0 201 -131 215q-9 2 -19 2q-89 0 -180 -119q-101 -131 -157 -313q-42 -131 -42 -219q0 -37 8 -68q24 -104 137 -104h5q145 0 361 207l70 -47q-138 -148 -263.5 -203t-266.5 -59h-24q-199 0 -260 94q-64 100 -64 192q3 187 101 355
q96 167 258 270q150 94 317 94h19q143 -4 305 -96z" />
    <glyph glyph-name="Uacute" unicode="&#xf2;" horiz-adv-x="1956" 
d="M523 614l-194 -614h-265l222 698q7 19 7 31q0 37 -59 45q-18 4 -47 4h-32l19 64h6q226 0 336 143h131l-84 -254q37 31 56 47q20 15 57 45q131 92 157 109q98 53 185 53h12q96 -2 133 -47q34 -45 34 -102q-3 -60 -22 -105q78 62 115 92q108 82 157 109q101 53 185 53h10
q93 0 143 -61q26 -35 26 -88q0 -45 -19 -105l-177 -545q-15 -36 -15 -55q0 -25 12 -33q6 -4 18 -4h6q11 -1 25 4q44 13 96 60q59 41 84 73l59 -47q-115 -125 -214 -166q-91 -38 -155 -38h-12q-154 2 -175 118q-2 8 -2 19q0 49 39 166l148 448q0 17 7 31q7 49 7 51
q0 47 -46 47q-40 0 -160 -88q-125 -92 -197 -158l-194 -614h-270l236 731q3 8 7 19q3 8 3 12q7 24 7 51q0 47 -44 47h-3q-78 0 -359 -246z" />
    <glyph glyph-name="Uacute" unicode="&#x442;" horiz-adv-x="1956" 
d="M523 614l-194 -614h-265l222 698q7 19 7 31q0 37 -59 45q-18 4 -47 4h-32l19 64h6q226 0 336 143h131l-84 -254q37 31 56 47q20 15 57 45q131 92 157 109q98 53 185 53h12q96 -2 133 -47q34 -45 34 -102q-3 -60 -22 -105q78 62 115 92q108 82 157 109q101 53 185 53h10
q93 0 143 -61q26 -35 26 -88q0 -45 -19 -105l-177 -545q-15 -36 -15 -55q0 -25 12 -33q6 -4 18 -4h6q11 -1 25 4q44 13 96 60q59 41 84 73l59 -47q-115 -125 -214 -166q-91 -38 -155 -38h-12q-154 2 -175 118q-2 8 -2 19q0 49 39 166l148 448q0 17 7 31q7 49 7 51
q0 47 -46 47q-40 0 -160 -88q-125 -92 -197 -158l-194 -614h-270l236 731q3 8 7 19q3 8 3 12q7 24 7 51q0 47 -44 47h-3q-78 0 -359 -246z" />
    <glyph glyph-name="Ucircumflex" unicode="&#xf3;" horiz-adv-x="1360" 
d="M1293 963l-278 -863q-79 -239 -226 -383q-147 -143 -398 -157q-27 -2 -51 -2q-112 0 -188 30q-96 37 -108 95q-2 10 -2 18q0 18 10 37q14 26 44 43q22 12 49 12h15q61 0 100 -51q8 -8 12 -16q5 -11 11 -21q27 -41 54 -59q24 -19 76 -19q110 2 189 125q76 121 125 268
l64 199q-312 -239 -454 -239q-187 0 -187 129q0 61 17 116l152 469q5 13 5 25q0 16 -10 31q-16 22 -51 24h-47l-14 4h-20l24 62q232 0 345 145h125l-244 -766q-7 -37 -7 -55v-6q0 -8 7 -19q6 -10 16 -16q12 -8 46 -8q64 8 200 116q134 109 157 164l179 568h263z" />
    <glyph glyph-name="Ucircumflex" unicode="&#x443;" horiz-adv-x="1360" 
d="M1293 963l-278 -863q-79 -239 -226 -383q-147 -143 -398 -157q-27 -2 -51 -2q-112 0 -188 30q-96 37 -108 95q-2 10 -2 18q0 18 10 37q14 26 44 43q22 12 49 12h15q61 0 100 -51q8 -8 12 -16q5 -11 11 -21q27 -41 54 -59q24 -19 76 -19q110 2 189 125q76 121 125 268
l64 199q-312 -239 -454 -239q-187 0 -187 129q0 61 17 116l152 469q5 13 5 25q0 16 -10 31q-16 22 -51 24h-47l-14 4h-20l24 62q232 0 345 145h125l-244 -766q-7 -37 -7 -55v-6q0 -8 7 -19q6 -10 16 -16q12 -8 46 -8q64 8 200 116q134 109 157 164l179 568h263z" />
    <glyph glyph-name="Ugrave" unicode="&#xf4;" horiz-adv-x="1848" 
d="M1365 1464l-183 -567q150 88 288 88q251 0 287 -258q2 -31 2 -61q0 -119 -46 -232q-62 -143 -170 -254.5t-230 -165.5q-89 -39 -173 -39q-31 0 -63 7q-94 18 -165 77l-164 -514h-244l169 518q-155 -88 -293 -88q-253 0 -282 261q-2 22 -2 45q0 129 52 251q58 144 169 256
q108 111 229 162q83 35 162 35q34 0 69 -6q72 -12 164 -76l84 254q7 27 7 45q0 25 -14 35q-10 10 -72 10q-15 2 -27 4h-34l18 64q117 6 206 43q88 35 134 106h122zM894 762q6 12 6 24q0 33 -27 66q-40 45 -96 51q-10 2 -20 2q-96 0 -180 -112q-96 -125 -147 -297
q-36 -127 -36 -217q0 -35 4 -66q8 -96 99 -115q14 -2 29 -2q49 0 108 33q74 41 89 94zM957 201q-5 -11 -5 -23q0 -33 31 -65q40 -47 94 -56h14q70 0 136 60q73 67 135 184q59 115 85 238q18 75 18 135q0 39 -8 71q0 27 -24 68q-28 39 -73 47q-13 2 -28 2q-47 0 -105 -31
q-80 -43 -99 -94z" />
    <glyph glyph-name="Ugrave" unicode="&#x444;" horiz-adv-x="1848" 
d="M1365 1464l-183 -567q150 88 288 88q251 0 287 -258q2 -31 2 -61q0 -119 -46 -232q-62 -143 -170 -254.5t-230 -165.5q-89 -39 -173 -39q-31 0 -63 7q-94 18 -165 77l-164 -514h-244l169 518q-155 -88 -293 -88q-253 0 -282 261q-2 22 -2 45q0 129 52 251q58 144 169 256
q108 111 229 162q83 35 162 35q34 0 69 -6q72 -12 164 -76l84 254q7 27 7 45q0 25 -14 35q-10 10 -72 10q-15 2 -27 4h-34l18 64q117 6 206 43q88 35 134 106h122zM894 762q6 12 6 24q0 33 -27 66q-40 45 -96 51q-10 2 -20 2q-96 0 -180 -112q-96 -125 -147 -297
q-36 -127 -36 -217q0 -35 4 -66q8 -96 99 -115q14 -2 29 -2q49 0 108 33q74 41 89 94zM957 201q-5 -11 -5 -23q0 -33 31 -65q40 -47 94 -56h14q70 0 136 60q73 67 135 184q59 115 85 238q18 75 18 135q0 39 -8 71q0 27 -24 68q-28 39 -73 47q-13 2 -28 2q-47 0 -105 -31
q-80 -43 -99 -94z" />
    <glyph glyph-name="dotlessi" unicode="&#xf5;" horiz-adv-x="1360" 
d="M661 985l104 -367q44 44 73 80q27 29 91 111q74 90 133 137q52 39 115 39h17q103 -4 124 -88q2 -8 2 -16q0 -35 -27 -68q-29 -41 -137 -41h-11q-17 2 -54 2q-64 0 -101 -31q-24 -20 -49 -51q-14 -16 -76 -90q-54 -67 -61 -76l111 -297q7 -16 16 -41q8 -24 23 -34
q12 -9 29 -9h7q42 7 89 52q23 20 61 57q21 16 28 27l68 -52q-213 -249 -368 -249h-22h-8q-68 0 -103 49q-22 20 -34 59q-16 33 -20 49l-81 207q-23 -25 -44 -47q-23 -23 -45 -51q-17 -21 -51.5 -66t-51.5 -65q-52 -62 -101 -99q-51 -36 -125 -36q-60 0 -96 28q-39 27 -44 70
v10q0 43 37 80q36 33 106 33h24h25q10 -2 22 -4q61 0 103 34q30 27 56 62q30 33 52 57q20 23 30 39q12 12 26 33q16 18 35 43l-68 199q-21 77 -84 98q-20 6 -69 6q-35 0 -51 -2h-26l3 63q189 29 283 156h115z" />
    <glyph glyph-name="dotlessi" unicode="&#x445;" horiz-adv-x="1360" 
d="M661 985l104 -367q44 44 73 80q27 29 91 111q74 90 133 137q52 39 115 39h17q103 -4 124 -88q2 -8 2 -16q0 -35 -27 -68q-29 -41 -137 -41h-11q-17 2 -54 2q-64 0 -101 -31q-24 -20 -49 -51q-14 -16 -76 -90q-54 -67 -61 -76l111 -297q7 -16 16 -41q8 -24 23 -34
q12 -9 29 -9h7q42 7 89 52q23 20 61 57q21 16 28 27l68 -52q-213 -249 -368 -249h-22h-8q-68 0 -103 49q-22 20 -34 59q-16 33 -20 49l-81 207q-23 -25 -44 -47q-23 -23 -45 -51q-17 -21 -51.5 -66t-51.5 -65q-52 -62 -101 -99q-51 -36 -125 -36q-60 0 -96 28q-39 27 -44 70
v10q0 43 37 80q36 33 106 33h24h25q10 -2 22 -4q61 0 103 34q30 27 56 62q30 33 52 57q20 23 30 39q12 12 26 33q16 18 35 43l-68 199q-21 77 -84 98q-20 6 -69 6q-35 0 -51 -2h-26l3 63q189 29 283 156h115z" />
    <glyph glyph-name="circumflex" unicode="&#xf6;" horiz-adv-x="1470" 
d="M1320 963l-248 -768q-15 -56 -15 -68q0 -18 10 -27q7 -4 19 -4h8q12 -1 25 4q46 17 98 62q52 37 85 74l63 -46q-60 -43 -117 -112q-56 -72 -66 -125q-2 -8 -2 -19q0 -30 17 -84q27 -98 27 -133q0 -120 -131 -184q-98 -47 -201 -47q-34 0 -69 4l17 70q18 -2 35 -2
q44 0 82 18q49 27 51 84q0 23 -11 59q-9 31 -9 62q0 59 49 115q5 8 16 20q9 10 19 23q9 10 14 18q10 10 28 45q-77 -22 -138 -22q-162 0 -179 124v19q0 55 34 137q-177 -151 -280 -213q-103 -61 -197 -67h-14q-77 0 -129 34q-56 37 -56 117q0 45 17 100l145 461q7 19 7 33
q0 39 -56 47q-32 0 -47 2h-34l22 66h19q217 0 330 145h123l-241 -754q-13 -41 -13 -49q0 -57 49 -57q11 0 21 2q75 20 191 111q27 20 49 38q20 17 54 41q49 33 67 52q17 30 19 43l176 551h267z" />
    <glyph glyph-name="circumflex" unicode="&#x446;" horiz-adv-x="1470" 
d="M1320 963l-248 -768q-15 -56 -15 -68q0 -18 10 -27q7 -4 19 -4h8q12 -1 25 4q46 17 98 62q52 37 85 74l63 -46q-60 -43 -117 -112q-56 -72 -66 -125q-2 -8 -2 -19q0 -30 17 -84q27 -98 27 -133q0 -120 -131 -184q-98 -47 -201 -47q-34 0 -69 4l17 70q18 -2 35 -2
q44 0 82 18q49 27 51 84q0 23 -11 59q-9 31 -9 62q0 59 49 115q5 8 16 20q9 10 19 23q9 10 14 18q10 10 28 45q-77 -22 -138 -22q-162 0 -179 124v19q0 55 34 137q-177 -151 -280 -213q-103 -61 -197 -67h-14q-77 0 -129 34q-56 37 -56 117q0 45 17 100l145 461q7 19 7 33
q0 39 -56 47q-32 0 -47 2h-34l22 66h19q217 0 330 145h123l-241 -754q-13 -41 -13 -49q0 -57 49 -57q11 0 21 2q75 20 191 111q27 20 49 38q20 17 54 41q49 33 67 52q17 30 19 43l176 551h267z" />
    <glyph glyph-name="tilde" unicode="&#xf7;" 
d="M1173 963l-251 -777q0 -8 -5 -26q-7 -19 -7 -33q0 -23 8.5 -29t20.5 -6h6q10 0 24 6q51 15 98 60q76 63 86 73l62 -47q-200 -204 -369 -204h-15q-162 2 -177 120v19q0 53 34 164l67 198q-183 -114 -286 -151q-83 -29 -140 -29q-17 0 -31 2q-126 23 -126 115q0 31 10 63
l66 213q3 13 3 25q0 49 -61 55q-16 4 -45 4h-32l20 64q228 0 343 143h131l-147 -457q-5 -14 -5 -26q0 -10 2 -21q7 -18 45 -18h14q44 4 74 18q49 23 104 58q73 36 95 69q6 10 22 56l96 299h266z" />
    <glyph glyph-name="tilde" unicode="&#x447;" 
d="M1173 963l-251 -777q0 -8 -5 -26q-7 -19 -7 -33q0 -23 8.5 -29t20.5 -6h6q10 0 24 6q51 15 98 60q76 63 86 73l62 -47q-200 -204 -369 -204h-15q-162 2 -177 120v19q0 53 34 164l67 198q-183 -114 -286 -151q-83 -29 -140 -29q-17 0 -31 2q-126 23 -126 115q0 31 10 63
l66 213q3 13 3 25q0 49 -61 55q-16 4 -45 4h-32l20 64q228 0 343 143h131l-147 -457q-5 -14 -5 -26q0 -10 2 -21q7 -18 45 -18h14q44 4 74 18q49 23 104 58q73 36 95 69q6 10 22 56l96 299h266z" />
    <glyph glyph-name="macron" unicode="&#xf8;" horiz-adv-x="2067" 
d="M1935 963l-251 -779q-12 -47 -12 -69q0 -17 5 -23q7 -6 19 -6q14 0 35 6q44 12 100 60q15 14 45 36q26 23 43 41l58 -49q-188 -200 -372 -200h-20q-169 0 -176 124v7q0 28 14 96q8 31 20 59q-320 -286 -494 -286q-170 4 -170 147q0 68 25 139q-140 -106 -227 -164
q-85 -59 -157 -90q-71 -32 -125 -32q-69 0 -123 24q-54 25 -54 90q0 49 15 90l169 504v14q1 4 1 9q1 5 -1 10q-2 16 -16 31q-16 14 -42 16q-16 4 -45 4h-35l18 64q236 0 357 149h134l-253 -760q-12 -30 -12 -53q0 -47 44 -47q10 0 22 2q37 8 70 35q24 16 36 26q13 9 25 19
q12 8 37 24q127 93 149 113q20 12 49 45l185 574h265l-223 -699q-18 -57 -18 -92v-14q0 -35 49 -35h16q19 0 73 27q35 22 91 73q49 41 76 62q25 18 74 59q35 29 49 45l192 574h266z" />
    <glyph glyph-name="macron" unicode="&#x448;" horiz-adv-x="2067" 
d="M1935 963l-251 -779q-12 -47 -12 -69q0 -17 5 -23q7 -6 19 -6q14 0 35 6q44 12 100 60q15 14 45 36q26 23 43 41l58 -49q-188 -200 -372 -200h-20q-169 0 -176 124v7q0 28 14 96q8 31 20 59q-320 -286 -494 -286q-170 4 -170 147q0 68 25 139q-140 -106 -227 -164
q-85 -59 -157 -90q-71 -32 -125 -32q-69 0 -123 24q-54 25 -54 90q0 49 15 90l169 504v14q1 4 1 9q1 5 -1 10q-2 16 -16 31q-16 14 -42 16q-16 4 -45 4h-35l18 64q236 0 357 149h134l-253 -760q-12 -30 -12 -53q0 -47 44 -47q10 0 22 2q37 8 70 35q24 16 36 26q13 9 25 19
q12 8 37 24q127 93 149 113q20 12 49 45l185 574h265l-223 -699q-18 -57 -18 -92v-14q0 -35 49 -35h16q19 0 73 27q35 22 91 73q49 41 76 62q25 18 74 59q35 29 49 45l192 574h266z" />
    <glyph glyph-name="breve" unicode="&#xf9;" horiz-adv-x="2067" 
d="M1935 963l-251 -779q-12 -47 -12 -69q0 -17 5 -23q7 -6 19 -6q14 0 35 6q44 12 100 60q15 14 45 36q26 23 43 41l58 -49q-35 -33 -52.5 -51t-38.5 -43q-45 -51 -55 -66q-32 -34 -34 -77q-3 -13 -3 -25q0 -35 17 -76q28 -98 28 -135q0 -125 -129 -186q-95 -45 -201 -47
q-36 0 -74 6l20 71q18 -2 34 -2q42 0 80 19q49 26 51 82q0 22 -2.5 34.5t-5.5 26.5q-12 37 -12 60v4q0 53 49 110q28 33 52 62q30 45 44 65q-84 -32 -160 -32h-25q-144 0 -155 124v17q0 55 38 145q-320 -286 -494 -286h-10q-162 0 -162 147q0 63 27 139q-204 -155 -325 -223
q-113 -63 -196 -63h-15q-150 6 -150 116q0 47 15 88l169 504v14q1 4 1 9q1 5 -1 10q-2 16 -16 31q-16 14 -42 16q-16 4 -45 4h-35l18 64q236 0 357 149h134l-253 -760q-12 -30 -12 -53q0 -47 44 -47q10 0 22 2q37 8 70 35q24 16 36 26q13 9 25 19q12 8 37 24q127 93 149 113
q20 12 49 45l185 574h265l-223 -699q-18 -57 -18 -92v-14q0 -35 49 -35h16q56 0 363 266l192 574h266z" />
    <glyph glyph-name="breve" unicode="&#x449;" horiz-adv-x="2067" 
d="M1935 963l-251 -779q-12 -47 -12 -69q0 -17 5 -23q7 -6 19 -6q14 0 35 6q44 12 100 60q15 14 45 36q26 23 43 41l58 -49q-35 -33 -52.5 -51t-38.5 -43q-45 -51 -55 -66q-32 -34 -34 -77q-3 -13 -3 -25q0 -35 17 -76q28 -98 28 -135q0 -125 -129 -186q-95 -45 -201 -47
q-36 0 -74 6l20 71q18 -2 34 -2q42 0 80 19q49 26 51 82q0 22 -2.5 34.5t-5.5 26.5q-12 37 -12 60v4q0 53 49 110q28 33 52 62q30 45 44 65q-84 -32 -160 -32h-25q-144 0 -155 124v17q0 55 38 145q-320 -286 -494 -286h-10q-162 0 -162 147q0 63 27 139q-204 -155 -325 -223
q-113 -63 -196 -63h-15q-150 6 -150 116q0 47 15 88l169 504v14q1 4 1 9q1 5 -1 10q-2 16 -16 31q-16 14 -42 16q-16 4 -45 4h-35l18 64q236 0 357 149h134l-253 -760q-12 -30 -12 -53q0 -47 44 -47q10 0 22 2q37 8 70 35q24 16 36 26q13 9 25 19q12 8 37 24q127 93 149 113
q20 12 49 45l185 574h265l-223 -699q-18 -57 -18 -92v-14q0 -35 49 -35h16q56 0 363 266l192 574h266z" />
    <glyph glyph-name="dotaccent" unicode="&#xfa;" horiz-adv-x="1524" 
d="M1217 985q-283 -213 -418 -389q177 78 308 78q24 0 49 -2q113 -15 193 -84q70 -60 70 -150q0 -16 -3 -35q-7 -100 -86 -200q-82 -103 -221 -164q-136 -59 -300 -59h-10q-142 0 -253.5 47t-156.5 127q-35 55 -35 122q0 27 5 56q32 153 231 299q32 22 64 45q29 20 61 43
q33 22 62 43q34 24 61 43q25 18 39 31q-88 -33 -192 -33q-87 0 -188 45q-16 8 -33 18q-16 11 -30 15q-38 12 -63 12q-59 -14 -59 -57v-5q0 -12 12 -43q16 -40 16 -57q0 -41 -35 -72q-35 -30 -87 -30h-4q-47 4 -74 33q-27 26 -27 73v8q12 101 128 175q106 67 265 67h24
q80 0 181 -18q54 -11 157 -27q54 -8 91 -8q17 0 29 2q65 6 119 51h110zM673 334q-39 -86 -39 -139v-9q8 -116 135 -133q15 -2 30 -2q74 0 140 49q79 60 126 152q46 90 46 172q0 135 -150 139h-4q-192 0 -284 -229z" />
    <glyph glyph-name="dotaccent" unicode="&#x44a;" horiz-adv-x="1524" 
d="M1217 985q-283 -213 -418 -389q177 78 308 78q24 0 49 -2q113 -15 193 -84q70 -60 70 -150q0 -16 -3 -35q-7 -100 -86 -200q-82 -103 -221 -164q-136 -59 -300 -59h-10q-142 0 -253.5 47t-156.5 127q-35 55 -35 122q0 27 5 56q32 153 231 299q32 22 64 45q29 20 61 43
q33 22 62 43q34 24 61 43q25 18 39 31q-88 -33 -192 -33q-87 0 -188 45q-16 8 -33 18q-16 11 -30 15q-38 12 -63 12q-59 -14 -59 -57v-5q0 -12 12 -43q16 -40 16 -57q0 -41 -35 -72q-35 -30 -87 -30h-4q-47 4 -74 33q-27 26 -27 73v8q12 101 128 175q106 67 265 67h24
q80 0 181 -18q54 -11 157 -27q54 -8 91 -8q17 0 29 2q65 6 119 51h110zM673 334q-39 -86 -39 -139v-9q8 -116 135 -133q15 -2 30 -2q74 0 140 49q79 60 126 152q46 90 46 172q0 135 -150 139h-4q-192 0 -284 -229z" />
    <glyph glyph-name="ring" unicode="&#xfb;" horiz-adv-x="1797" 
d="M113 772l20 64q238 0 351 149h140l-120 -362q123 61 226 69q23 2 44 2q59 0 120 -18q82 -27 131 -86q47 -60 47 -141v-9q-5 -110 -89 -221q-83 -110 -223 -178q-131 -61 -276 -61h-24q-146 6 -246 63q-101 55 -101 160q0 76 20 131l123 354q2 10 2 21q1 4 1 8q0 9 -3 18
q-8 27 -57 33q-19 4 -51 4h-35zM1659 963l-245 -768q-16 -45 -16 -64q0 -35 30 -35q12 0 29 4q35 11 101 62q15 12 30 26q12 13 27 25t27 25l61 -48q-194 -210 -368 -210h-22q-163 4 -173 124v5q0 41 47 184l206 670h266zM391 328q-25 -82 -27 -127q-3 -17 -3 -31
q0 -96 99 -113q12 -2 24 -2q64 0 126 49q73 60 122 160q45 92 45 185v20q-15 113 -104 127q-21 4 -42 4q-80 0 -132 -63q-65 -80 -108 -209z" />
    <glyph glyph-name="ring" unicode="&#x44b;" horiz-adv-x="1797" 
d="M113 772l20 64q238 0 351 149h140l-120 -362q123 61 226 69q23 2 44 2q59 0 120 -18q82 -27 131 -86q47 -60 47 -141v-9q-5 -110 -89 -221q-83 -110 -223 -178q-131 -61 -276 -61h-24q-146 6 -246 63q-101 55 -101 160q0 76 20 131l123 354q2 10 2 21q1 4 1 8q0 9 -3 18
q-8 27 -57 33q-19 4 -51 4h-35zM1659 963l-245 -768q-16 -45 -16 -64q0 -35 30 -35q12 0 29 4q35 11 101 62q15 12 30 26q12 13 27 25t27 25l61 -48q-194 -210 -368 -210h-22q-163 4 -173 124v5q0 41 47 184l206 670h266zM391 328q-25 -82 -27 -127q-3 -17 -3 -31
q0 -96 99 -113q12 -2 24 -2q64 0 126 49q73 60 122 160q45 92 45 185v20q-15 113 -104 127q-21 4 -42 4q-80 0 -132 -63q-65 -80 -108 -209z" />
    <glyph glyph-name="cedilla" unicode="&#xfc;" horiz-adv-x="1251" 
d="M155 772l19 64q239 0 354 149h138l-120 -362q123 61 226 69q19 2 39 2q64 0 128 -20q81 -27 130 -84q50 -58 50 -150q-5 -108 -87 -217q-80 -108 -221 -178q-128 -65 -285 -65h-24q-345 12 -345 243q0 17 10 66l7 45l124 354q2 10 2 21q1 4 1 8q0 9 -3 18q-8 27 -57 33
q-20 4 -51 4h-35zM432 328q-24 -82 -26 -127q-3 -15 -3 -27q0 -98 99 -117q14 -2 28 -2q57 0 119 47q76 60 125 162q45 96 45 193v12q0 109 -104 127q-21 4 -42 4q-80 0 -132 -63q-65 -80 -109 -209z" />
    <glyph glyph-name="cedilla" unicode="&#x44c;" horiz-adv-x="1251" 
d="M155 772l19 64q239 0 354 149h138l-120 -362q123 61 226 69q19 2 39 2q64 0 128 -20q81 -27 130 -84q50 -58 50 -150q-5 -108 -87 -217q-80 -108 -221 -178q-128 -65 -285 -65h-24q-345 12 -345 243q0 17 10 66l7 45l124 354q2 10 2 21q1 4 1 8q0 9 -3 18q-8 27 -57 33
q-20 4 -51 4h-35zM432 328q-24 -82 -26 -127q-3 -15 -3 -27q0 -98 99 -117q14 -2 28 -2q57 0 119 47q76 60 125 162q45 96 45 193v12q0 109 -104 127q-21 4 -42 4q-80 0 -132 -63q-65 -80 -109 -209z" />
    <glyph glyph-name="hungarumlaut" unicode="&#xfd;" horiz-adv-x="1251" 
d="M268 651l72 258q176 70 345 76h35q126 0 221 -41q108 -47 163 -139q46 -80 46 -178q0 -19 -3 -37q-16 -154 -103 -293q-85 -141 -237.5 -231.5t-351.5 -90.5q-253 5 -371 103l76 244h96q16 -150 70 -213.5t124 -67.5h5q108 0 209 129q101 131 133 279q-11 -5 -40 -19
q-32 -14 -54 -18q-20 -4 -39 -4q-57 0 -113 38q-12 7 -28 19q-17 6 -29 6h-7q-13 0 -25 -4q-19 -8 -37 -18q-29 -21 -47 -31q-5 -2 -10 -6q-7 -6 -21 -15l-49 52q7 10 21 22q10 6 28 21q14 12 24 18q89 74 164 74q37 0 96 -33q21 -8 30 -12q10 -7 24 -17q40 -16 50 -16h15
q54 0 81 45q9 29 20 78q7 51 7 104v27q-12 123 -135 129h-15q-51 0 -133 -37q-94 -43 -211 -201h-96z" />
    <glyph glyph-name="hungarumlaut" unicode="&#x44d;" horiz-adv-x="1251" 
d="M268 651l72 258q176 70 345 76h35q126 0 221 -41q108 -47 163 -139q46 -80 46 -178q0 -19 -3 -37q-16 -154 -103 -293q-85 -141 -237.5 -231.5t-351.5 -90.5q-253 5 -371 103l76 244h96q16 -150 70 -213.5t124 -67.5h5q108 0 209 129q101 131 133 279q-11 -5 -40 -19
q-32 -14 -54 -18q-20 -4 -39 -4q-57 0 -113 38q-12 7 -28 19q-17 6 -29 6h-7q-13 0 -25 -4q-19 -8 -37 -18q-29 -21 -47 -31q-5 -2 -10 -6q-7 -6 -21 -15l-49 52q7 10 21 22q10 6 28 21q14 12 24 18q89 74 164 74q37 0 96 -33q21 -8 30 -12q10 -7 24 -17q40 -16 50 -16h15
q54 0 81 45q9 29 20 78q7 51 7 104v27q-12 123 -135 129h-15q-51 0 -133 -37q-94 -43 -211 -201h-96z" />
    <glyph glyph-name="ogonek" unicode="&#xfe;" horiz-adv-x="1956" 
d="M490 477l-153 -477h-266l224 694q3 13 3 25q0 49 -62 55h-46l-16 4h-19l25 62q230 0 343 145h131l-138 -418h204q52 125 166.5 225.5t258.5 149.5q128 43 253 43h30q190 -6 307 -108q116 -105 118 -259v-20q0 -135 -83 -274q-91 -150 -255 -246q-166 -98 -368 -98
q-244 0 -358 108q-116 109 -116 260q0 68 15 129h-198zM1030 557q-81 -207 -81 -330v-24q22 -152 189 -156q98 0 180 74q80 74 143 192q58 117 87 238q21 88 21 156q0 24 -3 45q-8 149 -157 163q-18 3 -32 3q-118 0 -195 -97q-86 -110 -152 -264z" />
    <glyph glyph-name="ogonek" unicode="&#x44e;" horiz-adv-x="1956" 
d="M490 477l-153 -477h-266l224 694q3 13 3 25q0 49 -62 55h-46l-16 4h-19l25 62q230 0 343 145h131l-138 -418h204q52 125 166.5 225.5t258.5 149.5q128 43 253 43h30q190 -6 307 -108q116 -105 118 -259v-20q0 -135 -83 -274q-91 -150 -255 -246q-166 -98 -368 -98
q-244 0 -358 108q-116 109 -116 260q0 68 15 129h-198zM1030 557q-81 -207 -81 -330v-24q22 -152 189 -156q98 0 180 74q80 74 143 192q58 117 87 238q21 88 21 156q0 24 -3 45q-8 149 -157 163q-18 3 -32 3q-118 0 -195 -97q-86 -110 -152 -264z" />
    <glyph glyph-name="fl" unicode="&#xff;" horiz-adv-x="1524" 
d="M1367 963l-248 -768q-15 -50 -15 -64q0 -37 31 -37q12 0 28 4q44 13 101 64q61 51 87 76l58 -48q-192 -210 -372 -210h-19q-155 2 -167 114q-2 8 -2 23q0 33 12 90q16 69 24 88l49 147q-36 4 -69 4q-96 0 -157 -38q-81 -54 -157 -148q-67 -88 -117 -145
q-120 -135 -262 -135h-10q-61 0 -103 28q-47 29 -52 80v12q0 45 35 82q40 39 106 41q16 0 27.5 -2t23.5 -4l24 -4q11 -4 23 -6q10 -2 24 -4h20q29 0 54 10q27 12 64 61q59 76 118 125q56 50 147 72q-108 16 -171.5 36.5t-107.5 67.5q-42 46 -42 117v8q7 166 175.5 214.5
t352.5 48.5h487zM1060 840q7 10 7 18q0 16 -10 24.5t-27 14.5q-42 10 -78 10q-16 0 -30 -2q-118 -2 -190.5 -61.5t-84.5 -143.5q-2 -10 -2 -20q0 -57 45 -98q55 -50 148 -50h123z" />
    <glyph glyph-name="fl" unicode="&#x44f;" horiz-adv-x="1524" 
d="M1367 963l-248 -768q-15 -50 -15 -64q0 -37 31 -37q12 0 28 4q44 13 101 64q61 51 87 76l58 -48q-192 -210 -372 -210h-19q-155 2 -167 114q-2 8 -2 23q0 33 12 90q16 69 24 88l49 147q-36 4 -69 4q-96 0 -157 -38q-81 -54 -157 -148q-67 -88 -117 -145
q-120 -135 -262 -135h-10q-61 0 -103 28q-47 29 -52 80v12q0 45 35 82q40 39 106 41q16 0 27.5 -2t23.5 -4l24 -4q11 -4 23 -6q10 -2 24 -4h20q29 0 54 10q27 12 64 61q59 76 118 125q56 50 147 72q-108 16 -171.5 36.5t-107.5 67.5q-42 46 -42 117v8q7 166 175.5 214.5
t352.5 48.5h487zM1060 840q7 10 7 18q0 16 -10 24.5t-27 14.5q-42 10 -78 10q-16 0 -30 -2q-118 -2 -190.5 -61.5t-84.5 -143.5q-2 -10 -2 -20q0 -57 45 -98q55 -50 148 -50h123z" />
    <glyph glyph-name="Otilde" unicode="&#x152;" horiz-adv-x="1956" 
d="M831 801l585 436q106 88 106 131q0 8 -3 14q-7 17 -42 27q-30 8 -58 8h-10l14 37h526l-12 -37q-42 -8 -124 -51q-28 -23 -70 -45l-20 -12q-13 -9 -22 -17l-514 -360q84 -318 214 -555q130 -240 327 -443l-96 -73q-133 90 -251 198q-117 109 -246 279q-127 168 -241 377
l-125 -92l-138 -439q-4 -12 -4 -18q-3 -8 -8 -21q-4 -20 -4 -34v-11q14 -18 39 -28q19 -6 57 -6q16 -3 39 -3l-20 -63h-160h-349h-157l20 63q122 0 160 37q9 11 24 45q0 5 15 39l348 1086q3 10 8 22q3 13 3 19q7 18 7 30q0 7 -2 13q-13 22 -40 28q-23 9 -56 9h-40l19 63h164
h348h155l-17 -63q-125 0 -162 -37q-7 -13 -12 -25q-9 -14 -11 -18q-2 -11 -5 -21q-5 -10 -9 -20z" />
    <glyph glyph-name="oe" unicode="&#x153;" horiz-adv-x="995" 
d="M848 659h-57q-9 125 -72 187q-64 59 -139 59h-9q-63 0 -102 -37q-43 -41 -43 -96q0 -61 55 -108q21 -21 105 -74q112 -66 176 -129q61 -66 67 -156v-24q0 -111 -86 -201q-94 -100 -280 -100h-8q-179 0 -379 135l69 252l72 -5v-20q0 -88 45 -176q51 -100 197 -109h12
q51 0 88 17q41 18 62 53q20 33 20 68q0 61 -57 114q-13 13 -35 27q-25 14 -45 26q-131 78 -189.5 145.5t-60.5 156.5q0 120 80 221q78 100 250 100h12q131 0 332 -88z" />
    <glyph glyph-name="Ydieresis.0" unicode="&#x178;" horiz-adv-x="1133" 
d="M756 1212q215 0 307 177h94q-49 -129 -158 -244q-108 -115 -288 -115h-4q-168 0 -226 113q-45 90 -45 188q0 29 4 58h95q0 -177 221 -177zM1077 963l-231 -863q-66 -239 -189 -383q-122 -143 -331 -157q-23 -2 -43 -2q-93 0 -156 30q-80 37 -90 95q-2 10 -2 18q0 18 8 37
q12 26 37 43q18 12 41 12h12q51 0 84 -51q6 -8 10 -16q4 -11 9 -21q22 -41 45 -59q20 -19 63 -19q92 2 158 125q63 121 104 268l53 199q-260 -239 -378 -239q-156 0 -156 129q0 61 14 116l127 469q4 13 4 25q0 16 -8 31q-14 22 -43 24h-39l-12 4h-16l20 62q193 0 287 145
h104l-203 -766q-6 -37 -6 -55v-6q0 -8 6 -19q5 -10 13 -16q10 -8 39 -8q53 8 166 116q112 109 131 164l149 568h219z" />
    <glyph glyph-name="florin" unicode="&#x192;" horiz-adv-x="1062" 
d="M814 928l-254 -768q-7 -25 -21 -101q-16 -77 -21 -90q-14 -94 -34 -141q-69 -147 -245 -150q-96 0 -148 39q-51 39 -56 95v12q0 45 33 78q40 35 99 35q65 0 119 -46q7 -6 14 -14q7 -10 19 -20q7 -2 23 -11h5q31 0 36 21q0 18 -3 24q-9 21 -19 37q-9 17 -14 25
q-47 82 -49 147q-3 15 -3 29q0 47 19 100l214 699h-233l19 80h237q5 39 5 82q0 73 -15 157q-13 72 -13 90q0 119 84 189q73 61 169 61h21q78 -2 134 -43q54 -41 57 -102q2 -10 2 -19q0 -41 -26 -65q-35 -33 -87 -33q-98 0 -127 82q-5 18 -16 33q-16 22 -38 22
q-49 -8 -49 -73q5 -43 42 -107q38 -49 54 -72q80 -110 80 -186v-16h227l-20 -80h-221z" />
    <glyph glyph-name="circumflex.0" unicode="&#x2c6;" horiz-adv-x="1470" 
d="M1320 963l-248 -768q-15 -56 -15 -68q0 -18 10 -27q7 -4 19 -4h8q12 -1 25 4q46 17 98 62q52 37 85 74l63 -46q-60 -43 -117 -112q-56 -72 -66 -125q-2 -8 -2 -19q0 -30 17 -84q27 -98 27 -133q0 -120 -131 -184q-98 -47 -201 -47q-34 0 -69 4l17 70q18 -2 35 -2
q44 0 82 18q49 27 51 84q0 23 -11 59q-9 31 -9 62q0 59 49 115q5 8 16 20q9 10 19 23q9 10 14 18q10 10 28 45q-77 -22 -138 -22q-162 0 -179 124v19q0 55 34 137q-177 -151 -280 -213q-103 -61 -197 -67h-14q-77 0 -129 34q-56 37 -56 117q0 45 17 100l145 461q7 19 7 33
q0 39 -56 47q-32 0 -47 2h-34l22 66h19q217 0 330 145h123l-241 -754q-13 -41 -13 -49q0 -57 49 -57q11 0 21 2q75 20 191 111q27 20 49 38q20 17 54 41q49 33 67 52q17 30 19 43l176 551h267z" />
    <glyph glyph-name="tilde.0" unicode="&#x2dc;" horiz-adv-x="1087" 
d="M977 963l-209 -777q0 -8 -4 -26q-6 -19 -6 -33q0 -23 8 -29q6 -6 16 -6h4q10 0 21 6q43 15 82 60q63 63 72 73l51 -47q-166 -204 -307 -204h-13q-135 2 -147 120v19q0 53 28 164l56 198q-152 -114 -238 -151q-69 -29 -117 -29q-14 0 -26 2q-105 23 -105 115q0 31 9 63
l55 213q2 13 2 25q0 49 -51 55q-13 4 -37 4h-27l17 64q190 0 286 143h109l-123 -457q-4 -14 -4 -26q0 -10 2 -21q6 -18 37 -18h12q37 4 62 18q40 23 86 58q61 36 79 69q5 10 19 56l80 299h221z" />
    <glyph glyph-name="endash.0" unicode="&#x2013;" horiz-adv-x="1452" 
d="M104 733h1242v-155h-1242v155z" />
    <glyph glyph-name="emdash.0" unicode="&#x2014;" horiz-adv-x="2177" 
d="M145 573h1913l-28 -118h-1915z" />
    <glyph glyph-name="quoteleft.0" unicode="&#x2018;" horiz-adv-x="590" 
d="M516 1483l-18 -70q-183 -86 -183 -168v-8q0 -20 17 -41q4 -4 28 -25q64 -49 64 -114v-8q0 -56 -41 -99q-47 -49 -117 -51q-59 0 -106 39q-47 37 -56 98q-2 17 -2 33q0 117 107 244q121 141 307 170z" />
    <glyph glyph-name="quoteright.0" unicode="&#x2019;" horiz-adv-x="543" 
d="M57 899l19 74q182 82 182 168v4q0 24 -16 45q-9 8 -29 24q-63 50 -63 113v4q0 60 43 105q45 47 112 47h8q56 0 101 -35q47 -39 55 -102q2 -15 2 -31q0 -66 -39 -144q-49 -98 -147 -174q-101 -77 -228 -98z" />
    <glyph glyph-name="quotesinglbase.0" unicode="&#x201a;" 
d="M826 539q115 -4 213 -56q94 -49 94 -153v-4q-5 -129 -162 -242q-148 -104 -411 -104h-39q-423 14 -423 202q0 72 20 127l103 316q35 102 133 186t227.5 127t256.5 47h32q165 0 253 -59q94 -66 94 -142v-4q0 -162 -391 -241zM469 549q263 24 364 94t108 137v11q0 20 -7 45
q-10 30 -45 53q-33 20 -82 22h-10q-107 0 -202 -88q-101 -94 -126 -274zM448 475l-89 -266q-7 -21 -7 -39q0 -43 37 -74q51 -45 141 -49h5q153 0 237 125q63 92 63 168q0 29 -9 55q-31 97 -184 97h-35q-91 0 -159 -17z" />
    <glyph glyph-name="quotedblleft.0" unicode="&#x201c;" horiz-adv-x="1087" 
d="M512 1483l-18 -72q-183 -84 -183 -170v-4q0 -23 17 -43q6 -6 16 -12q8 -8 12 -15q64 -49 64 -110v-8q0 -58 -41 -101q-45 -49 -115 -51q-63 0 -106 39q-45 37 -58 100q-2 15 -2 31q0 66 41 145q49 99 150 174q98 76 223 97zM1020 1483l-23 -70q-180 -86 -180 -176
q0 -18 19 -41q6 -8 28 -25q62 -47 64 -114v-8q0 -56 -43 -99q-47 -49 -113 -51q-61 0 -106 37t-58 100q-2 19 -2 37q0 113 103 238q120 143 311 172z" />
    <glyph glyph-name="quotedblright.0" unicode="&#x201d;" horiz-adv-x="1087" 
d="M608 899l21 74q180 82 180 164v8q0 24 -14 45q-4 8 -13 12q-8 4 -16 12q-66 52 -66 113q0 62 45 109q46 47 113 47h8q56 0 101 -35q45 -37 53 -102q2 -15 2 -31q0 -66 -39 -144q-49 -98 -147 -174q-101 -77 -228 -98zM100 897l21 72q184 82 184 176q-2 18 -18 41
q-2 6 -11 14q-10 6 -18 12q-61 50 -63 111v4q0 62 45 109t110 47q66 0 111 -37q43 -39 51 -100q2 -17 2 -33q0 -66 -39 -144q-49 -100 -149 -176q-101 -75 -226 -96z" />
    <glyph glyph-name="quotedblbase.0" unicode="&#x201e;" horiz-adv-x="1086" 
d="M885 287l69 -51q-239 -259 -514 -259q-20 0 -39 3q-155 6 -241 71q-89 64 -89 166v8q0 125 89 191q88 67 194 96q40 12 66 20q25 9 54 17q89 26 168 82q69 49 69 143v21q-3 77 -87 88h-14q-106 0 -305 -146l-61 51q213 197 467 197q145 0 223 -59q79 -62 84 -146v-8
q0 -154 -263 -237q-25 -7 -143 -43q-206 -72 -234 -222q-2 -18 -2 -34q0 -52 34 -86q45 -46 120 -46q47 0 82 11q73 18 148 65q73 47 125 107z" />
    <glyph glyph-name="dagger" unicode="&#x2020;" horiz-adv-x="900" 
d="M272 1389h249l108 385h187l-105 -385h248l-49 -162h-246l-450 -1630h-186l448 1630h-258z" />
    <glyph glyph-name="daggerdbl.0" unicode="&#x2021;" horiz-adv-x="1414" 
d="M1290 961l-267 -789q-12 -35 -12 -55q0 -41 38 -41h11q83 0 223 170l64 -37q-182 -234 -398 -234q-199 11 -207 168q-219 -166 -393 -166q-14 0 -30 3q-204 10 -233 204q-2 21 -2 41q0 92 43 203q53 135 156 264q100 129 231 211q131 80 267 82h21q150 0 221 -88
q16 -25 30 -33t24 -8q4 0 7 2q51 2 84 103h122zM949 752v20q0 51 -32 90q-42 45 -98 49q-10 2 -20 2q-93 0 -182 -112q-101 -125 -167 -299q-70 -176 -70 -271v-4q0 -118 96 -127h11q64 0 147 47q91 50 155 123z" />
    <glyph glyph-name="bullet.0" unicode="&#x2022;" horiz-adv-x="1452" 
d="M520 774q0 86 63.5 151.5t153.5 65.5q60 0 111 -28q49 -31 80 -80q28 -49 28 -109q0 -92 -63 -153q-66 -64 -156 -64q-86 0 -151.5 63.5t-65.5 153.5z" />
    <glyph glyph-name="ellipsis.0" unicode="&#x2026;" horiz-adv-x="1548" 
d="M612 133q0 68 47 113q46 43 113 43q66 0 113 -43q45 -45 45 -113q0 -63 -47 -108t-111 -45q-61 0 -110 45q-50 43 -50 108zM1124 133q0 68 47 113q46 43 113 43q66 0 113 -43q45 -45 45 -113q0 -63 -47 -108t-111 -45q-61 0 -110 45q-50 43 -50 108zM100 133q0 68 47 113
q46 43 113 43q66 0 113 -43q45 -45 45 -113q0 -63 -47 -108t-111 -45q-61 0 -110 45q-50 43 -50 108z" />
    <glyph glyph-name="perthousand.0" unicode="&#x2030;" horiz-adv-x="1414" 
d="M570 1305l-42 67q79 45 197 76q96 25 169 25q18 0 33 -3q105 -4 206 -55q98 -53 162 -176q49 -96 49 -233q0 -39 -5 -80q-9 -144 -54.5 -301.5t-139.5 -305.5q-96 -147 -247 -243q-156 -96 -368 -96q-204 0 -326 98q-125 98 -133 266v21q0 170 103 309q112 149 283 233
q158 78 300 78h20q105 -2 180 -51q70 -51 100 -125q52 139 52 258q0 43 -7 82q-25 184 -210 217q-29 6 -64 6q-44 0 -93 -10q-88 -19 -165 -57zM434 578q-66 -142 -82 -285q-3 -25 -3 -49q-1 -8 -1 -16q0 -19 4 -38q19 -116 129 -147q23 -6 47 -6q67 0 136 43
q93 57 170.5 167.5t117.5 246.5q24 86 24 163q0 45 -7 88q-26 144 -150 158q-15 2 -30 2q-62 0 -144 -45q-106 -59 -211 -282z" />
    <glyph glyph-name="guilsinglleft.0" unicode="&#x2039;" horiz-adv-x="2613" 
d="M1224 1458l277 -960l207 669q8 19 13 35q5 17 10 33q7 29 31 86q32 68 98 121q59 45 171 45h26q115 -2 190 -60q73 -57 86 -135q5 -22 5 -45q0 -55 -32 -102q-47 -68 -143 -74q-66 0 -106 33q-39 33 -39 80q0 57 49 98q27 27 32 39q5 10 5 20q0 15 -12 33q-20 27 -61 29
h-13q-90 0 -144 -143q-9 -23 -16 -48q-10 -26 -17 -41q0 -12 -5 -28q-7 -17 -9 -27l-350 -1116h-199l-329 1151l-238 -739q-139 -441 -421 -441h-4q-89 0 -153 49q-67 50 -77 130q-2 16 -2 32q-1 6 -1 12q0 13 3 25q10 92 71 152q63 59 150 59q72 0 114 -37q34 -33 34 -74
v-8q0 -49 -59 -98q-12 -10 -37 -29q-27 -18 -39 -28q-27 -23 -27 -43v-4q9 -29 47 -37q9 -2 19 -2q35 0 74 26q52 35 94 117q26 43 54 115q26 65 33 90l249 768q18 51 18 90q0 59 -42 86q-72 45 -162 45l12 47zM1693 0l45 145h610l-50 -145h-605zM1848 618q50 154 183 232
q129 78 263 78q117 0 192 -70q61 -63 61 -151v-25q-13 -147 -148 -260q-133 -113 -300 -113h-5q-91 0 -175.5 47t-84.5 176l10 46zM2080 618q-37 -118 -37 -163q0 -13 2 -21q15 -59 69 -59h9q84 0 145 133q65 139 77 244q0 36 -5 57q-7 18 -25.5 32.5t-43.5 16.5h-15
q-63 0 -96 -55q-39 -66 -80 -185z" />
    <glyph glyph-name="guilsinglright.0" unicode="&#x203a;" horiz-adv-x="1497" 
d="M1391 1454l-9 -305h-71q-17 72 -72 138.5t-164 66.5h-201q-57 0 -69 -15q-12 -14 -31 -63l-110 -418h239q62 0 109 25q45 22 86 100h69l-102 -387h-74q8 22 8 45q0 27 -10 51q-20 47 -102 47h-252l-141 -520q-11 -45 -11 -63q0 -43 23 -50q20 -6 78 -6h213q127 0 202 50
q76 49 166 188h82l-90 -338h-1149l21 63q98 0 133 37q4 4 18 45q4 11 8 19q2 8 7 20l288 1086q9 24 11 41q6 14 6 28q0 9 -2 15q-11 20 -33 28q-23 9 -51 9h-31l18 63h990zM586 1710q0 62 45 105t102 43q60 0 103 -41q41 -43 41 -107q0 -59 -43 -100q-46 -43 -101 -43
t-100 43q-47 43 -47 100zM1024 1710q0 64 43 107q41 41 100 41q62 0 105 -41t43 -107q0 -61 -45 -102t-103 -41q-59 0 -100 45q-43 43 -43 98z" />
    <glyph glyph-name="trademark.0" unicode="&#x2122;" horiz-adv-x="2120" 
d="M745 1018h-112q51 39 65 102l123 531q4 12 4 20q6 17 6 27q0 24 -32 24h-11q-36 -2 -94 -36q-59 -37 -84 -68h-24l78 156h534v-156h-24q-7 29 -50 65q-43 37 -80 39q-38 0 -51 -24q-2 -6 -2 -10q-2 -5 -6 -17q0 -8 -4 -20l-123 -531q-4 -20 -4 -37q0 -41 25 -65h-134z
M1704 1774l31 -482l245 482h218q-52 -21 -62 -74q-6 -19 -6 -31q-4 -12 -4 -22l-39 -531v-16q0 -53 35 -82h-240q37 24 45 45q6 18 6 57l37 527l-315 -629h-66l-37 629l-200 -533q-9 -22 -9 -41q0 -31 21 -55h-152q64 43 86 102l197 527q8 26 14 41q4 12 7 26v15
q0 38 -31 45h219z" />
    <glyph glyph-name="currency" unicode="&#x2219;" horiz-adv-x="1414" 
d="M1302 963l-245 -768q-15 -56 -15 -68q0 -18 11 -27q4 -6 16 -6t33 6q48 17 99 62q58 47 84 74l59 -46q-191 -210 -366 -210h-21q-158 2 -176 124q-2 13 -2 27q0 53 37 129q-21 -16 -61 -49t-61 -49q-82 -68 -124 -96q-118 -78 -230 -86h-16q-76 0 -127 34q-59 37 -59 117
q0 45 17 100l147 461q8 19 8 33q0 39 -59 47q-30 0 -45 2h-34l18 66h19q216 0 335 145h122l-241 -754q-12 -41 -12 -49q0 -57 49 -57q10 0 19 2q70 18 192 111q28 20 50 38q19 17 54 41q56 41 63 52q18 24 21 43l176 551h265z" />
    <glyph glyph-name="cent" horiz-adv-x="950" 
d="M213 -367l82 349q-141 20 -182 112t-41 172q2 156 63 307q62 152 170 261q107 106 227 139l91 370h155l-86 -362q99 -14 213 -92l-63 -236h-82v35q0 201 -109 215q-8 2 -16 2q-74 0 -150 -119q-84 -131 -131 -313q-35 -131 -35 -219q0 -37 7 -68q20 -104 114 -104h4
q121 0 301 207l58 -47q-164 -213 -348 -254l-86 -355h-156z" />
    <glyph glyph-name="sterling" horiz-adv-x="1403" 
d="M991 1391q-80 0 -108.5 -29t-40.5 -76l-287 -1067q-10 -41 -10 -59q0 -47 22 -54q21 -6 80 -6h252q127 0 205 50q76 49 162 188h84l-90 -338h-1188l16 63q102 0 135 37q10 19 13 25l10 20q0 5 12 39l291 1086q4 16 6 37q2 18 2 24v10q0 39 -41 48q-12 2 -39 2h-31l17 63
h545z" />
    <glyph glyph-name="acute" horiz-adv-x="3127" 
d="M305 1069v23q0 116 57 221q62 114 168 180q97 57 205 57h21q121 -6 211 -88q88 -82 96 -211q2 -18 2 -39q0 -67 -23 -141q-30 -96 -92 -170q-63 -76 -157 -115q-70 -28 -152 -28q-31 0 -61 4q-125 18 -197 100q-72 80 -78 207zM289 -305l1540 1845l63 -53l-1548 -1847z
M1145 41v16q0 125 59 232q62 112 168 178q94 55 197 55h26q121 -6 211 -88q88 -82 97 -211q2 -18 2 -37q0 -96 -47 -200q-58 -125 -170 -197q-89 -57 -201 -57q-31 0 -64 4q-127 18 -198 100q-74 80 -80 205zM504 995q-2 -6 -2 -18q-2 -14 -2 -23q0 -10 -2 -20
q0 -111 82 -133q16 -4 32 -4q103 0 160 166q12 41 45 159q10 39 23 82q10 41 14 72q10 82 10 90q0 121 -96 133q-8 2 -16 2q-99 0 -162 -170q-17 -45 -47 -160q-33 -129 -39 -176zM1343 -31q-6 -28 -6 -57v-8q0 -107 86 -127q17 -4 31 -4q96 0 158 164q14 40 45 157t37 158
q10 47 10 88v16q0 35 -14 70q-19 41 -82 49h-13q-67 0 -114 -72q-54 -81 -80.5 -178.5t-57.5 -255.5zM2085 35v16q0 125 59 232q62 112 168 178q94 55 197 55h26q121 -6 211 -88q88 -82 97 -211q2 -18 2 -37q0 -96 -47 -200q-58 -125 -170 -197q-88 -57 -201 -57
q-31 0 -64 4q-127 18 -198 100q-74 80 -80 205zM2284 -37q-7 -29 -7 -57v-8q0 -107 86 -127q17 -4 31 -4q96 0 158 163q14 41 45 158t37 158q10 47 10 88v16q0 35 -14 70q-19 41 -82 49h-13q-67 0 -114 -72q-54 -82 -80 -178q-27 -98 -57 -256z" />
    <glyph glyph-name="notequal" horiz-adv-x="1511" 
d="M295 877h635l231 483l129 -66l-203 -417h449l-37 -156h-487l-92 -193h559l-37 -155h-598l-230 -477l-122 69l196 408h-510l39 155h545l92 193h-596z" />
    <glyph glyph-name="AE" horiz-adv-x="1360" 
d="M1288 1454l-22 -360h-76q-35 166 -127 209t-199 43q-43 0 -65 -15q-23 -14 -39 -74l-285 -1073q-4 -12 -4 -18q-2 -8 -6 -21q-2 -24 -2 -36v-9q8 -18 31 -28q16 -6 49 -6q8 -3 30 -3l-16 -63h-555l16 63q99 0 134 37q8 11 20 45q0 5 12 39l291 1086q2 10 6 22q2 13 2 19
q6 18 6 30q0 7 -2 13q-10 22 -32 28q-19 9 -47 9h-33l16 63h897z" />
    <glyph glyph-name="Oslash" horiz-adv-x="905" 
d="M737 287l58 -51q-199 -259 -428 -259q-17 0 -33 3q-129 6 -201 71q-74 64 -74 166v8q0 125 74 191q74 67 162 96l55 20q21 9 45 17q74 26 140 82q57 49 57 143v21q-2 77 -72 88h-12q-88 0 -254 -146l-51 51q178 197 389 197q121 0 186 -59q66 -62 70 -146v-8
q0 -154 -219 -237q-21 -7 -119 -43q-172 -72 -195 -222q-2 -18 -2 -34q0 -52 29 -86q37 -46 100 -46q39 0 68 11q61 18 122.5 65t104.5 107z" />
    <glyph glyph-name="lessequal" horiz-adv-x="1567" 
d="M193 498l1361 528l27 -123l-1051 -397l-4 -14l869 -398l-84 -123zM88 -256h1200l-45 -147h-1200z" />
    <glyph glyph-name="greaterequal" horiz-adv-x="1487" 
d="M1487 498l-1364 -527l-23 123l1047 398l4 14l-864 397l80 123zM45 -262h1200l-45 -148h-1200z" />
    <glyph glyph-name="yen" horiz-adv-x="1540" 
d="M227 815h281l-105 404q-30 135 -92 163q-6 0 -28 4q-23 5 -35 5h-47l24 63h600l-24 -63q-99 0 -99 -72q0 -8 5 -23q2 -14 6 -26q2 -13 2 -19l114 -436h60l285 414q18 24 28 51q10 25 10 31q0 30 -30 55q-33 25 -84 25l24 63h412l-23 -63q-94 -19 -172 -131l-305 -445h248
l-33 -156h-321l-74 -108l-23 -84h402l-31 -156h-411l-35 -127q0 -4 -2 -16t-4 -23v-24q-2 -8 -5 -21q0 -28 33 -28q10 0 22.5 -2t24.5 -4h19q6 -3 14 -3l-16 -63h-133h-301h-134l15 63q102 0 135 37q22 31 22 45l7 17q6 14 6 22l35 127h-367l33 156h375l32 125l-18 67h-354z
" />
    <glyph glyph-name="mu" horiz-adv-x="1178" 
d="M1085 963l-204 -768q-13 -56 -13 -68q0 -18 9 -27q4 -6 14 -6t27 6q40 17 83 62q48 47 70 74l49 -46q-159 -210 -305 -210h-18q-131 2 -146 124q-2 13 -2 27q0 53 31 129q-18 -16 -51 -49t-51 -49q-68 -68 -103 -96q-98 -78 -192 -86h-13q-63 0 -106 34q-49 37 -49 117
q0 45 14 100l123 461q6 19 6 33q0 39 -49 47q-25 0 -37 2h-29l15 66h16q180 0 279 145h102l-201 -754q-10 -41 -10 -49q0 -57 41 -57q8 0 16 2q58 18 160 111q23 20 41 38q16 17 45 41q47 41 53 52q15 24 17 43l147 551h221z" />
    <glyph glyph-name="partialdiff" horiz-adv-x="1133" 
d="M129 600q55 131 150 221q94 88 206 129q97 35 187 35h28q78 -2 144 -29q63 -26 110 -73t74 -113q27 -68 29 -152v-16q0 -139 -70 -278q-76 -150 -213 -246q-137 -98 -305 -98h-12q-164 0 -267 98q-108 100 -114 266q0 133 53 256zM375 557q-70 -215 -70 -332v-22
q14 -156 154 -156q102 0 190 123q86 123 133 295q39 139 39 244q0 22 -2 43q-12 149 -131 163h-16q-174 0 -297 -358z" />
    <glyph glyph-name="summation" horiz-adv-x="1087" 
d="M463 1391l14 63h146h299h114l-16 -63q-8 2 -16 2q-23 0 -46 -9q-34 -10 -53 -30q-16 -29 -18 -43q-10 -27 -13 -41l-243 -901q-35 -131 -66 -213q-33 -84 -98 -133q-68 -52 -184 -52q-107 0 -172 62q-62 55 -62 137v10q6 68 47 109q39 39 99 39q51 0 84 -35
q32 -37 32 -80v-16q-2 -9 -2 -17q-6 -16 -8 -22t-6 -19q0 -6 -2 -16t-4 -19v-4q0 -37 39 -37q34 5 59 41q21 31 21 76v17q0 2 -7 57q-2 16 -4 33q-4 14 -6 30q-4 15 -8 29q-10 33 -10 78q-2 20 -2 41q0 63 18 119l184 686q5 12 7 22q2 8 4 19q4 18 4 30q0 9 -2 13
q-13 22 -35 28q-23 9 -47 9q-10 2 -23 2q-12 0 -18 -2z" />
    <glyph glyph-name="product" horiz-adv-x="1497" 
d="M1419 1333l-86 -309h-69q-15 137 -95 246q-77 104 -217 104h-4q-117 -2 -229 -98q-115 -96 -184 -219q-62 -107 -62 -176q0 -11 2 -21q6 -80 78 -80q29 0 53 11q29 10 45 22q25 16 42.5 28.5t27.5 18.5q74 49 133 49h4q74 -2 162 -71q86 -70 131 -121l-51 -70
q-109 94 -174 94q-8 0 -15 -2q-18 -2 -59 -28q-6 -2 -41 -25.5t-51 -32.5q-43 -22 -80 -28h-12q-103 0 -250 137q-68 -180 -78 -320v-32q0 -158 94 -236q103 -88 238 -88h4q151 0 270 100q121 101 187 215h81l-108 -329q-240 -101 -471 -101q-297 0 -442 131
q-146 129 -152 351v20q0 148 53 313q58 177 172 338q115 162 285 262q164 97 367 97h8q262 0 493 -150z" />
    <glyph glyph-name="pi" horiz-adv-x="1042" 
d="M956 883l-67 -242h-80q-10 156 -57 217q-50 60 -101 60h-8q-82 0 -162 -113q-84 -121 -106 -232q0 -34 6 -47.5t39 -13.5q22 6 43 20q12 11 22 17q11 6 21 12q49 31 80 31q55 0 141 -72q18 -20 39 -39q6 -10 18 -22l-41 -56q-22 19 -26 21q-19 18 -37 31q-39 26 -53 26
h-4q-11 0 -27 -10q-8 -2 -18 -16q-54 -41 -103 -41q-14 0 -29 4q-55 16 -96 63q-47 -149 -47 -245q0 -15 2 -29q25 -137 160 -137q153 0 301 239h80l-66 -260q-61 -31 -139 -51q-72 -18 -166 -18h-20q-258 2 -328 143q-59 119 -59 213q0 16 2 33q10 155 84 301
q73 143 204 231q129 84 281 84h8q189 0 309 -102z" />
    <glyph glyph-name="ordmasculine" horiz-adv-x="1722" 
d="M608 1397l15 57h1106l-13 -57q-102 0 -133 -41q-12 -17 -20 -45q-4 -8 -13 -41l-293 -1086q-2 -4 -2 -12q-2 -10 -2 -14q0 -6 -2 -13q-4 -20 -4 -34v-11q10 -18 33 -28q14 -6 43 -6q14 -3 33 -3l-17 -63h-548l16 63q100 0 127 37q12 17 22 45q5 11 7 19t6 20l288 1082
q9 28 9 51q0 29 -13 45q-18 24 -92 24q-20 0 -45 -2q-86 0 -131 -34q-45 -37 -96 -183l-281 -817q-55 -168 -135 -272q-80 -107 -207 -107q-76 0 -133 49q-59 50 -67 132q-3 18 -3 36q0 88 50 166q57 95 145 95q57 0 92 -33t35 -90q0 -62 -51 -113q-15 -14 -35 -31.5
t-29 -25.5q-22 -23 -22 -43v-4q8 -31 39 -37q6 -2 12 -2q92 0 193 262q75 200 133 391q100 309 118 377q25 102 31 160q2 14 2 26q0 43 -22 72q-31 37 -146 39z" />
    <glyph glyph-name="Omega" horiz-adv-x="1270" 
d="M1151 236l49 -50q-158 -206 -307 -206h-12q-140 0 -148 120v9q0 32 12 100q5 14 9 27q2 12 6 26q4 12 6 25l123 469q14 32 14 63q-6 58 -61 64q-13 2 -25 2q-43 0 -76 -33q-45 -45 -73 -109q-31 -65 -72 -172q-61 -155 -74 -180q-90 -215 -164 -313q-71 -98 -170 -98h-4
q-57 0 -96 32q-39 33 -39 88q0 54 31 93q29 36 82 43h16q23 0 51 -5q31 -8 50 -8q8 0 14 2q55 0 131 178q18 46 35 82q14 37 39 99q65 164 116 245q52 82 123 123q62 33 146 33h28q160 -6 189 -88q16 -45 16 -92q0 -41 -12 -82l-143 -533q-11 -34 -11 -55q0 -43 33 -43
q8 0 18 2q35 15 80 64q66 69 70 78z" />
    <glyph glyph-name="ae" horiz-adv-x="1767" 
d="M731 911h463l94 359q4 12 6 22q2 8 4 19q7 14 7 28q0 9 -2 15q-9 22 -33 28q-17 9 -45 9h-29l16 63h547l-16 -63q-101 0 -131 -37q-13 -17 -21 -43q0 -6 -12 -41l-291 -1086q0 -4 -2 -16q-4 -12 -6 -23q-4 -20 -4 -34v-11q10 -18 33 -28q14 -6 47 -6q10 -3 28 -3l-16 -63
h-545l17 63q98 0 127 37q16 23 18 45q8 19 12 39l164 607h-463l-163 -607q-7 -37 -7 -39q-2 -26 -2 -36v-9q2 -16 29 -28q16 -6 47 -6q10 -3 33 -3l-21 -63h-548l16 63q102 0 131 37q16 23 18 45q5 9 15 39l289 1086q8 24 10 41q6 14 6 28q0 9 -2 15q-6 20 -33 28
q-22 9 -47 9h-29l15 63h553l-19 -63q-100 0 -131 -37q-8 -11 -12 -25t-6 -18q-2 -13 -6 -21q-5 -10 -9 -20z" />
    <glyph glyph-name="oslash" horiz-adv-x="1133" 
d="M1057 963l-211 -779q-10 -34 -10 -59q0 -35 26 -35q10 0 25 4q22 8 43 25q18 16 37 33q24 26 39 41q12 14 28 32l43 -45q-149 -200 -309 -200q-137 0 -150 118v8q0 41 33 170l49 193q-51 -55 -108 -55q-21 4 -49 28q-41 31 -56 35q-18 8 -32 8q-9 0 -15 -4
q-39 -14 -57 -86l-107 -395h-219l189 700q2 11 2 21q0 49 -51 59h-35l-12 4h-17l17 62q194 0 280 139h109l-127 -475q86 70 125 70h6q18 0 47 -19l18 -12l17 -17q26 -16 34 -16h9q39 0 59 51l109 396h221z" />
    <glyph glyph-name="questiondown" horiz-adv-x="817" 
d="M700 985l-264 -997q-6 -25 -18 -101.5t-17 -89.5q-12 -94 -28 -141q-58 -148 -205 -150q-80 0 -123 39t-47 95v12q0 45 29 78q32 34 82 34q53 0 98 -45q6 -6 12 -14q6 -10 17 -20q6 -2 18 -11h4q27 0 31 21q0 18 -2 24q-8 21 -17 37q-8 17 -12 25q-39 82 -41 147
q-2 15 -2 29q0 47 16 100l164 625q6 12 6 35q-8 28 -26 43q-13 10 -58 14q-28 0 -43 -2l19 64q215 20 291 149h116zM768 1260q0 -50 -37 -89q-37 -38 -94 -38q-53 0 -92 38q-39 39 -39 89q0 57 39 94t92 37q51 0 92 -35q39 -37 39 -96z" />
    <glyph glyph-name="exclamdown" horiz-adv-x="1403" 
d="M1149 1014q-2 203 -105 276q-102 72 -219 76h-12q-90 0 -158 -49q-75 -55 -82 -146q0 -53 29 -96q27 -43 119 -96q49 -25 117 -57q67 -35 77 -41q160 -82 252 -185q90 -102 90 -241v-9q-4 -184 -149 -329.5t-444 -145.5q-132 0 -261 35q-131 35 -294 139l75 320l64 -2
q12 -182 129 -279q112 -92 264 -92h12q138 0 234 80q90 76 90 176v12q-4 119 -160 211q-26 17 -65 35q-41 19 -68 33q-27 12 -59 27q-138 71 -215 155q-78 82 -78 234v8q4 111 61 209q58 96 176 155q113 56 271 56h12q242 0 451 -152l-91 -317h-63z" />
    <glyph glyph-name="radical" horiz-adv-x="1630" 
d="M1597 1573l99 -49l-1030 -1553h-150l-74 846h-430l43 154h652l61 -631z" />
    <glyph glyph-name="approxequal" horiz-adv-x="1100" 
d="M248 766h-92q53 94 154.5 168t207.5 76q27 0 88 -13q31 -8 109 -43q137 -53 186 -53h8q68 6 140 96h92q-164 -243 -338 -249q-12 -3 -25 -3q-35 0 -71 13q-21 6 -95 35q-96 41 -139 57q-27 8 -53 8q-14 0 -29 -2q-80 -10 -143 -90zM174 379h-92q53 94 156 168
q100 74 206 76q27 0 88 -13q31 -8 109 -43q137 -53 186 -53h9q67 6 139 96h92q-164 -243 -338 -250q-12 -2 -24 -2q-35 0 -72 13q-21 6 -94 35q-97 40 -140 57q-26 8 -53 8q-14 0 -29 -2q-79 -10 -143 -90z" />
    <glyph glyph-name="Delta" horiz-adv-x="1630" 
d="M1389 154l-123 -160h-805l-117 147l799 1344h149zM498 166h608l-66 950z" />
    <glyph glyph-name="OE" horiz-adv-x="1178" 
d="M449 578q14 -3 28 -3q82 0 154 82q35 43 69 109q138 219 283 219q74 0 109 -37q34 -39 34 -88q0 -47 -30 -76q-31 -28 -76 -28h-6q-35 0 -80 32q-10 3 -23 15q-30 16 -34 16q-19 0 -41.5 -22.5t-38.5 -59.5q-13 -20 -21 -32.5t-20 -32.5q-8 -10 -21.5 -29.5t-29.5 -40.5
q-43 -45 -76 -53q-31 -12 -33 -17q0 -2 55 -20q117 -41 166 -305q4 -31 14 -51q19 -27 29 -33q6 -2 12 -2q58 0 168 166l60 -35q-158 -270 -326 -272h-8q-53 0 -86 28q-37 29 -51 68q-15 37 -45 149q-13 49 -41 144q-41 112 -113 129l-135 -498h-219l184 688q4 12 4 25
q0 16 -8 30q-14 23 -43 25q-12 4 -39 4h-29l17 64q190 0 291 149h108z" />
    <glyph glyph-name="fraction" horiz-adv-x="1722" 
d="M1288 1395l23 59h422l-25 -59q-72 -13 -104 -45q-35 -33 -56 -109l-166 -639q-28 -119 -65 -223q-39 -105 -107 -195q-69 -92 -180 -149q-110 -58 -278 -64q-177 0 -351 67.5t-174 283.5q0 86 21 165l198 750q5 20 7 45t2 33q0 47 -35 67q-12 9 -64 9q-16 4 -45 4l23 59
h620l-16 -59h-8q-90 0 -121 -35q-35 -37 -66 -158l-215 -778q-12 -57 -12 -115q6 -108 90 -166q76 -55 178 -55h13q131 6 217 73.5t139 180.5q51 111 88 254l160 594q14 63 14 102q0 15 -2 25q-18 78 -125 78z" />
  </font>
</defs>
</svg>
